<?xml version="1.0" encoding="UTF-8"?>
<!-- Generator: Adobe Illustrator 24.1.0, SVG Export Plug-In . SVG Version: 6.00 Build 0)  -->
<!DOCTYPE svg PUBLIC "-//W3C//DTD SVG 1.1//EN" "http://www.w3.org/Graphics/SVG/1.1/DTD/svg11.dtd">
<svg version="1.1" xmlns:x="http://ns.adobe.com/Extensibility/1.0/" xmlns:i="http://ns.adobe.com/AdobeIllustrator/10.0/" xmlns:graph="http://ns.adobe.com/Graphs/1.0/" xmlns="http://www.w3.org/2000/svg" xmlns:xlink="http://www.w3.org/1999/xlink" x="0px" y="0px" viewBox="160 143 429 465" enable-background="new 0 0 750 750" xml:space="preserve">
<metadata>
	<sfw xmlns="http://ns.adobe.com/SaveForWeb/1.0/">
		<slices/>
		<sliceSourceBounds bottomLeftOrigin="true" height="9794.014" width="4677.262" x="-4661.262" y="-1022"/>
	</sfw>
</metadata>
<g id="N-DIMENSIONS">
</g>
<g id="N-TEXT">
</g>
<g id="AG-DETAILS">
	<g id="POLYLINE_489_">
		<path fill="none" stroke="#00B9D2" stroke-width="2" stroke-linecap="round" stroke-linejoin="round" stroke-miterlimit="10" d="    M548.765,340.22c-0.001-0.487,0.166-0.973,0.466-1.357c0.298-0.385,0.728-0.666,1.201-0.785c1.4-0.355,2.765,0.716,2.751,2.161    c-0.011,1.428-1.367,2.474-2.751,2.122c-0.473-0.119-0.903-0.399-1.201-0.785C548.931,341.193,548.764,340.707,548.765,340.22z"/>
	</g>
	<g id="POLYLINE_490_">
		<path fill="none" stroke="#00B9D2" stroke-width="2" stroke-linecap="round" stroke-linejoin="round" stroke-miterlimit="10" d="    M548.765,326.193c-0.001-0.487,0.166-0.973,0.466-1.357c0.298-0.385,0.728-0.666,1.201-0.785c1.4-0.355,2.765,0.716,2.751,2.161    c-0.011,1.428-1.367,2.474-2.751,2.122c-0.473-0.119-0.903-0.399-1.201-0.785C548.931,327.166,548.764,326.68,548.765,326.193z"/>
	</g>
	<g id="POLYLINE_491_">
		<path fill="none" stroke="#00B9D2" stroke-width="2" stroke-linecap="round" stroke-linejoin="round" stroke-miterlimit="10" d="    M548.765,312.167c-0.001-0.487,0.166-0.973,0.466-1.357c0.298-0.385,0.728-0.666,1.201-0.785c1.4-0.355,2.765,0.717,2.751,2.161    c-0.011,1.428-1.367,2.474-2.751,2.122c-0.473-0.119-0.903-0.399-1.201-0.785C548.931,313.14,548.764,312.654,548.765,312.167z"/>
	</g>
	<g id="POLYLINE_492_">
		<path fill="none" stroke="#00B9D2" stroke-width="2" stroke-linecap="round" stroke-linejoin="round" stroke-miterlimit="10" d="    M548.765,298.14c-0.001-0.487,0.166-0.973,0.466-1.357c0.298-0.385,0.728-0.666,1.201-0.785c1.4-0.355,2.765,0.716,2.751,2.161    c-0.011,1.428-1.367,2.474-2.751,2.122c-0.473-0.119-0.903-0.399-1.201-0.785C548.931,299.113,548.764,298.627,548.765,298.14z"/>
	</g>
	<g id="POLYLINE_493_">
		<path fill="none" stroke="#00B9D2" stroke-width="2" stroke-linecap="round" stroke-linejoin="round" stroke-miterlimit="10" d="    M538.91,340.22c-0.001-0.487,0.166-0.973,0.466-1.357c0.298-0.385,0.728-0.666,1.201-0.785c1.4-0.355,2.765,0.716,2.751,2.161    c-0.011,1.428-1.367,2.474-2.751,2.122c-0.473-0.119-0.903-0.399-1.201-0.785C539.076,341.193,538.909,340.707,538.91,340.22z"/>
	</g>
	<g id="POLYLINE_494_">
		<path fill="none" stroke="#00B9D2" stroke-width="2" stroke-linecap="round" stroke-linejoin="round" stroke-miterlimit="10" d="    M538.91,326.193c-0.001-0.487,0.166-0.973,0.466-1.357c0.298-0.385,0.728-0.666,1.201-0.785c1.4-0.355,2.765,0.716,2.751,2.161    c-0.011,1.428-1.367,2.474-2.751,2.122c-0.473-0.119-0.903-0.399-1.201-0.785C539.076,327.166,538.909,326.68,538.91,326.193z"/>
	</g>
	<g id="POLYLINE_495_">
		<path fill="none" stroke="#00B9D2" stroke-width="2" stroke-linecap="round" stroke-linejoin="round" stroke-miterlimit="10" d="    M538.91,312.167c-0.001-0.487,0.166-0.973,0.466-1.357c0.298-0.385,0.728-0.666,1.201-0.785c1.4-0.355,2.765,0.717,2.751,2.161    c-0.011,1.428-1.367,2.474-2.751,2.122c-0.473-0.119-0.903-0.399-1.201-0.785C539.076,313.14,538.909,312.654,538.91,312.167z"/>
	</g>
	<g id="POLYLINE_496_">
		<path fill="none" stroke="#00B9D2" stroke-width="2" stroke-linecap="round" stroke-linejoin="round" stroke-miterlimit="10" d="    M538.91,298.14c-0.001-0.487,0.166-0.973,0.466-1.357c0.298-0.385,0.728-0.666,1.201-0.785c1.4-0.355,2.765,0.716,2.751,2.161    c-0.011,1.428-1.367,2.474-2.751,2.122c-0.473-0.119-0.903-0.399-1.201-0.785C539.076,299.113,538.909,298.627,538.91,298.14z"/>
	</g>
	<g id="POLYLINE_497_">
		<path fill="none" stroke="#00B9D2" stroke-width="2" stroke-linecap="round" stroke-linejoin="round" stroke-miterlimit="10" d="    M529.055,340.22c-0.001-0.487,0.166-0.973,0.466-1.357c0.298-0.385,0.728-0.666,1.201-0.785c1.4-0.355,2.765,0.716,2.751,2.161    c-0.011,1.428-1.367,2.474-2.751,2.122c-0.473-0.119-0.903-0.399-1.201-0.785C529.221,341.193,529.054,340.707,529.055,340.22z"/>
	</g>
	<g id="POLYLINE_498_">
		<path fill="none" stroke="#00B9D2" stroke-width="2" stroke-linecap="round" stroke-linejoin="round" stroke-miterlimit="10" d="    M529.055,326.193c-0.001-0.487,0.166-0.973,0.466-1.357c0.298-0.385,0.728-0.666,1.201-0.785c1.4-0.355,2.765,0.716,2.751,2.161    c-0.011,1.428-1.367,2.474-2.751,2.122c-0.473-0.119-0.903-0.399-1.201-0.785C529.221,327.166,529.054,326.68,529.055,326.193z"/>
	</g>
	<g id="POLYLINE_499_">
		<path fill="none" stroke="#00B9D2" stroke-width="2" stroke-linecap="round" stroke-linejoin="round" stroke-miterlimit="10" d="    M529.055,312.167c-0.001-0.487,0.166-0.973,0.466-1.357c0.298-0.385,0.728-0.666,1.201-0.785c1.4-0.355,2.765,0.717,2.751,2.161    c-0.011,1.428-1.367,2.474-2.751,2.122c-0.473-0.119-0.903-0.399-1.201-0.785C529.221,313.14,529.054,312.654,529.055,312.167z"/>
	</g>
	<g id="POLYLINE_500_">
		<path fill="none" stroke="#00B9D2" stroke-width="2" stroke-linecap="round" stroke-linejoin="round" stroke-miterlimit="10" d="    M529.055,298.14c-0.001-0.487,0.166-0.973,0.466-1.357c0.298-0.385,0.728-0.666,1.201-0.785c1.4-0.355,2.765,0.716,2.751,2.161    c-0.011,1.428-1.367,2.474-2.751,2.122c-0.473-0.119-0.903-0.399-1.201-0.785C529.221,299.113,529.054,298.627,529.055,298.14z"/>
	</g>
	<g id="POLYLINE_501_">
		<path fill="none" stroke="#00B9D2" stroke-width="2" stroke-linecap="round" stroke-linejoin="round" stroke-miterlimit="10" d="    M519.2,340.22c-0.001-0.487,0.166-0.973,0.466-1.357c0.298-0.385,0.728-0.666,1.201-0.785c1.4-0.355,2.765,0.716,2.751,2.161    c-0.011,1.428-1.367,2.474-2.751,2.122c-0.473-0.119-0.903-0.399-1.201-0.785C519.366,341.193,519.199,340.707,519.2,340.22z"/>
	</g>
	<g id="POLYLINE_502_">
		<path fill="none" stroke="#00B9D2" stroke-width="2" stroke-linecap="round" stroke-linejoin="round" stroke-miterlimit="10" d="    M519.2,326.193c-0.001-0.487,0.166-0.973,0.466-1.357c0.298-0.385,0.728-0.666,1.201-0.785c1.4-0.355,2.765,0.716,2.751,2.161    c-0.011,1.428-1.367,2.474-2.751,2.122c-0.473-0.119-0.903-0.399-1.201-0.785C519.366,327.166,519.199,326.68,519.2,326.193z"/>
	</g>
	<g id="POLYLINE_503_">
		<path fill="none" stroke="#00B9D2" stroke-width="2" stroke-linecap="round" stroke-linejoin="round" stroke-miterlimit="10" d="    M519.2,312.167c-0.001-0.487,0.166-0.973,0.466-1.357c0.298-0.385,0.728-0.666,1.201-0.785c1.4-0.355,2.765,0.717,2.751,2.161    c-0.011,1.428-1.367,2.474-2.751,2.122c-0.473-0.119-0.903-0.399-1.201-0.785C519.366,313.14,519.199,312.654,519.2,312.167z"/>
	</g>
	<g id="POLYLINE_504_">
		<path fill="none" stroke="#00B9D2" stroke-width="2" stroke-linecap="round" stroke-linejoin="round" stroke-miterlimit="10" d="    M519.2,298.14c-0.001-0.487,0.166-0.973,0.466-1.357c0.298-0.385,0.728-0.666,1.201-0.785c1.4-0.355,2.765,0.716,2.751,2.161    c-0.011,1.428-1.367,2.474-2.751,2.122c-0.473-0.119-0.903-0.399-1.201-0.785C519.366,299.113,519.199,298.627,519.2,298.14z"/>
	</g>
	<g id="POLYLINE_505_">
		<path fill="none" stroke="#00B9D2" stroke-width="2" stroke-linecap="round" stroke-linejoin="round" stroke-miterlimit="10" d="    M509.345,340.22c-0.001-0.487,0.166-0.973,0.466-1.357c0.298-0.385,0.728-0.666,1.201-0.785c1.4-0.355,2.765,0.716,2.751,2.161    c-0.011,1.428-1.367,2.474-2.751,2.122c-0.473-0.119-0.902-0.399-1.201-0.785C509.511,341.193,509.344,340.707,509.345,340.22z"/>
	</g>
	<g id="POLYLINE_506_">
		<path fill="none" stroke="#00B9D2" stroke-width="2" stroke-linecap="round" stroke-linejoin="round" stroke-miterlimit="10" d="    M509.345,326.193c-0.001-0.487,0.166-0.973,0.466-1.357c0.298-0.385,0.728-0.666,1.201-0.785c1.4-0.355,2.765,0.716,2.751,2.161    c-0.011,1.428-1.367,2.474-2.751,2.122c-0.473-0.119-0.902-0.399-1.201-0.785C509.511,327.166,509.344,326.68,509.345,326.193z"/>
	</g>
	<g id="POLYLINE_507_">
		<path fill="none" stroke="#00B9D2" stroke-width="2" stroke-linecap="round" stroke-linejoin="round" stroke-miterlimit="10" d="    M509.345,312.167c-0.001-0.487,0.166-0.973,0.466-1.357c0.298-0.385,0.728-0.666,1.201-0.785c1.4-0.355,2.765,0.717,2.751,2.161    c-0.011,1.428-1.367,2.474-2.751,2.122c-0.473-0.119-0.902-0.399-1.201-0.785C509.511,313.14,509.344,312.654,509.345,312.167z"/>
	</g>
	<g id="POLYLINE_508_">
		<path fill="none" stroke="#00B9D2" stroke-width="2" stroke-linecap="round" stroke-linejoin="round" stroke-miterlimit="10" d="    M509.345,298.14c-0.001-0.487,0.166-0.973,0.466-1.357c0.298-0.385,0.728-0.666,1.201-0.785c1.4-0.355,2.765,0.716,2.751,2.161    c-0.011,1.428-1.367,2.474-2.751,2.122c-0.473-0.119-0.902-0.399-1.201-0.785C509.511,299.113,509.344,298.627,509.345,298.14z"/>
	</g>
	<g id="POLYLINE_509_">
		<path fill="none" stroke="#00B9D2" stroke-width="2" stroke-linecap="round" stroke-linejoin="round" stroke-miterlimit="10" d="    M499.49,340.22c-0.001-0.487,0.166-0.973,0.466-1.357c0.298-0.385,0.728-0.666,1.201-0.785c1.4-0.355,2.765,0.716,2.751,2.161    c-0.011,1.428-1.367,2.474-2.751,2.122c-0.473-0.119-0.902-0.399-1.201-0.785C499.656,341.193,499.489,340.707,499.49,340.22z"/>
	</g>
	<g id="POLYLINE_510_">
		<path fill="none" stroke="#00B9D2" stroke-width="2" stroke-linecap="round" stroke-linejoin="round" stroke-miterlimit="10" d="    M499.49,326.193c-0.001-0.487,0.166-0.973,0.466-1.357c0.298-0.385,0.728-0.666,1.201-0.785c1.4-0.355,2.765,0.716,2.751,2.161    c-0.011,1.428-1.367,2.474-2.751,2.122c-0.473-0.119-0.902-0.399-1.201-0.785C499.656,327.166,499.489,326.68,499.49,326.193z"/>
	</g>
	<g id="POLYLINE_511_">
		<path fill="none" stroke="#00B9D2" stroke-width="2" stroke-linecap="round" stroke-linejoin="round" stroke-miterlimit="10" d="    M499.49,312.167c-0.001-0.487,0.166-0.973,0.466-1.357c0.298-0.385,0.728-0.666,1.201-0.785c1.4-0.355,2.765,0.717,2.751,2.161    c-0.011,1.428-1.367,2.474-2.751,2.122c-0.473-0.119-0.902-0.399-1.201-0.785C499.656,313.14,499.489,312.654,499.49,312.167z"/>
	</g>
	<g id="POLYLINE_512_">
		<path fill="none" stroke="#00B9D2" stroke-width="2" stroke-linecap="round" stroke-linejoin="round" stroke-miterlimit="10" d="    M499.49,298.14c-0.001-0.487,0.166-0.973,0.466-1.357c0.298-0.385,0.728-0.666,1.201-0.785c1.4-0.355,2.765,0.716,2.751,2.161    c-0.011,1.428-1.367,2.474-2.751,2.122c-0.473-0.119-0.902-0.399-1.201-0.785C499.656,299.113,499.489,298.627,499.49,298.14z"/>
	</g>
	<g id="POLYLINE_513_">
		<path fill="none" stroke="#00B9D2" stroke-width="2" stroke-linecap="round" stroke-linejoin="round" stroke-miterlimit="10" d="    M489.635,340.22c-0.001-0.487,0.166-0.973,0.466-1.357c0.298-0.385,0.728-0.666,1.201-0.785c1.4-0.355,2.765,0.716,2.751,2.161    c-0.011,1.428-1.367,2.474-2.751,2.122c-0.473-0.119-0.902-0.399-1.201-0.785C489.801,341.193,489.634,340.707,489.635,340.22z"/>
	</g>
	<g id="POLYLINE_514_">
		<path fill="none" stroke="#00B9D2" stroke-width="2" stroke-linecap="round" stroke-linejoin="round" stroke-miterlimit="10" d="    M489.635,326.193c-0.001-0.487,0.166-0.973,0.466-1.357c0.298-0.385,0.728-0.666,1.201-0.785c1.4-0.355,2.765,0.716,2.751,2.161    c-0.011,1.428-1.367,2.474-2.751,2.122c-0.473-0.119-0.902-0.399-1.201-0.785C489.801,327.166,489.634,326.68,489.635,326.193z"/>
	</g>
	<g id="POLYLINE_515_">
		<path fill="none" stroke="#00B9D2" stroke-width="2" stroke-linecap="round" stroke-linejoin="round" stroke-miterlimit="10" d="    M489.635,312.167c-0.001-0.487,0.166-0.973,0.466-1.357c0.298-0.385,0.728-0.666,1.201-0.785c1.4-0.355,2.765,0.717,2.751,2.161    c-0.011,1.428-1.367,2.474-2.751,2.122c-0.473-0.119-0.902-0.399-1.201-0.785C489.801,313.14,489.634,312.654,489.635,312.167z"/>
	</g>
	<g id="POLYLINE_516_">
		<path fill="none" stroke="#00B9D2" stroke-width="2" stroke-linecap="round" stroke-linejoin="round" stroke-miterlimit="10" d="    M489.635,298.14c-0.001-0.487,0.166-0.973,0.466-1.357c0.298-0.385,0.728-0.666,1.201-0.785c1.4-0.355,2.765,0.716,2.751,2.161    c-0.011,1.428-1.367,2.474-2.751,2.122c-0.473-0.119-0.902-0.399-1.201-0.785C489.801,299.113,489.634,298.627,489.635,298.14z"/>
	</g>
	<g id="POLYLINE_517_">
		<path fill="none" stroke="#00B9D2" stroke-width="2" stroke-linecap="round" stroke-linejoin="round" stroke-miterlimit="10" d="    M201.129,340.22c0.001-0.487-0.166-0.973-0.466-1.357c-0.298-0.385-0.728-0.666-1.201-0.785c-1.4-0.355-2.765,0.716-2.751,2.161    c0.011,1.428,1.367,2.474,2.751,2.122c0.473-0.119,0.903-0.399,1.201-0.785C200.963,341.193,201.13,340.707,201.129,340.22z"/>
	</g>
	<g id="POLYLINE_518_">
		<path fill="none" stroke="#00B9D2" stroke-width="2" stroke-linecap="round" stroke-linejoin="round" stroke-miterlimit="10" d="    M201.129,326.193c0.001-0.487-0.166-0.973-0.466-1.357c-0.298-0.385-0.728-0.666-1.201-0.785c-1.4-0.355-2.765,0.716-2.751,2.161    c0.011,1.428,1.367,2.474,2.751,2.122c0.473-0.119,0.903-0.399,1.201-0.785C200.963,327.166,201.13,326.68,201.129,326.193z"/>
	</g>
	<g id="POLYLINE_519_">
		<path fill="none" stroke="#00B9D2" stroke-width="2" stroke-linecap="round" stroke-linejoin="round" stroke-miterlimit="10" d="    M201.129,312.167c0.001-0.487-0.166-0.973-0.466-1.357c-0.298-0.385-0.728-0.666-1.201-0.785c-1.4-0.355-2.765,0.717-2.751,2.161    c0.011,1.428,1.367,2.474,2.751,2.122c0.473-0.119,0.903-0.399,1.201-0.785C200.963,313.14,201.13,312.654,201.129,312.167z"/>
	</g>
	<g id="POLYLINE_520_">
		<path fill="none" stroke="#00B9D2" stroke-width="2" stroke-linecap="round" stroke-linejoin="round" stroke-miterlimit="10" d="    M201.129,298.14c0.001-0.487-0.166-0.973-0.466-1.357c-0.298-0.385-0.728-0.666-1.201-0.785c-1.4-0.355-2.765,0.716-2.751,2.161    c0.011,1.428,1.367,2.474,2.751,2.122c0.473-0.119,0.903-0.399,1.201-0.785C200.963,299.113,201.13,298.627,201.129,298.14z"/>
	</g>
	<g id="POLYLINE_521_">
		<path fill="none" stroke="#00B9D2" stroke-width="2" stroke-linecap="round" stroke-linejoin="round" stroke-miterlimit="10" d="    M210.984,340.22c0.001-0.487-0.166-0.973-0.466-1.357c-0.298-0.385-0.728-0.666-1.201-0.785c-1.4-0.355-2.765,0.716-2.751,2.161    c0.011,1.428,1.367,2.474,2.751,2.122c0.473-0.119,0.903-0.399,1.201-0.785C210.818,341.193,210.985,340.707,210.984,340.22z"/>
	</g>
	<g id="POLYLINE_522_">
		<path fill="none" stroke="#00B9D2" stroke-width="2" stroke-linecap="round" stroke-linejoin="round" stroke-miterlimit="10" d="    M210.984,326.193c0.001-0.487-0.166-0.973-0.466-1.357c-0.298-0.385-0.728-0.666-1.201-0.785c-1.4-0.355-2.765,0.716-2.751,2.161    c0.011,1.428,1.367,2.474,2.751,2.122c0.473-0.119,0.903-0.399,1.201-0.785C210.818,327.166,210.985,326.68,210.984,326.193z"/>
	</g>
	<g id="POLYLINE_523_">
		<path fill="none" stroke="#00B9D2" stroke-width="2" stroke-linecap="round" stroke-linejoin="round" stroke-miterlimit="10" d="    M210.984,312.167c0.001-0.487-0.166-0.973-0.466-1.357c-0.298-0.385-0.728-0.666-1.201-0.785c-1.4-0.355-2.765,0.717-2.751,2.161    c0.011,1.428,1.367,2.474,2.751,2.122c0.473-0.119,0.903-0.399,1.201-0.785C210.818,313.14,210.985,312.654,210.984,312.167z"/>
	</g>
	<g id="POLYLINE_524_">
		<path fill="none" stroke="#00B9D2" stroke-width="2" stroke-linecap="round" stroke-linejoin="round" stroke-miterlimit="10" d="    M210.984,298.14c0.001-0.487-0.166-0.973-0.466-1.357c-0.298-0.385-0.728-0.666-1.201-0.785c-1.4-0.355-2.765,0.716-2.751,2.161    c0.011,1.428,1.367,2.474,2.751,2.122c0.473-0.119,0.903-0.399,1.201-0.785C210.818,299.113,210.985,298.627,210.984,298.14z"/>
	</g>
	<g id="POLYLINE_525_">
		<path fill="none" stroke="#00B9D2" stroke-width="2" stroke-linecap="round" stroke-linejoin="round" stroke-miterlimit="10" d="    M220.839,340.22c0.001-0.487-0.166-0.973-0.466-1.357c-0.298-0.385-0.728-0.666-1.201-0.785c-1.4-0.355-2.765,0.716-2.751,2.161    c0.011,1.428,1.367,2.474,2.751,2.122c0.473-0.119,0.903-0.399,1.201-0.785C220.673,341.193,220.84,340.707,220.839,340.22z"/>
	</g>
	<g id="POLYLINE_526_">
		<path fill="none" stroke="#00B9D2" stroke-width="2" stroke-linecap="round" stroke-linejoin="round" stroke-miterlimit="10" d="    M220.839,326.193c0.001-0.487-0.166-0.973-0.466-1.357c-0.298-0.385-0.728-0.666-1.201-0.785c-1.4-0.355-2.765,0.716-2.751,2.161    c0.011,1.428,1.367,2.474,2.751,2.122c0.473-0.119,0.903-0.399,1.201-0.785C220.673,327.166,220.84,326.68,220.839,326.193z"/>
	</g>
	<g id="POLYLINE_527_">
		<path fill="none" stroke="#00B9D2" stroke-width="2" stroke-linecap="round" stroke-linejoin="round" stroke-miterlimit="10" d="    M220.839,312.167c0.001-0.487-0.166-0.973-0.466-1.357c-0.298-0.385-0.728-0.666-1.201-0.785c-1.4-0.355-2.765,0.717-2.751,2.161    c0.011,1.428,1.367,2.474,2.751,2.122c0.473-0.119,0.903-0.399,1.201-0.785C220.673,313.14,220.84,312.654,220.839,312.167z"/>
	</g>
	<g id="POLYLINE_528_">
		<path fill="none" stroke="#00B9D2" stroke-width="2" stroke-linecap="round" stroke-linejoin="round" stroke-miterlimit="10" d="    M220.839,298.14c0.001-0.487-0.166-0.973-0.466-1.357c-0.298-0.385-0.728-0.666-1.201-0.785c-1.4-0.355-2.765,0.716-2.751,2.161    c0.011,1.428,1.367,2.474,2.751,2.122c0.473-0.119,0.903-0.399,1.201-0.785C220.673,299.113,220.84,298.627,220.839,298.14z"/>
	</g>
	<g id="POLYLINE_529_">
		<path fill="none" stroke="#00B9D2" stroke-width="2" stroke-linecap="round" stroke-linejoin="round" stroke-miterlimit="10" d="    M230.694,340.22c0.001-0.487-0.166-0.973-0.466-1.357c-0.298-0.385-0.728-0.666-1.201-0.785c-1.4-0.355-2.765,0.716-2.751,2.161    c0.011,1.428,1.367,2.474,2.751,2.122c0.473-0.119,0.902-0.399,1.201-0.785C230.528,341.193,230.695,340.707,230.694,340.22z"/>
	</g>
	<g id="POLYLINE_530_">
		<path fill="none" stroke="#00B9D2" stroke-width="2" stroke-linecap="round" stroke-linejoin="round" stroke-miterlimit="10" d="    M230.694,326.193c0.001-0.487-0.166-0.973-0.466-1.357c-0.298-0.385-0.728-0.666-1.201-0.785c-1.4-0.355-2.765,0.716-2.751,2.161    c0.011,1.428,1.367,2.474,2.751,2.122c0.473-0.119,0.902-0.399,1.201-0.785C230.528,327.166,230.695,326.68,230.694,326.193z"/>
	</g>
	<g id="POLYLINE_531_">
		<path fill="none" stroke="#00B9D2" stroke-width="2" stroke-linecap="round" stroke-linejoin="round" stroke-miterlimit="10" d="    M230.694,312.167c0.001-0.487-0.166-0.973-0.466-1.357c-0.298-0.385-0.728-0.666-1.201-0.785c-1.4-0.355-2.765,0.717-2.751,2.161    c0.011,1.428,1.367,2.474,2.751,2.122c0.473-0.119,0.902-0.399,1.201-0.785C230.528,313.14,230.695,312.654,230.694,312.167z"/>
	</g>
	<g id="POLYLINE_532_">
		<path fill="none" stroke="#00B9D2" stroke-width="2" stroke-linecap="round" stroke-linejoin="round" stroke-miterlimit="10" d="    M230.694,298.14c0.001-0.487-0.166-0.973-0.466-1.357c-0.298-0.385-0.728-0.666-1.201-0.785c-1.4-0.355-2.765,0.716-2.751,2.161    c0.011,1.428,1.367,2.474,2.751,2.122c0.473-0.119,0.902-0.399,1.201-0.785C230.528,299.113,230.695,298.627,230.694,298.14z"/>
	</g>
	<g id="POLYLINE_533_">
		<path fill="none" stroke="#00B9D2" stroke-width="2" stroke-linecap="round" stroke-linejoin="round" stroke-miterlimit="10" d="    M240.549,340.22c0.001-0.487-0.166-0.973-0.466-1.357c-0.298-0.385-0.728-0.666-1.201-0.785c-1.4-0.355-2.765,0.716-2.751,2.161    c0.011,1.428,1.367,2.474,2.751,2.122c0.473-0.119,0.903-0.399,1.201-0.785C240.383,341.193,240.55,340.707,240.549,340.22z"/>
	</g>
	<g id="POLYLINE_534_">
		<path fill="none" stroke="#00B9D2" stroke-width="2" stroke-linecap="round" stroke-linejoin="round" stroke-miterlimit="10" d="    M240.549,326.193c0.001-0.487-0.166-0.973-0.466-1.357c-0.298-0.385-0.728-0.666-1.201-0.785c-1.4-0.355-2.765,0.716-2.751,2.161    c0.011,1.428,1.367,2.474,2.751,2.122c0.473-0.119,0.903-0.399,1.201-0.785C240.383,327.166,240.55,326.68,240.549,326.193z"/>
	</g>
	<g id="POLYLINE_535_">
		<path fill="none" stroke="#00B9D2" stroke-width="2" stroke-linecap="round" stroke-linejoin="round" stroke-miterlimit="10" d="    M240.549,312.167c0.001-0.487-0.166-0.973-0.466-1.357c-0.298-0.385-0.728-0.666-1.201-0.785c-1.4-0.355-2.765,0.717-2.751,2.161    c0.011,1.428,1.367,2.474,2.751,2.122c0.473-0.119,0.903-0.399,1.201-0.785C240.383,313.14,240.55,312.654,240.549,312.167z"/>
	</g>
	<g id="POLYLINE_536_">
		<path fill="none" stroke="#00B9D2" stroke-width="2" stroke-linecap="round" stroke-linejoin="round" stroke-miterlimit="10" d="    M240.549,298.14c0.001-0.487-0.166-0.973-0.466-1.357c-0.298-0.385-0.728-0.666-1.201-0.785c-1.4-0.355-2.765,0.716-2.751,2.161    c0.011,1.428,1.367,2.474,2.751,2.122c0.473-0.119,0.903-0.399,1.201-0.785C240.383,299.113,240.55,298.627,240.549,298.14z"/>
	</g>
	<g id="POLYLINE_537_">
		<path fill="none" stroke="#00B9D2" stroke-width="2" stroke-linecap="round" stroke-linejoin="round" stroke-miterlimit="10" d="    M250.404,340.22c0.001-0.487-0.166-0.973-0.466-1.357c-0.298-0.385-0.728-0.666-1.201-0.785c-1.4-0.355-2.765,0.716-2.751,2.161    c0.011,1.428,1.367,2.474,2.751,2.122c0.473-0.119,0.903-0.399,1.201-0.785C250.238,341.193,250.405,340.707,250.404,340.22z"/>
	</g>
	<g id="POLYLINE_538_">
		<path fill="none" stroke="#00B9D2" stroke-width="2" stroke-linecap="round" stroke-linejoin="round" stroke-miterlimit="10" d="    M250.404,326.193c0.001-0.487-0.166-0.973-0.466-1.357c-0.298-0.385-0.728-0.666-1.201-0.785c-1.4-0.355-2.765,0.716-2.751,2.161    c0.011,1.428,1.367,2.474,2.751,2.122c0.473-0.119,0.903-0.399,1.201-0.785C250.238,327.166,250.405,326.68,250.404,326.193z"/>
	</g>
	<g id="POLYLINE_539_">
		<path fill="none" stroke="#00B9D2" stroke-width="2" stroke-linecap="round" stroke-linejoin="round" stroke-miterlimit="10" d="    M250.404,312.167c0.001-0.487-0.166-0.973-0.466-1.357c-0.298-0.385-0.728-0.666-1.201-0.785c-1.4-0.355-2.765,0.717-2.751,2.161    c0.011,1.428,1.367,2.474,2.751,2.122c0.473-0.119,0.903-0.399,1.201-0.785C250.238,313.14,250.405,312.654,250.404,312.167z"/>
	</g>
	<g id="POLYLINE_540_">
		<path fill="none" stroke="#00B9D2" stroke-width="2" stroke-linecap="round" stroke-linejoin="round" stroke-miterlimit="10" d="    M250.404,298.14c0.001-0.487-0.166-0.973-0.466-1.357c-0.298-0.385-0.728-0.666-1.201-0.785c-1.4-0.355-2.765,0.716-2.751,2.161    c0.011,1.428,1.367,2.474,2.751,2.122c0.473-0.119,0.903-0.399,1.201-0.785C250.238,299.113,250.405,298.627,250.404,298.14z"/>
	</g>
	<g id="POLYLINE_541_">
		<path fill="none" stroke="#00B9D2" stroke-width="2" stroke-linecap="round" stroke-linejoin="round" stroke-miterlimit="10" d="    M260.259,340.22c0.001-0.487-0.166-0.973-0.466-1.357c-0.298-0.385-0.728-0.666-1.201-0.785c-1.4-0.355-2.765,0.716-2.751,2.161    c0.011,1.428,1.367,2.474,2.751,2.122c0.473-0.119,0.902-0.399,1.201-0.785C260.093,341.193,260.26,340.707,260.259,340.22z"/>
	</g>
	<g id="POLYLINE_542_">
		<path fill="none" stroke="#00B9D2" stroke-width="2" stroke-linecap="round" stroke-linejoin="round" stroke-miterlimit="10" d="    M260.259,326.193c0.001-0.487-0.166-0.973-0.466-1.357c-0.298-0.385-0.728-0.666-1.201-0.785c-1.4-0.355-2.765,0.716-2.751,2.161    c0.011,1.428,1.367,2.474,2.751,2.122c0.473-0.119,0.902-0.399,1.201-0.785C260.093,327.166,260.26,326.68,260.259,326.193z"/>
	</g>
	<g id="POLYLINE_543_">
		<path fill="none" stroke="#00B9D2" stroke-width="2" stroke-linecap="round" stroke-linejoin="round" stroke-miterlimit="10" d="    M260.259,312.167c0.001-0.487-0.166-0.973-0.466-1.357c-0.298-0.385-0.728-0.666-1.201-0.785c-1.4-0.355-2.765,0.717-2.751,2.161    c0.011,1.428,1.367,2.474,2.751,2.122c0.473-0.119,0.902-0.399,1.201-0.785C260.093,313.14,260.26,312.654,260.259,312.167z"/>
	</g>
	<g id="POLYLINE_544_">
		<path fill="none" stroke="#00B9D2" stroke-width="2" stroke-linecap="round" stroke-linejoin="round" stroke-miterlimit="10" d="    M260.259,298.14c0.001-0.487-0.166-0.973-0.466-1.357c-0.298-0.385-0.728-0.666-1.201-0.785c-1.4-0.355-2.765,0.716-2.751,2.161    c0.011,1.428,1.367,2.474,2.751,2.122c0.473-0.119,0.902-0.399,1.201-0.785C260.093,299.113,260.26,298.627,260.259,298.14z"/>
	</g>
	<g id="POLYLINE_553_">
		
			<rect x="463.925" y="575.479" fill="none" stroke="#00B9D2" stroke-width="2" stroke-linecap="round" stroke-linejoin="round" stroke-miterlimit="10" width="5.507" height="10.145"/>
	</g>
	<g id="POLYLINE_554_">
		
			<rect x="451.973" y="575.479" fill="none" stroke="#00B9D2" stroke-width="2" stroke-linecap="round" stroke-linejoin="round" stroke-miterlimit="10" width="5.507" height="10.145"/>
	</g>
	<g id="POLYLINE_555_">
		
			<rect x="287.869" y="575.479" fill="none" stroke="#00B9D2" stroke-width="2" stroke-linecap="round" stroke-linejoin="round" stroke-miterlimit="10" width="5.507" height="10.145"/>
	</g>
</g>
<g id="AG-DIGITAL">
	<g id="POLYLINE_1091_">
		
			<polyline fill="none" stroke="#00B9D2" stroke-width="2.75" stroke-linecap="round" stroke-linejoin="round" stroke-miterlimit="10" points="    569.865,375 569.963,375.188 570.061,375.378 570.157,375.571 570.253,375.765 570.347,375.962 570.44,376.162 570.623,376.567     570.748,376.855 570.871,377.148 570.993,377.446 571.112,377.75 571.229,378.059 571.345,378.375 571.458,378.696     571.57,379.025 571.68,379.36 571.788,379.702 571.894,380.053 571.998,380.41 572.1,380.777 572.201,381.151 572.3,381.535     572.397,381.927 572.492,382.329 572.585,382.741 572.677,383.162 572.767,383.594 572.942,384.49 573.111,385.432     573.273,386.42 573.428,387.459 573.577,388.549 573.72,389.695 573.857,390.898 573.988,392.161 574.232,394.875     574.455,397.858 574.656,401.128 574.836,404.707 574.997,408.613 575.266,417.485 575.579,437.77 575.281,569.52     575.225,570.207 575.159,570.883 575.082,571.548 574.996,572.203 574.949,572.527 574.9,572.847 574.848,573.165     574.794,573.481 574.737,573.793 574.678,574.103 574.617,574.411 574.552,574.715 574.486,575.017 574.417,575.317     574.345,575.613 574.271,575.907 574.194,576.199 574.115,576.487 574.033,576.773 573.949,577.057 573.863,577.337     573.774,577.615 573.682,577.89 573.588,578.163 573.491,578.433 573.392,578.7 573.29,578.965 573.186,579.227 573.08,579.486     572.97,579.743 572.859,579.997 572.745,580.248 572.628,580.497 572.509,580.743 572.387,580.986 572.263,581.226     572.136,581.464 572.007,581.7 571.875,581.932 571.74,582.162 571.604,582.389 571.464,582.614 571.322,582.836 571.178,583.055     571.031,583.272 570.881,583.486 570.729,583.697 570.575,583.905 570.417,584.111 570.258,584.314 570.096,584.515     569.931,584.713 569.764,584.908 569.594,585.101 569.421,585.291 569.247,585.478 569.069,585.662 568.889,585.844     568.707,586.023 568.521,586.2 568.334,586.374 568.144,586.545 567.951,586.713 567.756,586.879 567.558,587.042     567.357,587.203 567.154,587.361 566.949,587.516 566.741,587.668 566.53,587.818 566.317,587.965 566.101,588.11     565.883,588.252 565.662,588.391 565.438,588.527 565.212,588.661 564.984,588.792 564.753,588.921 564.519,589.047     564.282,589.17 564.043,589.29 563.802,589.408 563.558,589.523 563.311,589.635 563.062,589.745 562.81,589.852 562.556,589.957     562.299,590.059 562.039,590.158 561.777,590.254 561.512,590.348 561.245,590.439 560.975,590.527 560.703,590.613     560.427,590.696 560.15,590.777 559.869,590.854 559.586,590.929 559.301,591.002 559.013,591.072 558.722,591.139     558.429,591.203 558.133,591.265 557.834,591.324 557.533,591.38 557.23,591.434 556.923,591.485 556.614,591.533     556.303,591.579 555.989,591.622 555.672,591.662 555.352,591.7 555.03,591.735 554.706,591.768 554.378,591.797 554.048,591.824     553.381,591.87 552.703,591.906 552.014,591.93 551.315,591.944 374.947,593.451 198.579,591.944 197.88,591.93 197.191,591.906     196.513,591.87 195.845,591.824 195.516,591.797 195.188,591.768 194.864,591.735 194.542,591.7 194.222,591.662 193.905,591.622     193.591,591.579 193.28,591.533 192.971,591.485 192.664,591.434 192.361,591.38 192.06,591.324 191.761,591.265 191.465,591.203     191.172,591.139 190.881,591.072 190.593,591.002 190.307,590.929 190.025,590.854 189.744,590.777 189.467,590.696     189.191,590.613 188.919,590.527 188.649,590.439 188.382,590.348 188.117,590.254 187.855,590.158 187.595,590.059     187.338,589.957 187.084,589.852 186.832,589.745 186.583,589.635 186.336,589.523 186.092,589.408 185.851,589.29     185.612,589.17 185.375,589.047 185.141,588.921 184.91,588.792 184.682,588.661 184.456,588.527 184.232,588.391     184.011,588.252 183.793,588.11 183.577,587.965 183.364,587.818 183.153,587.668 182.945,587.516 182.74,587.361     182.537,587.203 182.336,587.042 182.138,586.879 181.943,586.713 181.75,586.545 181.56,586.374 181.372,586.2 181.187,586.023     181.005,585.844 180.825,585.662 180.647,585.478 180.473,585.291 180.3,585.101 180.13,584.908 179.963,584.713 179.798,584.515     179.636,584.314 179.477,584.111 179.319,583.905 179.165,583.697 179.013,583.486 178.863,583.272 178.716,583.055     178.572,582.836 178.43,582.614 178.29,582.389 178.154,582.162 178.019,581.932 177.887,581.7 177.758,581.464 177.631,581.226     177.507,580.986 177.385,580.743 177.266,580.497 177.149,580.248 177.035,579.997 176.924,579.743 176.814,579.486     176.708,579.227 176.604,578.965 176.502,578.7 176.403,578.433 176.306,578.163 176.212,577.89 176.12,577.615 176.031,577.337     175.945,577.057 175.861,576.773 175.779,576.487 175.7,576.199 175.623,575.907 175.549,575.613 175.477,575.317     175.408,575.017 175.342,574.715 175.277,574.411 175.216,574.103 175.156,573.793 175.1,573.481 175.046,573.165     174.994,572.847 174.945,572.527 174.898,572.203 174.812,571.548 174.735,570.883 174.669,570.207 174.613,569.52     174.315,437.77 174.628,417.485 174.897,408.613 175.058,404.707 175.238,401.128 175.439,397.858 175.662,394.875     175.906,392.161 176.037,390.898 176.174,389.695 176.317,388.549 176.466,387.459 176.621,386.42 176.783,385.432     176.952,384.49 177.127,383.594 177.217,383.162 177.309,382.741 177.402,382.329 177.497,381.927 177.594,381.535     177.693,381.151 177.794,380.777 177.896,380.41 178,380.053 178.106,379.702 178.214,379.36 178.324,379.025 178.436,378.696     178.549,378.375 178.665,378.059 178.782,377.75 178.901,377.446 179.023,377.148 179.146,376.855 179.271,376.567     179.454,376.162 179.547,375.962 179.641,375.765 179.737,375.571 179.833,375.378 179.931,375.188 180.029,375   "/>
	</g>
	<g id="POLYLINE_1090_">
		
			<path fill="none" stroke="#00B9D2" stroke-width="2.75" stroke-linecap="round" stroke-linejoin="round" stroke-miterlimit="10" d="    M512.029,460.464c-4.692-0.013-8.851,3.224-9.99,7.776c-1.646,6.553,3.323,12.881,10.08,12.835    c6.681-0.07,11.529-6.355,9.9-12.835C520.88,463.688,516.721,460.451,512.029,460.464z"/>
	</g>
	<g id="POLYLINE_1089_">
		
			<path fill="none" stroke="#00B9D2" stroke-width="2.75" stroke-linecap="round" stroke-linejoin="round" stroke-miterlimit="10" d="    M555.544,460.464c-4.692-0.013-8.851,3.224-9.99,7.776c-1.646,6.553,3.323,12.881,10.08,12.835    c6.681-0.07,11.529-6.355,9.9-12.835C564.395,463.688,560.237,460.451,555.544,460.464z"/>
	</g>
	<g id="POLYLINE_1088_">
		
			<path fill="none" stroke="#00B9D2" stroke-width="2.75" stroke-linecap="round" stroke-linejoin="round" stroke-miterlimit="10" d="    M544.092,449.012c0.013-4.692-3.224-8.851-7.776-9.99c-6.553-1.646-12.881,3.323-12.835,10.08c0.07,6.681,6.355,11.529,12.835,9.9    C540.868,457.863,544.105,453.704,544.092,449.012z"/>
	</g>
	<g id="POLYLINE_1087_">
		
			<path fill="none" stroke="#00B9D2" stroke-width="2.75" stroke-linecap="round" stroke-linejoin="round" stroke-miterlimit="10" d="    M544.092,492.527c0.013-4.692-3.224-8.851-7.776-9.99c-6.553-1.646-12.881,3.323-12.835,10.08c0.07,6.681,6.355,11.529,12.835,9.9    C540.868,501.378,544.105,497.22,544.092,492.527z"/>
	</g>
	<g id="POLYLINE_1086_">
		
			<polygon fill="none" stroke="#00B9D2" stroke-width="2.75" stroke-linecap="round" stroke-linejoin="round" stroke-miterlimit="10" points="    509.258,418.072 509.2,418.072 509.143,418.071 509.085,418.069 509.027,418.067 508.968,418.064 508.91,418.061 508.851,418.056     508.792,418.051 508.733,418.046 508.674,418.039 508.614,418.032 508.555,418.024 508.495,418.016 508.435,418.007     508.375,417.997 508.315,417.986 508.255,417.974 508.194,417.962 508.134,417.949 508.074,417.935 508.013,417.921     507.953,417.905 507.892,417.889 507.832,417.872 507.772,417.855 507.711,417.836 507.651,417.817 507.591,417.797     507.53,417.776 507.47,417.754 507.41,417.732 507.351,417.708 507.291,417.684 507.231,417.66 507.172,417.634 507.113,417.607     507.054,417.58 506.995,417.552 506.936,417.523 506.878,417.493 506.82,417.463 506.762,417.432 506.705,417.4 506.648,417.367     506.591,417.333 506.534,417.299 506.478,417.264 506.422,417.228 506.367,417.191 506.312,417.154 506.258,417.115     506.204,417.076 506.15,417.037 506.097,416.996 506.044,416.955 505.992,416.913 505.94,416.871 505.889,416.828     505.839,416.784 505.788,416.739 505.739,416.694 505.69,416.648 505.642,416.602 505.594,416.555 505.547,416.507 505.5,416.459     505.454,416.41 505.409,416.36 505.365,416.31 505.321,416.26 505.278,416.208 505.235,416.157 505.193,416.105 505.152,416.052     505.112,415.999 505.072,415.945 505.033,415.891 504.995,415.836 504.958,415.782 504.921,415.726 504.885,415.67     504.85,415.614 504.815,415.558 504.782,415.501 504.749,415.444 504.717,415.386 504.686,415.329 504.655,415.271     504.626,415.212 504.597,415.154 504.569,415.095 504.541,415.036 504.515,414.977 504.489,414.917 504.464,414.858     504.44,414.798 504.417,414.738 504.394,414.678 504.373,414.618 504.352,414.558 504.332,414.498 504.313,414.437     504.294,414.377 504.276,414.317 504.259,414.256 504.243,414.196 504.228,414.135 504.213,414.075 504.2,414.014     504.187,413.954 504.174,413.894 504.163,413.834 504.152,413.774 504.142,413.714 504.133,413.654 504.124,413.594     504.116,413.534 504.109,413.475 504.103,413.416 504.097,413.356 504.092,413.298 504.088,413.239 504.084,413.18     504.082,413.122 504.079,413.064 504.078,413.006 504.077,412.948 504.076,412.891 504.077,412.834 504.078,412.776     504.079,412.718 504.082,412.66 504.084,412.602 504.088,412.543 504.092,412.484 504.097,412.425 504.103,412.366     504.109,412.307 504.116,412.247 504.124,412.188 504.133,412.128 504.142,412.068 504.152,412.008 504.163,411.948     504.174,411.888 504.187,411.828 504.2,411.767 504.213,411.707 504.228,411.647 504.243,411.586 504.259,411.526     504.276,411.465 504.294,411.405 504.313,411.344 504.332,411.284 504.352,411.224 504.373,411.164 504.394,411.104     504.417,411.044 504.44,410.984 504.464,410.924 504.489,410.864 504.515,410.805 504.541,410.746 504.569,410.687     504.597,410.628 504.626,410.569 504.655,410.511 504.686,410.453 504.717,410.395 504.749,410.338 504.782,410.281     504.815,410.224 504.85,410.167 504.885,410.111 504.921,410.056 504.958,410 504.995,409.945 505.033,409.891 505.072,409.837     505.112,409.783 505.152,409.73 505.193,409.677 505.235,409.625 505.278,409.573 505.321,409.522 505.365,409.472     505.409,409.422 505.454,409.372 505.5,409.323 505.547,409.275 505.594,409.227 505.642,409.18 505.69,409.134 505.739,409.088     505.788,409.042 505.839,408.998 505.889,408.954 505.94,408.911 505.992,408.868 506.044,408.827 506.097,408.785     506.15,408.745 506.204,408.705 506.258,408.666 506.312,408.628 506.367,408.591 506.422,408.554 506.478,408.518     506.534,408.483 506.591,408.449 506.648,408.415 506.705,408.382 506.762,408.35 506.82,408.319 506.878,408.288     506.936,408.259 506.995,408.23 507.054,408.202 507.113,408.174 507.172,408.148 507.231,408.122 507.291,408.097     507.351,408.073 507.41,408.05 507.47,408.028 507.53,408.006 507.591,407.985 507.651,407.965 507.711,407.946 507.772,407.927     507.832,407.91 507.892,407.893 507.953,407.877 508.013,407.861 508.074,407.847 508.134,407.833 508.194,407.82     508.255,407.808 508.315,407.796 508.375,407.785 508.435,407.775 508.495,407.766 508.555,407.757 508.614,407.75     508.674,407.743 508.733,407.736 508.792,407.73 508.851,407.725 508.91,407.721 508.968,407.718 509.027,407.715     509.085,407.712 509.143,407.711 509.2,407.71 509.258,407.71 528.074,407.71 528.074,418.072   "/>
	</g>
	<g id="POLYLINE_1085_">
		
			<polygon fill="none" stroke="#00B9D2" stroke-width="2.75" stroke-linecap="round" stroke-linejoin="round" stroke-miterlimit="10" points="    558.315,418.072 558.373,418.072 558.43,418.071 558.488,418.069 558.547,418.067 558.605,418.064 558.663,418.061     558.722,418.056 558.781,418.051 558.84,418.046 558.899,418.039 558.959,418.032 559.019,418.024 559.078,418.016     559.138,418.007 559.198,417.997 559.258,417.986 559.318,417.974 559.379,417.962 559.439,417.949 559.499,417.935     559.56,417.921 559.62,417.905 559.681,417.889 559.741,417.872 559.802,417.855 559.862,417.836 559.922,417.817     559.983,417.797 560.043,417.776 560.103,417.754 560.163,417.732 560.223,417.708 560.282,417.684 560.342,417.66     560.401,417.634 560.461,417.607 560.52,417.58 560.578,417.552 560.637,417.523 560.695,417.493 560.753,417.463     560.811,417.432 560.869,417.4 560.926,417.367 560.982,417.333 561.039,417.299 561.095,417.264 561.151,417.228     561.206,417.191 561.261,417.154 561.316,417.115 561.37,417.076 561.423,417.037 561.476,416.996 561.529,416.955     561.581,416.913 561.633,416.871 561.684,416.828 561.735,416.784 561.785,416.739 561.834,416.694 561.883,416.648     561.932,416.602 561.979,416.555 562.026,416.507 562.073,416.459 562.119,416.41 562.164,416.36 562.208,416.31 562.252,416.26     562.296,416.208 562.338,416.157 562.38,416.105 562.421,416.052 562.461,415.999 562.501,415.945 562.54,415.891     562.578,415.836 562.616,415.782 562.652,415.726 562.688,415.67 562.723,415.614 562.758,415.558 562.791,415.501     562.824,415.444 562.856,415.386 562.888,415.329 562.918,415.271 562.948,415.212 562.977,415.154 563.005,415.095     563.032,415.036 563.058,414.977 563.084,414.917 563.109,414.858 563.133,414.798 563.156,414.738 563.179,414.678     563.201,414.618 563.221,414.558 563.241,414.498 563.261,414.437 563.279,414.377 563.297,414.317 563.314,414.256     563.33,414.196 563.345,414.135 563.36,414.075 563.374,414.014 563.387,413.954 563.399,413.894 563.41,413.834 563.421,413.774     563.431,413.714 563.44,413.654 563.449,413.594 563.457,413.534 563.464,413.475 563.47,413.416 563.476,413.356     563.481,413.298 563.485,413.239 563.489,413.18 563.492,413.122 563.494,413.064 563.496,413.006 563.497,412.948     563.497,412.891 563.497,412.834 563.496,412.776 563.494,412.718 563.492,412.66 563.489,412.602 563.485,412.543     563.481,412.484 563.476,412.425 563.47,412.366 563.464,412.307 563.457,412.247 563.449,412.188 563.44,412.128     563.431,412.068 563.421,412.008 563.41,411.948 563.399,411.888 563.387,411.828 563.374,411.767 563.36,411.707     563.345,411.647 563.33,411.586 563.314,411.526 563.297,411.465 563.279,411.405 563.261,411.344 563.241,411.284     563.221,411.224 563.201,411.164 563.179,411.104 563.156,411.044 563.133,410.984 563.109,410.924 563.084,410.864     563.058,410.805 563.032,410.746 563.005,410.687 562.977,410.628 562.948,410.569 562.918,410.511 562.888,410.453     562.856,410.395 562.824,410.338 562.791,410.281 562.758,410.224 562.723,410.167 562.688,410.111 562.652,410.056 562.616,410     562.578,409.945 562.54,409.891 562.501,409.837 562.461,409.783 562.421,409.73 562.38,409.677 562.338,409.625 562.296,409.573     562.252,409.522 562.208,409.472 562.164,409.422 562.119,409.372 562.073,409.323 562.026,409.275 561.979,409.227     561.932,409.18 561.883,409.134 561.834,409.088 561.785,409.042 561.735,408.998 561.684,408.954 561.633,408.911     561.581,408.868 561.529,408.827 561.476,408.785 561.423,408.745 561.37,408.705 561.316,408.666 561.261,408.628     561.206,408.591 561.151,408.554 561.095,408.518 561.039,408.483 560.982,408.449 560.926,408.415 560.869,408.382     560.811,408.35 560.753,408.319 560.695,408.288 560.637,408.259 560.578,408.23 560.52,408.202 560.461,408.174 560.401,408.148     560.342,408.122 560.282,408.097 560.223,408.073 560.163,408.05 560.103,408.028 560.043,408.006 559.983,407.985     559.922,407.965 559.862,407.946 559.802,407.927 559.741,407.91 559.681,407.893 559.62,407.877 559.56,407.861 559.499,407.847     559.439,407.833 559.379,407.82 559.318,407.808 559.258,407.796 559.198,407.785 559.138,407.775 559.078,407.766     559.019,407.757 558.959,407.75 558.899,407.743 558.84,407.736 558.781,407.73 558.722,407.725 558.663,407.721 558.605,407.718     558.547,407.715 558.488,407.712 558.43,407.711 558.373,407.71 558.315,407.71 539.499,407.71 539.499,418.072   "/>
	</g>
	<g id="POLYLINE_1084_">
		
			<polyline fill="none" stroke="#00B9D2" stroke-width="2.75" stroke-linecap="round" stroke-linejoin="round" stroke-miterlimit="10" points="    574.267,395.301 492.237,395.301 492.108,395.303 491.98,395.306 491.852,395.311 491.723,395.319 491.595,395.329     491.468,395.341 491.34,395.356 491.213,395.372 491.086,395.391 490.959,395.412 490.833,395.435 490.707,395.461     490.581,395.488 490.456,395.518 490.332,395.549 490.208,395.583 490.085,395.62 489.962,395.658 489.84,395.698 489.719,395.74     489.598,395.785 489.479,395.832 489.36,395.88 489.242,395.931 489.125,395.984 489.009,396.038 488.893,396.095     488.779,396.154 488.666,396.214 488.554,396.277 488.443,396.342 488.333,396.408 488.224,396.476 488.117,396.546     488.01,396.619 487.905,396.692 487.801,396.768 487.699,396.845 487.598,396.925 487.498,397.006 487.4,397.088 487.303,397.173     487.208,397.259 487.114,397.346 487.021,397.435 486.931,397.526 486.841,397.619 486.754,397.713 486.668,397.808     486.583,397.905 486.501,398.003 486.42,398.103 486.341,398.204 486.263,398.306 486.187,398.41 486.114,398.515     486.042,398.621 485.971,398.729 485.903,398.838 485.837,398.948 485.772,399.059 485.709,399.171 485.649,399.284     485.59,399.398 485.533,399.514 485.479,399.63 485.426,399.747 485.375,399.865 485.327,399.984 485.28,400.103 485.236,400.224     485.193,400.345 485.153,400.467 485.115,400.59 485.079,400.713 485.045,400.837 485.013,400.961 484.983,401.086     484.956,401.212 484.93,401.337 484.907,401.464 484.886,401.59 484.867,401.718 484.851,401.845 484.836,401.973 484.824,402.1     484.814,402.228 484.807,402.357 484.801,402.485 484.798,402.613 484.797,402.742 484.797,552.445 484.798,552.573     484.801,552.702 484.807,552.83 484.814,552.958 484.824,553.086 484.836,553.214 484.851,553.342 484.867,553.469     484.886,553.596 484.907,553.723 484.93,553.849 484.956,553.975 484.983,554.101 485.013,554.226 485.045,554.35     485.079,554.474 485.115,554.597 485.153,554.72 485.193,554.842 485.236,554.963 485.28,555.083 485.327,555.203     485.375,555.322 485.426,555.44 485.479,555.557 485.533,555.673 485.59,555.788 485.649,555.903 485.709,556.016     485.772,556.128 485.837,556.239 485.903,556.349 485.971,556.458 486.042,556.565 486.114,556.672 486.187,556.777     486.263,556.88 486.341,556.983 486.42,557.084 486.501,557.184 486.583,557.282 486.668,557.379 486.754,557.474     486.841,557.568 486.931,557.66 487.021,557.751 487.114,557.84 487.208,557.928 487.303,558.014 487.4,558.098 487.498,558.181     487.598,558.262 487.699,558.341 487.801,558.419 487.905,558.494 488.01,558.568 488.117,558.64 488.224,558.71 488.333,558.779     488.443,558.845 488.554,558.91 488.666,558.972 488.779,559.033 488.893,559.092 489.009,559.148 489.125,559.203     489.242,559.256 489.36,559.307 489.479,559.355 489.598,559.402 489.719,559.446 489.84,559.489 489.962,559.529     490.085,559.567 490.208,559.603 490.332,559.637 490.456,559.669 490.581,559.699 490.707,559.726 490.833,559.752     490.959,559.775 491.086,559.796 491.213,559.814 491.34,559.831 491.468,559.845 491.595,559.858 491.723,559.867     491.852,559.875 491.98,559.881 492.108,559.884 492.237,559.885 575.336,559.885   "/>
	</g>
	<g id="POLYLINE_1083_">
		
			<polygon fill="none" stroke="#00B9D2" stroke-width="2.75" stroke-linecap="round" stroke-linejoin="round" stroke-miterlimit="10" points="    207.528,462.32 207.586,462.319 207.643,462.318 207.701,462.315 207.759,462.312 207.817,462.307 207.875,462.302     207.932,462.295 207.99,462.288 208.047,462.28 208.104,462.27 208.161,462.26 208.218,462.248 208.275,462.236 208.331,462.222     208.387,462.208 208.443,462.193 208.499,462.176 208.554,462.159 208.609,462.141 208.664,462.122 208.718,462.102     208.772,462.081 208.826,462.059 208.879,462.036 208.932,462.012 208.984,461.987 209.036,461.962 209.088,461.935     209.139,461.908 209.19,461.88 209.24,461.851 209.289,461.821 209.339,461.79 209.387,461.758 209.435,461.726 209.482,461.692     209.529,461.658 209.576,461.623 209.621,461.587 209.666,461.551 209.711,461.514 209.754,461.475 209.797,461.437     209.84,461.397 209.881,461.357 209.922,461.316 209.963,461.274 210.002,461.232 210.041,461.189 210.079,461.145     210.116,461.101 210.153,461.056 210.189,461.01 210.224,460.964 210.258,460.917 210.291,460.87 210.324,460.822     210.355,460.773 210.386,460.724 210.416,460.674 210.445,460.624 210.473,460.574 210.501,460.523 210.527,460.471     210.553,460.419 210.578,460.367 210.601,460.314 210.624,460.26 210.646,460.207 210.667,460.153 210.687,460.098     210.706,460.044 210.725,459.989 210.742,459.933 210.758,459.878 210.773,459.822 210.788,459.766 210.801,459.709     210.814,459.653 210.825,459.596 210.836,459.539 210.845,459.482 210.853,459.424 210.861,459.367 210.867,459.309     210.873,459.252 210.877,459.194 210.881,459.136 210.883,459.078 210.885,459.02 210.885,458.962 210.885,444.511     210.886,444.453 210.887,444.395 210.89,444.337 210.893,444.279 210.898,444.222 210.903,444.164 210.91,444.106     210.917,444.049 210.926,443.991 210.935,443.934 210.946,443.877 210.957,443.82 210.97,443.764 210.983,443.707     210.997,443.651 211.013,443.595 211.029,443.54 211.046,443.484 211.064,443.429 211.084,443.375 211.104,443.32     211.125,443.266 211.147,443.213 211.169,443.159 211.193,443.106 211.218,443.054 211.244,443.002 211.27,442.951     211.297,442.899 211.326,442.849 211.355,442.799 211.385,442.749 211.416,442.7 211.447,442.651 211.48,442.603 211.513,442.556     211.547,442.509 211.582,442.463 211.618,442.417 211.655,442.372 211.692,442.328 211.73,442.284 211.769,442.241     211.808,442.199 211.848,442.157 211.889,442.116 211.931,442.076 211.974,442.036 212.017,441.998 212.06,441.96     212.105,441.922 212.15,441.886 212.195,441.85 212.242,441.815 212.288,441.781 212.336,441.747 212.384,441.715     212.432,441.683 212.481,441.652 212.531,441.622 212.581,441.593 212.632,441.565 212.683,441.538 212.734,441.511     212.786,441.486 212.839,441.461 212.892,441.437 212.945,441.414 212.999,441.392 213.053,441.371 213.107,441.351     213.162,441.332 213.217,441.314 213.272,441.297 213.328,441.28 213.384,441.265 213.44,441.251 213.496,441.237     213.553,441.225 213.609,441.213 213.667,441.203 213.724,441.194 213.781,441.185 213.839,441.178 213.896,441.171     213.954,441.166 214.012,441.161 214.069,441.158 214.127,441.155 214.185,441.154 214.243,441.153 227.043,441.153     227.101,441.154 227.159,441.155 227.217,441.158 227.275,441.161 227.333,441.166 227.39,441.171 227.448,441.178     227.505,441.185 227.563,441.194 227.62,441.203 227.677,441.213 227.734,441.225 227.79,441.237 227.847,441.251     227.903,441.265 227.959,441.28 228.014,441.297 228.07,441.314 228.125,441.332 228.18,441.351 228.234,441.371 228.288,441.392     228.342,441.414 228.395,441.437 228.448,441.461 228.5,441.486 228.552,441.511 228.604,441.538 228.655,441.565     228.705,441.593 228.756,441.622 228.805,441.652 228.854,441.683 228.903,441.715 228.951,441.747 228.998,441.781     229.045,441.815 229.091,441.85 229.137,441.886 229.182,441.922 229.226,441.96 229.27,441.998 229.313,442.036 229.355,442.076     229.397,442.116 229.438,442.157 229.478,442.199 229.518,442.241 229.557,442.284 229.595,442.328 229.632,442.372     229.669,442.417 229.704,442.463 229.739,442.509 229.773,442.556 229.807,442.603 229.839,442.651 229.871,442.7     229.902,442.749 229.932,442.799 229.961,442.849 229.989,442.899 230.016,442.951 230.043,443.002 230.069,443.054     230.093,443.106 230.117,443.159 230.14,443.213 230.162,443.266 230.183,443.32 230.203,443.375 230.222,443.429 230.24,443.484     230.258,443.54 230.274,443.595 230.289,443.651 230.303,443.707 230.317,443.764 230.329,443.82 230.341,443.877     230.351,443.934 230.361,443.991 230.369,444.049 230.377,444.106 230.383,444.164 230.389,444.222 230.393,444.279     230.397,444.337 230.399,444.395 230.401,444.453 230.401,444.511 230.401,458.962 230.402,459.02 230.403,459.078     230.406,459.136 230.409,459.194 230.414,459.252 230.419,459.309 230.426,459.367 230.433,459.424 230.442,459.482     230.451,459.539 230.461,459.596 230.473,459.653 230.485,459.709 230.499,459.766 230.513,459.822 230.528,459.878     230.545,459.933 230.562,459.989 230.58,460.044 230.599,460.098 230.619,460.153 230.64,460.207 230.662,460.26 230.685,460.314     230.709,460.367 230.734,460.419 230.759,460.471 230.786,460.523 230.813,460.574 230.841,460.624 230.87,460.674 230.9,460.724     230.931,460.773 230.963,460.822 230.995,460.87 231.029,460.917 231.063,460.964 231.098,461.01 231.134,461.056 231.17,461.101     231.207,461.145 231.246,461.189 231.284,461.232 231.324,461.274 231.364,461.316 231.405,461.357 231.447,461.397     231.489,461.437 231.532,461.475 231.576,461.514 231.62,461.551 231.665,461.587 231.711,461.623 231.757,461.658     231.804,461.692 231.851,461.726 231.899,461.758 231.948,461.79 231.997,461.821 232.047,461.851 232.097,461.88     232.147,461.908 232.198,461.935 232.25,461.962 232.302,461.987 232.354,462.012 232.407,462.036 232.461,462.059     232.514,462.081 232.568,462.102 232.623,462.122 232.677,462.141 232.732,462.159 232.788,462.176 232.843,462.193     232.899,462.208 232.955,462.222 233.012,462.236 233.068,462.248 233.125,462.26 233.182,462.27 233.239,462.28 233.297,462.288     233.354,462.295 233.412,462.302 233.469,462.307 233.527,462.312 233.585,462.315 233.643,462.318 233.701,462.319     233.759,462.32 248.21,462.32 248.268,462.32 248.326,462.322 248.384,462.324 248.442,462.328 248.5,462.332 248.557,462.338     248.615,462.344 248.672,462.352 248.73,462.36 248.787,462.37 248.844,462.38 248.901,462.392 248.957,462.404 249.014,462.418     249.07,462.432 249.126,462.447 249.181,462.464 249.237,462.481 249.292,462.499 249.346,462.518 249.401,462.538     249.455,462.559 249.508,462.581 249.562,462.604 249.615,462.628 249.667,462.652 249.719,462.678 249.771,462.705     249.822,462.732 249.872,462.76 249.922,462.789 249.972,462.819 250.021,462.85 250.07,462.882 250.118,462.914 250.165,462.948     250.212,462.982 250.258,463.017 250.304,463.053 250.349,463.089 250.393,463.126 250.437,463.164 250.48,463.203     250.522,463.243 250.564,463.283 250.605,463.324 250.645,463.366 250.685,463.408 250.723,463.451 250.762,463.495     250.799,463.539 250.835,463.584 250.871,463.63 250.906,463.676 250.94,463.723 250.974,463.77 251.006,463.818 251.038,463.867     251.069,463.916 251.099,463.966 251.128,464.016 251.156,464.066 251.183,464.117 251.21,464.169 251.235,464.221     251.26,464.273 251.284,464.326 251.307,464.379 251.329,464.433 251.35,464.487 251.37,464.541 251.389,464.596 251.407,464.651     251.424,464.707 251.441,464.762 251.456,464.818 251.47,464.874 251.484,464.931 251.496,464.987 251.508,465.044     251.518,465.101 251.527,465.158 251.536,465.216 251.543,465.273 251.55,465.331 251.555,465.388 251.56,465.446     251.563,465.504 251.566,465.562 251.567,465.62 251.568,465.678 251.568,478.478 251.567,478.536 251.566,478.594     251.563,478.652 251.56,478.709 251.555,478.767 251.55,478.825 251.543,478.883 251.536,478.94 251.527,478.997 251.518,479.055     251.508,479.112 251.496,479.168 251.484,479.225 251.47,479.281 251.456,479.337 251.441,479.393 251.424,479.449     251.407,479.504 251.389,479.559 251.37,479.614 251.35,479.668 251.329,479.723 251.307,479.776 251.284,479.829 251.26,479.882     251.235,479.935 251.21,479.987 251.183,480.038 251.156,480.089 251.128,480.14 251.099,480.19 251.069,480.24 251.038,480.289     251.006,480.337 250.974,480.385 250.94,480.433 250.906,480.479 250.871,480.526 250.835,480.571 250.799,480.616     250.762,480.661 250.723,480.704 250.685,480.747 250.645,480.79 250.605,480.832 250.564,480.873 250.522,480.913     250.48,480.952 250.437,480.991 250.393,481.029 250.349,481.066 250.304,481.103 250.258,481.139 250.212,481.174     250.165,481.208 250.118,481.241 250.07,481.274 250.021,481.305 249.972,481.336 249.922,481.366 249.872,481.395     249.822,481.424 249.771,481.451 249.719,481.477 249.667,481.503 249.615,481.528 249.562,481.552 249.508,481.574     249.455,481.596 249.401,481.617 249.346,481.637 249.292,481.657 249.237,481.675 249.181,481.692 249.126,481.708     249.07,481.724 249.014,481.738 248.957,481.751 248.901,481.764 248.844,481.775 248.787,481.786 248.73,481.795     248.672,481.804 248.615,481.811 248.557,481.818 248.5,481.823 248.442,481.828 248.384,481.831 248.326,481.834     248.268,481.835 248.21,481.836 233.759,481.836 233.701,481.836 233.643,481.838 233.585,481.84 233.527,481.844     233.469,481.848 233.412,481.854 233.354,481.86 233.297,481.868 233.239,481.876 233.182,481.885 233.125,481.896     233.068,481.907 233.012,481.92 232.955,481.933 232.899,481.948 232.843,481.963 232.788,481.979 232.732,481.996     232.677,482.015 232.623,482.034 232.568,482.054 232.514,482.075 232.461,482.097 232.407,482.12 232.354,482.143     232.302,482.168 232.25,482.194 232.198,482.22 232.147,482.248 232.097,482.276 232.047,482.305 231.997,482.335     231.948,482.366 231.899,482.397 231.851,482.43 231.804,482.463 231.757,482.497 231.711,482.532 231.665,482.568     231.62,482.605 231.576,482.642 231.532,482.68 231.489,482.719 231.447,482.758 231.405,482.799 231.364,482.84 231.324,482.881     231.284,482.924 231.246,482.967 231.207,483.01 231.17,483.055 231.134,483.1 231.098,483.146 231.063,483.192 231.029,483.239     230.995,483.286 230.963,483.334 230.931,483.383 230.9,483.432 230.87,483.481 230.841,483.531 230.813,483.582 230.786,483.633     230.759,483.685 230.734,483.737 230.709,483.789 230.685,483.842 230.662,483.895 230.64,483.949 230.619,484.003     230.599,484.057 230.58,484.112 230.562,484.167 230.545,484.222 230.528,484.278 230.513,484.334 230.499,484.39     230.485,484.446 230.473,484.503 230.461,484.56 230.451,484.617 230.442,484.674 230.433,484.731 230.426,484.789     230.419,484.846 230.414,484.904 230.409,484.962 230.406,485.02 230.403,485.078 230.402,485.135 230.401,485.193     230.401,499.645 230.401,499.703 230.399,499.76 230.397,499.818 230.393,499.876 230.389,499.934 230.383,499.992     230.377,500.049 230.369,500.107 230.361,500.164 230.351,500.221 230.341,500.278 230.329,500.335 230.317,500.392     230.303,500.448 230.289,500.504 230.274,500.56 230.258,500.616 230.24,500.671 230.222,500.726 230.203,500.781     230.183,500.835 230.162,500.889 230.14,500.943 230.117,500.996 230.093,501.049 230.069,501.102 230.043,501.154     230.016,501.205 229.989,501.256 229.961,501.307 229.932,501.357 229.902,501.406 229.871,501.456 229.839,501.504     229.807,501.552 229.773,501.599 229.739,501.646 229.704,501.693 229.669,501.738 229.632,501.783 229.595,501.828     229.557,501.871 229.518,501.914 229.478,501.957 229.438,501.998 229.397,502.039 229.355,502.08 229.313,502.119     229.27,502.158 229.226,502.196 229.182,502.233 229.137,502.27 229.091,502.306 229.045,502.341 228.998,502.375     228.951,502.408 228.903,502.441 228.854,502.472 228.805,502.503 228.756,502.533 228.705,502.562 228.655,502.59     228.604,502.618 228.552,502.644 228.5,502.67 228.448,502.695 228.395,502.718 228.342,502.741 228.288,502.763 228.234,502.784     228.18,502.804 228.125,502.823 228.07,502.842 228.014,502.859 227.959,502.875 227.903,502.891 227.847,502.905 227.79,502.918     227.734,502.931 227.677,502.942 227.62,502.953 227.563,502.962 227.505,502.97 227.448,502.978 227.39,502.984 227.333,502.99     227.275,502.994 227.217,502.998 227.159,503 227.101,503.002 227.043,503.002 214.243,503.002 214.185,503.002 214.127,503     214.069,502.998 214.012,502.994 213.954,502.99 213.896,502.984 213.839,502.978 213.781,502.97 213.724,502.962     213.667,502.953 213.609,502.942 213.553,502.931 213.496,502.918 213.44,502.905 213.384,502.891 213.328,502.875     213.272,502.859 213.217,502.842 213.162,502.823 213.107,502.804 213.053,502.784 212.999,502.763 212.945,502.741     212.892,502.718 212.839,502.695 212.786,502.67 212.734,502.644 212.683,502.618 212.632,502.59 212.581,502.562     212.531,502.533 212.481,502.503 212.432,502.472 212.384,502.441 212.336,502.408 212.288,502.375 212.242,502.341     212.195,502.306 212.15,502.27 212.105,502.233 212.06,502.196 212.017,502.158 211.974,502.119 211.931,502.08 211.889,502.039     211.848,501.998 211.808,501.957 211.769,501.914 211.73,501.871 211.692,501.828 211.655,501.783 211.618,501.738     211.582,501.693 211.547,501.646 211.513,501.599 211.48,501.552 211.447,501.504 211.416,501.456 211.385,501.406     211.355,501.357 211.326,501.307 211.297,501.256 211.27,501.205 211.244,501.154 211.218,501.102 211.193,501.049     211.169,500.996 211.147,500.943 211.125,500.889 211.104,500.835 211.084,500.781 211.064,500.726 211.046,500.671     211.029,500.616 211.013,500.56 210.997,500.504 210.983,500.448 210.97,500.392 210.957,500.335 210.946,500.278     210.935,500.221 210.926,500.164 210.917,500.107 210.91,500.049 210.903,499.992 210.898,499.934 210.893,499.876     210.89,499.818 210.887,499.76 210.886,499.703 210.885,499.645 210.885,485.193 210.885,485.135 210.883,485.078 210.881,485.02     210.877,484.962 210.873,484.904 210.867,484.846 210.861,484.789 210.853,484.731 210.845,484.674 210.836,484.617     210.825,484.56 210.814,484.503 210.801,484.446 210.788,484.39 210.773,484.334 210.758,484.278 210.742,484.222     210.725,484.167 210.706,484.112 210.687,484.057 210.667,484.003 210.646,483.949 210.624,483.895 210.601,483.842     210.578,483.789 210.553,483.737 210.527,483.685 210.501,483.633 210.473,483.582 210.445,483.531 210.416,483.481     210.386,483.432 210.355,483.383 210.324,483.334 210.291,483.286 210.258,483.239 210.224,483.192 210.189,483.146     210.153,483.1 210.116,483.055 210.079,483.01 210.041,482.967 210.002,482.924 209.963,482.881 209.922,482.84 209.881,482.799     209.84,482.758 209.797,482.719 209.754,482.68 209.711,482.642 209.666,482.605 209.621,482.568 209.576,482.532     209.529,482.497 209.482,482.463 209.435,482.43 209.387,482.397 209.339,482.366 209.289,482.335 209.24,482.305 209.19,482.276     209.139,482.248 209.088,482.22 209.036,482.194 208.984,482.168 208.932,482.143 208.879,482.12 208.826,482.097     208.772,482.075 208.718,482.054 208.664,482.034 208.609,482.015 208.554,481.996 208.499,481.979 208.443,481.963     208.387,481.948 208.331,481.933 208.275,481.92 208.218,481.907 208.161,481.896 208.104,481.885 208.047,481.876     207.99,481.868 207.932,481.86 207.875,481.854 207.817,481.848 207.759,481.844 207.701,481.84 207.643,481.838 207.586,481.836     207.528,481.836 193.076,481.836 193.018,481.835 192.961,481.834 192.903,481.831 192.845,481.828 192.787,481.823     192.729,481.818 192.672,481.811 192.614,481.804 192.557,481.795 192.5,481.786 192.443,481.775 192.386,481.764     192.329,481.751 192.273,481.738 192.217,481.724 192.161,481.708 192.105,481.692 192.05,481.675 191.995,481.657     191.94,481.637 191.886,481.617 191.832,481.596 191.778,481.574 191.725,481.552 191.672,481.528 191.62,481.503     191.568,481.477 191.516,481.451 191.465,481.424 191.414,481.395 191.364,481.366 191.315,481.336 191.265,481.305     191.217,481.274 191.169,481.241 191.122,481.208 191.075,481.174 191.028,481.139 190.983,481.103 190.938,481.066     190.893,481.029 190.85,480.991 190.807,480.952 190.764,480.913 190.723,480.873 190.682,480.832 190.641,480.79     190.602,480.747 190.563,480.704 190.525,480.661 190.488,480.616 190.451,480.571 190.415,480.526 190.38,480.479     190.346,480.433 190.313,480.385 190.28,480.337 190.249,480.289 190.218,480.24 190.188,480.19 190.159,480.14 190.131,480.089     190.103,480.038 190.077,479.987 190.051,479.935 190.026,479.882 190.003,479.829 189.98,479.776 189.958,479.723     189.937,479.668 189.917,479.614 189.898,479.559 189.879,479.504 189.862,479.449 189.846,479.393 189.831,479.337     189.816,479.281 189.803,479.225 189.79,479.168 189.779,479.112 189.768,479.055 189.759,478.997 189.751,478.94     189.743,478.883 189.737,478.825 189.731,478.767 189.727,478.709 189.723,478.652 189.721,478.594 189.719,478.536     189.719,478.478 189.719,465.678 189.719,465.62 189.721,465.562 189.723,465.504 189.727,465.446 189.731,465.388     189.737,465.331 189.743,465.273 189.751,465.216 189.759,465.158 189.768,465.101 189.779,465.044 189.79,464.987     189.803,464.931 189.816,464.874 189.831,464.818 189.846,464.762 189.862,464.707 189.879,464.651 189.898,464.596     189.917,464.541 189.937,464.487 189.958,464.433 189.98,464.379 190.003,464.326 190.026,464.273 190.051,464.221     190.077,464.169 190.103,464.117 190.131,464.066 190.159,464.016 190.188,463.966 190.218,463.916 190.249,463.867     190.28,463.818 190.313,463.77 190.346,463.723 190.38,463.676 190.415,463.63 190.451,463.584 190.488,463.539 190.525,463.495     190.563,463.451 190.602,463.408 190.641,463.366 190.682,463.324 190.723,463.283 190.764,463.243 190.807,463.203     190.85,463.164 190.893,463.126 190.938,463.089 190.983,463.053 191.028,463.017 191.075,462.982 191.122,462.948     191.169,462.914 191.217,462.882 191.265,462.85 191.315,462.819 191.364,462.789 191.414,462.76 191.465,462.732     191.516,462.705 191.568,462.678 191.62,462.652 191.672,462.628 191.725,462.604 191.778,462.581 191.832,462.559     191.886,462.538 191.94,462.518 191.995,462.499 192.05,462.481 192.105,462.464 192.161,462.447 192.217,462.432     192.273,462.418 192.329,462.404 192.386,462.392 192.443,462.38 192.5,462.37 192.557,462.36 192.614,462.352 192.672,462.344     192.729,462.338 192.787,462.332 192.845,462.328 192.903,462.324 192.961,462.322 193.018,462.32 193.076,462.32   "/>
	</g>
	<g id="POLYLINE_1082_">
		
			<polyline fill="none" stroke="#00B9D2" stroke-width="2.75" stroke-linecap="round" stroke-linejoin="round" stroke-miterlimit="10" points="    175.627,395.301 257.657,395.301 257.786,395.303 257.914,395.306 258.042,395.311 258.17,395.319 258.299,395.329     258.426,395.341 258.554,395.356 258.681,395.372 258.808,395.391 258.935,395.412 259.061,395.435 259.187,395.461     259.313,395.488 259.438,395.518 259.562,395.549 259.686,395.583 259.809,395.62 259.932,395.658 260.054,395.698     260.175,395.74 260.296,395.785 260.415,395.832 260.534,395.88 260.652,395.931 260.769,395.984 260.885,396.038     261.001,396.095 261.115,396.154 261.228,396.214 261.34,396.277 261.451,396.342 261.561,396.408 261.67,396.476     261.777,396.546 261.884,396.619 261.989,396.692 262.093,396.768 262.195,396.845 262.296,396.925 262.396,397.006     262.494,397.088 262.591,397.173 262.686,397.259 262.78,397.346 262.873,397.435 262.963,397.526 263.053,397.619     263.14,397.713 263.226,397.808 263.311,397.905 263.393,398.003 263.474,398.103 263.553,398.204 263.631,398.306     263.707,398.41 263.78,398.515 263.852,398.621 263.923,398.729 263.991,398.838 264.057,398.948 264.122,399.059     264.185,399.171 264.245,399.284 264.304,399.398 264.361,399.514 264.415,399.63 264.468,399.747 264.519,399.865     264.567,399.984 264.614,400.103 264.658,400.224 264.701,400.345 264.741,400.467 264.779,400.59 264.815,400.713     264.849,400.837 264.881,400.961 264.911,401.086 264.938,401.212 264.964,401.337 264.987,401.464 265.008,401.59     265.027,401.718 265.043,401.845 265.058,401.973 265.07,402.1 265.08,402.228 265.087,402.357 265.093,402.485 265.096,402.613     265.097,402.742 265.097,552.445 265.096,552.573 265.093,552.702 265.087,552.83 265.08,552.958 265.07,553.086 265.058,553.214     265.043,553.342 265.027,553.469 265.008,553.596 264.987,553.723 264.964,553.849 264.938,553.975 264.911,554.101     264.881,554.226 264.849,554.35 264.815,554.474 264.779,554.597 264.741,554.72 264.701,554.842 264.658,554.963     264.614,555.083 264.567,555.203 264.519,555.322 264.468,555.44 264.415,555.557 264.361,555.673 264.304,555.788     264.245,555.903 264.185,556.016 264.122,556.128 264.057,556.239 263.991,556.349 263.923,556.458 263.852,556.565     263.78,556.672 263.707,556.777 263.631,556.88 263.553,556.983 263.474,557.084 263.393,557.184 263.311,557.282     263.226,557.379 263.14,557.474 263.053,557.568 262.963,557.66 262.873,557.751 262.78,557.84 262.686,557.928 262.591,558.014     262.494,558.098 262.396,558.181 262.296,558.262 262.195,558.341 262.093,558.419 261.989,558.494 261.884,558.568     261.777,558.64 261.67,558.71 261.561,558.779 261.451,558.845 261.34,558.91 261.228,558.972 261.115,559.033 261.001,559.092     260.885,559.148 260.769,559.203 260.652,559.256 260.534,559.307 260.415,559.355 260.296,559.402 260.175,559.446     260.054,559.489 259.932,559.529 259.809,559.567 259.686,559.603 259.562,559.637 259.438,559.669 259.313,559.699     259.187,559.726 259.061,559.752 258.935,559.775 258.808,559.796 258.681,559.814 258.554,559.831 258.426,559.845     258.299,559.858 258.17,559.867 258.042,559.875 257.914,559.881 257.786,559.884 257.657,559.885 174.558,559.885   "/>
	</g>
	<g id="POLYLINE_1081_">
		
			<rect x="207.281" y="407.71" fill="none" stroke="#00B9D2" stroke-width="2.75" stroke-linecap="round" stroke-linejoin="round" stroke-miterlimit="10" width="26.725" height="10.363"/>
	</g>
	<g id="POLYLINE_1080_">
		
			<polyline fill="none" stroke="#00B9D2" stroke-width="2.75" stroke-linecap="round" stroke-linejoin="round" stroke-miterlimit="10" points="    278.276,386.16 278.276,553.657 278.277,553.764 278.28,553.872 278.284,553.979 278.291,554.086 278.299,554.194     278.309,554.301 278.322,554.408 278.335,554.514 278.351,554.621 278.369,554.727 278.388,554.832 278.409,554.938     278.432,555.043 278.457,555.147 278.484,555.252 278.512,555.355 278.542,555.458 278.574,555.561 278.608,555.663     278.644,555.765 278.681,555.865 278.72,555.966 278.761,556.065 278.803,556.164 278.847,556.262 278.893,556.359     278.94,556.456 278.99,556.551 279.04,556.646 279.093,556.74 279.147,556.833 279.202,556.925 279.26,557.016 279.318,557.106     279.379,557.195 279.44,557.283 279.504,557.37 279.569,557.456 279.635,557.54 279.703,557.624 279.772,557.706 279.842,557.787     279.914,557.867 279.988,557.945 280.062,558.023 280.139,558.099 280.216,558.174 280.294,558.247 280.374,558.319     280.455,558.389 280.538,558.459 280.621,558.526 280.706,558.593 280.792,558.658 280.878,558.721 280.966,558.783     281.055,558.843 281.145,558.902 281.236,558.959 281.328,559.015 281.421,559.069 281.515,559.121 281.61,559.172     281.706,559.221 281.802,559.268 281.899,559.314 281.997,559.358 282.096,559.401 282.196,559.441 282.296,559.48     282.397,559.518 282.498,559.553 282.6,559.587 282.703,559.619 282.806,559.649 282.91,559.678 283.014,559.704 283.119,559.729     283.224,559.752 283.329,559.773 283.435,559.793 283.541,559.81 283.647,559.826 283.754,559.84 283.861,559.852     283.968,559.862 284.075,559.87 284.182,559.877 284.29,559.882 284.397,559.884 284.505,559.885 465.389,559.885     465.497,559.884 465.604,559.882 465.712,559.877 465.819,559.87 465.926,559.862 466.033,559.852 466.14,559.84 466.247,559.826     466.353,559.81 466.459,559.793 466.565,559.773 466.67,559.752 466.775,559.729 466.88,559.704 466.984,559.678 467.088,559.649     467.191,559.619 467.294,559.587 467.396,559.553 467.497,559.518 467.598,559.48 467.698,559.441 467.798,559.401     467.897,559.358 467.995,559.314 468.092,559.268 468.188,559.221 468.284,559.172 468.379,559.121 468.473,559.069     468.566,559.015 468.658,558.959 468.749,558.902 468.839,558.843 468.928,558.783 469.016,558.721 469.102,558.658     469.188,558.593 469.273,558.526 469.356,558.459 469.439,558.389 469.52,558.319 469.6,558.247 469.678,558.174 469.755,558.099     469.831,558.023 469.906,557.945 469.98,557.867 470.051,557.787 470.122,557.706 470.191,557.624 470.259,557.54     470.325,557.456 470.39,557.37 470.454,557.283 470.515,557.195 470.576,557.106 470.634,557.016 470.692,556.925     470.747,556.833 470.801,556.74 470.854,556.646 470.904,556.551 470.954,556.456 471.001,556.359 471.047,556.262     471.091,556.164 471.133,556.065 471.174,555.966 471.213,555.865 471.25,555.765 471.286,555.663 471.32,555.561     471.352,555.458 471.382,555.355 471.41,555.252 471.437,555.147 471.462,555.043 471.485,554.938 471.506,554.832     471.525,554.727 471.543,554.621 471.559,554.514 471.572,554.408 471.585,554.301 471.595,554.194 471.603,554.086     471.61,553.979 471.614,553.872 471.617,553.764 471.618,553.657 471.618,386.16   "/>
	</g>
	<g id="POLYLINE_1079_">
		
			<rect x="285.667" y="397.465" fill="none" stroke="#00B9D2" stroke-width="2.75" stroke-linecap="round" stroke-linejoin="round" stroke-miterlimit="10" width="178.56" height="133.92"/>
	</g>
	<g id="POLYLINE_1078_">
		
			<polygon fill="none" stroke="#00B9D2" stroke-width="2.75" stroke-linecap="round" stroke-linejoin="round" stroke-miterlimit="10" points="    271.406,345.345 271.407,345.456 271.41,345.566 271.415,345.676 271.421,345.787 271.43,345.897 271.44,346.007 271.453,346.116     271.467,346.226 271.483,346.335 271.501,346.444 271.521,346.553 271.543,346.661 271.566,346.769 271.592,346.876     271.619,346.983 271.648,347.09 271.679,347.196 271.712,347.301 271.747,347.406 271.783,347.51 271.822,347.614     271.862,347.717 271.904,347.819 271.947,347.92 271.992,348.021 272.039,348.121 272.088,348.22 272.139,348.318     272.191,348.415 272.245,348.512 272.3,348.607 272.357,348.702 272.416,348.795 272.476,348.888 272.538,348.979     272.602,349.069 272.667,349.159 272.733,349.247 272.802,349.334 272.871,349.419 272.942,349.504 273.015,349.587     273.089,349.669 273.164,349.75 273.241,349.829 273.319,349.907 273.398,349.984 273.479,350.059 273.561,350.133     273.644,350.206 273.729,350.277 273.814,350.347 273.901,350.415 273.989,350.481 274.079,350.546 274.169,350.61     274.26,350.672 274.353,350.732 274.446,350.791 274.541,350.848 274.636,350.903 274.733,350.957 274.83,351.009 274.928,351.06     275.027,351.109 275.127,351.156 275.228,351.201 275.329,351.245 275.432,351.286 275.534,351.326 275.638,351.365     275.742,351.401 275.847,351.436 275.953,351.469 276.058,351.5 276.165,351.529 276.272,351.556 276.379,351.582     276.487,351.605 276.595,351.627 276.704,351.647 276.813,351.665 276.922,351.681 277.032,351.695 277.141,351.708     277.251,351.718 277.361,351.727 277.472,351.734 277.582,351.738 277.692,351.741 277.803,351.742 472.091,351.742     472.202,351.741 472.312,351.738 472.422,351.734 472.533,351.727 472.643,351.718 472.753,351.708 472.862,351.695     472.972,351.681 473.081,351.665 473.19,351.647 473.298,351.627 473.407,351.605 473.515,351.582 473.622,351.556     473.729,351.529 473.836,351.5 473.941,351.469 474.047,351.436 474.152,351.401 474.256,351.365 474.36,351.326 474.462,351.286     474.565,351.245 474.666,351.201 474.767,351.156 474.867,351.109 474.966,351.06 475.064,351.009 475.161,350.957     475.258,350.903 475.353,350.848 475.448,350.791 475.541,350.732 475.634,350.672 475.725,350.61 475.815,350.546     475.905,350.481 475.993,350.415 476.079,350.347 476.165,350.277 476.25,350.206 476.333,350.133 476.415,350.059     476.496,349.984 476.575,349.907 476.653,349.829 476.73,349.75 476.805,349.669 476.879,349.587 476.952,349.504     477.023,349.419 477.092,349.334 477.16,349.247 477.227,349.159 477.292,349.069 477.356,348.979 477.418,348.888     477.478,348.795 477.537,348.702 477.594,348.607 477.649,348.512 477.703,348.415 477.755,348.318 477.806,348.22     477.854,348.121 477.902,348.021 477.947,347.92 477.99,347.819 478.032,347.717 478.072,347.614 478.111,347.51 478.147,347.406     478.182,347.301 478.215,347.196 478.246,347.09 478.275,346.983 478.302,346.876 478.328,346.769 478.351,346.661     478.373,346.553 478.393,346.444 478.411,346.335 478.427,346.226 478.441,346.116 478.454,346.007 478.464,345.897     478.473,345.787 478.479,345.676 478.484,345.566 478.487,345.456 478.488,345.345 478.488,191.024 478.487,190.914     478.484,190.803 478.479,190.693 478.473,190.583 478.464,190.473 478.454,190.363 478.441,190.253 478.427,190.144     478.411,190.034 478.393,189.925 478.373,189.817 478.351,189.709 478.328,189.601 478.302,189.493 478.275,189.386     478.246,189.28 478.215,189.174 478.182,189.068 478.147,188.964 478.111,188.859 478.072,188.756 478.032,188.653     477.99,188.551 477.947,188.449 477.902,188.349 477.854,188.249 477.806,188.15 477.755,188.051 477.703,187.954     477.649,187.858 477.594,187.762 477.537,187.668 477.478,187.574 477.418,187.482 477.356,187.39 477.292,187.3 477.227,187.211     477.16,187.123 477.092,187.036 477.023,186.95 476.952,186.866 476.879,186.782 476.805,186.7 476.73,186.62 476.653,186.54     476.575,186.462 476.496,186.385 476.415,186.31 476.333,186.236 476.25,186.164 476.165,186.093 476.079,186.023     475.993,185.955 475.905,185.888 475.815,185.823 475.725,185.76 475.634,185.698 475.541,185.637 475.448,185.579     475.353,185.522 475.258,185.466 475.161,185.412 475.064,185.36 474.966,185.31 474.867,185.261 474.767,185.214     474.666,185.169 474.565,185.125 474.462,185.083 474.36,185.043 474.256,185.005 474.152,184.968 474.047,184.934     473.941,184.901 473.836,184.87 473.729,184.841 473.622,184.813 473.515,184.788 473.407,184.764 473.298,184.742     473.19,184.722 473.081,184.704 472.972,184.688 472.862,184.674 472.753,184.662 472.643,184.651 472.533,184.643     472.422,184.636 472.312,184.631 472.202,184.628 472.091,184.627 277.803,184.627 277.692,184.628 277.582,184.631     277.472,184.636 277.361,184.643 277.251,184.651 277.141,184.662 277.032,184.674 276.922,184.688 276.813,184.704     276.704,184.722 276.595,184.742 276.487,184.764 276.379,184.788 276.272,184.813 276.165,184.841 276.058,184.87     275.953,184.901 275.847,184.934 275.742,184.968 275.638,185.005 275.534,185.043 275.432,185.083 275.329,185.125     275.228,185.169 275.127,185.214 275.027,185.261 274.928,185.31 274.83,185.36 274.733,185.412 274.636,185.466 274.541,185.522     274.446,185.579 274.353,185.637 274.26,185.698 274.169,185.76 274.079,185.823 273.989,185.888 273.901,185.955     273.814,186.023 273.729,186.093 273.644,186.164 273.561,186.236 273.479,186.31 273.398,186.385 273.319,186.462     273.241,186.54 273.164,186.62 273.089,186.7 273.015,186.782 272.942,186.866 272.871,186.95 272.802,187.036 272.733,187.123     272.667,187.211 272.602,187.3 272.538,187.39 272.476,187.482 272.416,187.574 272.357,187.668 272.3,187.762 272.245,187.858     272.191,187.954 272.139,188.051 272.088,188.15 272.039,188.249 271.992,188.349 271.947,188.449 271.904,188.551     271.862,188.653 271.822,188.756 271.783,188.859 271.747,188.964 271.712,189.068 271.679,189.174 271.648,189.28     271.619,189.386 271.592,189.493 271.566,189.601 271.543,189.709 271.521,189.817 271.501,189.925 271.483,190.034     271.467,190.144 271.453,190.253 271.44,190.363 271.43,190.473 271.421,190.583 271.415,190.693 271.41,190.803 271.407,190.914     271.406,191.024   "/>
	</g>
	<g id="POLYLINE_1077_">
		
			<rect x="495.571" y="171.556" fill="none" stroke="#00B9D2" stroke-width="2.75" stroke-linecap="round" stroke-linejoin="round" stroke-miterlimit="10" width="12.259" height="11.155"/>
	</g>
	<g id="POLYLINE_1076_">
		
			<rect x="242.064" y="171.556" fill="none" stroke="#00B9D2" stroke-width="2.75" stroke-linecap="round" stroke-linejoin="round" stroke-miterlimit="10" width="12.259" height="11.155"/>
	</g>
	<g id="POLYLINE_1075_">
		
			<rect x="374.947" y="361.699" fill="none" stroke="#00B9D2" stroke-width="2.75" stroke-linecap="round" stroke-linejoin="round" stroke-miterlimit="10" width="94.016" height="25.525"/>
	</g>
	<g id="POLYLINE_1074_">
		
			<line fill="none" stroke="#00B9D2" stroke-width="2.75" stroke-linecap="round" stroke-linejoin="round" stroke-miterlimit="10" x1="427.979" y1="361.699" x2="427.979" y2="387.225"/>
	</g>
	<g id="POLYLINE_1073_">
		
			<line fill="none" stroke="#00B9D2" stroke-width="2.75" stroke-linecap="round" stroke-linejoin="round" stroke-miterlimit="10" x1="453.631" y1="361.699" x2="453.631" y2="387.225"/>
	</g>
	<g id="POLYLINE_1072_">
		
			<rect x="280.931" y="361.699" fill="none" stroke="#00B9D2" stroke-width="2.75" stroke-linecap="round" stroke-linejoin="round" stroke-miterlimit="10" width="94.016" height="25.525"/>
	</g>
	<g id="POLYLINE_1071_">
		
			<line fill="none" stroke="#00B9D2" stroke-width="2.75" stroke-linecap="round" stroke-linejoin="round" stroke-miterlimit="10" x1="321.915" y1="361.699" x2="321.915" y2="387.225"/>
	</g>
	<g id="POLYLINE_1070_">
		
			<line fill="none" stroke="#00B9D2" stroke-width="2.75" stroke-linecap="round" stroke-linejoin="round" stroke-miterlimit="10" x1="296.263" y1="361.699" x2="296.263" y2="387.225"/>
	</g>
	<g id="POLYLINE_1069_">
		
			<polyline fill="none" stroke="#00B9D2" stroke-width="2.75" stroke-linecap="round" stroke-linejoin="round" stroke-miterlimit="10" points="    468.963,386.16 523.608,385.986 534.354,385.815 538.66,385.701 542.353,385.567 545.508,385.409 546.906,385.321     548.198,385.227 549.392,385.127 550.498,385.02 551.524,384.906 552.481,384.785 553.378,384.657 554.223,384.521     555.026,384.377 555.796,384.226 556.541,384.067 556.905,383.984 557.263,383.899 557.616,383.812 557.963,383.722     558.304,383.631 558.64,383.537 558.971,383.441 559.296,383.342 559.616,383.241 559.931,383.138 560.241,383.032     560.546,382.923 560.845,382.812 561.14,382.699 561.43,382.582 561.714,382.464 561.994,382.342 562.27,382.217 562.54,382.09     562.807,381.96 563.068,381.827 563.325,381.692 563.578,381.553 563.826,381.411 564.07,381.267 564.31,381.119 564.545,380.968     564.661,380.891 564.776,380.814 564.891,380.736 565.004,380.657 565.116,380.577 565.227,380.496 565.337,380.415     565.446,380.332 565.555,380.249 565.662,380.166 565.768,380.081 565.874,379.995 565.978,379.909 566.082,379.822     566.184,379.733 566.286,379.644 566.387,379.555 566.486,379.464 566.585,379.372 566.683,379.28 566.781,379.187     566.877,379.092 566.972,378.997 567.067,378.901 567.161,378.804 567.254,378.707 567.346,378.608 567.437,378.508     567.527,378.408 567.617,378.306 567.706,378.204 567.794,378.1 567.881,377.996 567.967,377.891 568.053,377.785     568.138,377.678 568.305,377.46 568.47,377.239 568.632,377.014 568.79,376.786 568.946,376.553 569.1,376.316 569.25,376.075     569.398,375.83 569.544,375.581 569.687,375.327 569.827,375.07 569.966,374.808 570.101,374.542 570.235,374.271     570.366,373.996 570.496,373.717 570.623,373.433 570.748,373.145 570.871,372.852 570.993,372.554 571.112,372.25     571.229,371.941 571.345,371.625 571.458,371.304 571.57,370.975 571.68,370.64 571.788,370.298 571.894,369.947 571.998,369.59     572.1,369.223 572.201,368.849 572.3,368.465 572.397,368.073 572.492,367.671 572.585,367.259 572.677,366.838 572.767,366.406     572.942,365.51 573.111,364.568 573.273,363.58 573.428,362.541 573.577,361.451 573.72,360.305 573.857,359.102 573.988,357.839     574.232,355.125 574.455,352.142 574.656,348.872 574.836,345.293 574.997,341.387 575.266,332.515 575.579,312.23     575.281,180.48 575.225,179.793 575.159,179.117 575.082,178.452 574.996,177.797 574.949,177.473 574.9,177.153 574.848,176.835     574.794,176.519 574.737,176.207 574.678,175.897 574.617,175.589 574.552,175.285 574.486,174.983 574.417,174.683     574.345,174.387 574.271,174.093 574.194,173.801 574.115,173.513 574.033,173.227 573.949,172.943 573.863,172.663     573.774,172.385 573.682,172.11 573.588,171.837 573.491,171.567 573.392,171.3 573.29,171.035 573.186,170.773 573.08,170.514     572.97,170.257 572.859,170.003 572.745,169.752 572.628,169.503 572.509,169.257 572.387,169.014 572.263,168.774     572.136,168.536 572.007,168.3 571.875,168.068 571.74,167.838 571.604,167.611 571.464,167.386 571.322,167.164 571.178,166.945     571.031,166.728 570.881,166.514 570.729,166.303 570.575,166.095 570.417,165.889 570.258,165.686 570.096,165.485     569.931,165.287 569.764,165.092 569.594,164.899 569.421,164.71 569.247,164.522 569.069,164.338 568.889,164.156     568.707,163.977 568.521,163.8 568.334,163.626 568.144,163.455 567.951,163.287 567.756,163.121 567.558,162.958     567.357,162.797 567.154,162.639 566.949,162.484 566.741,162.332 566.53,162.182 566.317,162.035 566.101,161.89     565.883,161.748 565.662,161.609 565.438,161.473 565.212,161.339 564.984,161.208 564.753,161.079 564.519,160.953     564.282,160.83 564.043,160.71 563.802,160.592 563.558,160.477 563.311,160.365 563.062,160.255 562.81,160.148 562.556,160.043     562.299,159.941 562.039,159.842 561.777,159.746 561.512,159.652 561.245,159.561 560.975,159.473 560.703,159.387     560.427,159.304 560.15,159.223 559.869,159.146 559.586,159.071 559.301,158.998 559.013,158.928 558.722,158.861     558.429,158.797 558.133,158.735 557.834,158.676 557.533,158.62 557.23,158.566 556.923,158.515 556.614,158.467     556.303,158.421 555.989,158.378 555.672,158.338 555.352,158.3 555.03,158.265 554.706,158.232 554.378,158.203 554.048,158.176     553.381,158.13 552.703,158.094 552.014,158.07 551.315,158.056 374.947,156.549 198.579,158.056 197.88,158.07 197.191,158.094     196.513,158.13 195.845,158.176 195.516,158.203 195.188,158.232 194.864,158.265 194.542,158.3 194.222,158.338 193.905,158.378     193.591,158.421 193.28,158.467 192.971,158.515 192.664,158.566 192.361,158.62 192.06,158.676 191.761,158.735 191.465,158.797     191.172,158.861 190.881,158.928 190.593,158.998 190.307,159.071 190.025,159.146 189.744,159.223 189.467,159.304     189.191,159.387 188.919,159.473 188.649,159.561 188.382,159.652 188.117,159.746 187.855,159.842 187.595,159.941     187.338,160.043 187.084,160.148 186.832,160.255 186.583,160.365 186.336,160.477 186.092,160.592 185.851,160.71     185.612,160.83 185.375,160.953 185.141,161.079 184.91,161.208 184.682,161.339 184.456,161.473 184.232,161.609     184.011,161.748 183.793,161.89 183.577,162.035 183.364,162.182 183.153,162.332 182.945,162.484 182.74,162.639     182.537,162.797 182.336,162.958 182.138,163.121 181.943,163.287 181.75,163.455 181.56,163.626 181.372,163.8 181.187,163.977     181.005,164.156 180.825,164.338 180.647,164.522 180.473,164.71 180.3,164.899 180.13,165.092 179.963,165.287 179.798,165.485     179.636,165.686 179.477,165.889 179.319,166.095 179.165,166.303 179.013,166.514 178.863,166.728 178.716,166.945     178.572,167.164 178.43,167.386 178.29,167.611 178.154,167.838 178.019,168.068 177.887,168.3 177.758,168.536 177.631,168.774     177.507,169.014 177.385,169.257 177.266,169.503 177.149,169.752 177.035,170.003 176.924,170.257 176.814,170.514     176.708,170.773 176.604,171.035 176.502,171.3 176.403,171.567 176.306,171.837 176.212,172.11 176.12,172.385 176.031,172.663     175.945,172.943 175.861,173.227 175.779,173.513 175.7,173.801 175.623,174.093 175.549,174.387 175.477,174.683     175.408,174.983 175.342,175.285 175.277,175.589 175.216,175.897 175.156,176.207 175.1,176.519 175.046,176.835     174.994,177.153 174.945,177.473 174.898,177.797 174.812,178.452 174.735,179.117 174.669,179.793 174.613,180.48     174.315,312.23 174.628,332.515 174.897,341.387 175.058,345.293 175.238,348.872 175.439,352.142 175.662,355.125     175.906,357.839 176.037,359.102 176.174,360.305 176.317,361.451 176.466,362.541 176.621,363.58 176.783,364.568     176.952,365.51 177.127,366.406 177.217,366.838 177.309,367.259 177.402,367.671 177.497,368.073 177.594,368.465     177.693,368.849 177.794,369.223 177.896,369.59 178,369.947 178.106,370.298 178.214,370.64 178.324,370.975 178.436,371.304     178.549,371.625 178.665,371.941 178.782,372.25 178.901,372.554 179.023,372.852 179.146,373.145 179.271,373.433     179.398,373.717 179.528,373.996 179.659,374.271 179.793,374.542 179.928,374.808 180.067,375.07 180.207,375.327     180.35,375.581 180.496,375.83 180.644,376.075 180.794,376.316 180.947,376.553 181.104,376.786 181.262,377.014     181.424,377.239 181.589,377.46 181.756,377.678 181.841,377.785 181.927,377.891 182.013,377.996 182.1,378.1 182.188,378.204     182.277,378.306 182.367,378.408 182.457,378.508 182.548,378.608 182.64,378.707 182.733,378.804 182.827,378.901     182.922,378.997 183.017,379.092 183.113,379.187 183.211,379.28 183.309,379.372 183.408,379.464 183.507,379.555     183.608,379.644 183.71,379.733 183.812,379.822 183.916,379.909 184.02,379.995 184.126,380.081 184.232,380.166     184.339,380.249 184.447,380.332 184.557,380.415 184.667,380.496 184.778,380.577 184.89,380.657 185.003,380.736     185.118,380.814 185.233,380.891 185.349,380.968 185.584,381.119 185.824,381.267 186.068,381.411 186.316,381.553     186.569,381.692 186.826,381.827 187.087,381.96 187.354,382.09 187.624,382.217 187.9,382.342 188.18,382.464 188.464,382.582     188.754,382.699 189.049,382.812 189.348,382.923 189.653,383.032 189.963,383.138 190.277,383.241 190.598,383.342     190.923,383.441 191.254,383.537 191.59,383.631 191.931,383.722 192.278,383.812 192.631,383.899 192.989,383.984     193.353,384.067 194.098,384.226 194.868,384.377 195.671,384.521 196.516,384.657 197.413,384.785 198.37,384.906     199.396,385.02 200.502,385.127 201.696,385.227 202.988,385.321 204.386,385.409 207.541,385.567 211.234,385.701     215.54,385.815 226.286,385.986 280.931,386.16   "/>
	</g>
	<g id="POLYLINE_1068_">
		
			<rect x="285.667" y="202.023" fill="none" stroke="#00B9D2" stroke-width="2.75" stroke-linecap="round" stroke-linejoin="round" stroke-miterlimit="10" width="178.56" height="133.92"/>
	</g>
</g>
<g id="AG-OUTLINE">
	<g id="POLYLINE_399_">
		
			<polygon fill="none" stroke="#00B9D2" stroke-width="3.5" stroke-linecap="round" stroke-linejoin="round" stroke-miterlimit="10" points="    569.865,375 569.963,375.188 570.061,375.378 570.157,375.571 570.253,375.765 570.347,375.962 570.44,376.162 570.623,376.567     570.781,376.933 570.937,377.308 571.089,377.691 571.238,378.083 571.384,378.484 571.527,378.896 571.667,379.319     571.804,379.754 571.937,380.201 572.068,380.661 572.196,381.134 572.321,381.621 572.444,382.124 572.563,382.641     572.68,383.175 572.794,383.725 572.905,384.292 573.013,384.878 573.119,385.482 573.222,386.104 573.421,387.41 573.61,388.8     573.788,390.279 573.957,391.853 574.117,393.525 574.267,395.301 574.429,397.486 574.58,399.823 574.849,404.986     575.076,410.853 575.266,417.485 575.571,436.927 575.281,569.52 575.225,570.207 575.159,570.883 575.082,571.548     574.996,572.203 574.949,572.527 574.9,572.847 574.848,573.165 574.794,573.481 574.737,573.793 574.678,574.103     574.617,574.411 574.552,574.715 574.486,575.017 574.417,575.317 574.345,575.613 574.271,575.907 574.194,576.199     574.115,576.487 574.033,576.773 573.949,577.057 573.863,577.337 573.774,577.615 573.682,577.89 573.588,578.163     573.491,578.433 573.392,578.7 573.29,578.965 573.186,579.227 573.08,579.486 572.97,579.743 572.859,579.997 572.745,580.248     572.628,580.497 572.509,580.743 572.387,580.986 572.263,581.226 572.136,581.464 572.007,581.7 571.875,581.932 571.74,582.162     571.604,582.389 571.464,582.614 571.322,582.836 571.178,583.055 571.031,583.272 570.881,583.486 570.729,583.697     570.575,583.905 570.417,584.111 570.258,584.314 570.096,584.515 569.931,584.713 569.764,584.908 569.594,585.101     569.421,585.291 569.247,585.478 569.069,585.662 568.889,585.844 568.707,586.023 568.521,586.2 568.334,586.374     568.144,586.545 567.951,586.713 567.756,586.879 567.558,587.042 567.357,587.203 567.154,587.361 566.949,587.516     566.741,587.668 566.53,587.818 566.317,587.965 566.101,588.11 565.883,588.252 565.662,588.391 565.438,588.527     565.212,588.661 564.984,588.792 564.753,588.921 564.519,589.047 564.282,589.17 564.043,589.29 563.802,589.408     563.558,589.523 563.311,589.635 563.062,589.745 562.81,589.852 562.556,589.957 562.299,590.059 562.039,590.158     561.777,590.254 561.512,590.348 561.245,590.439 560.975,590.527 560.703,590.613 560.427,590.696 560.15,590.777     559.869,590.854 559.586,590.929 559.301,591.002 559.013,591.072 558.722,591.139 558.429,591.203 558.133,591.265     557.834,591.324 557.533,591.38 557.23,591.434 556.923,591.485 556.614,591.533 556.303,591.579 555.989,591.622     555.672,591.662 555.352,591.7 555.03,591.735 554.706,591.768 554.378,591.797 554.048,591.824 553.381,591.87 552.703,591.906     552.014,591.93 551.315,591.944 374.947,593.451 198.579,591.944 197.88,591.93 197.191,591.906 196.513,591.87 195.845,591.824     195.516,591.797 195.188,591.768 194.864,591.735 194.542,591.7 194.222,591.662 193.905,591.622 193.591,591.579 193.28,591.533     192.971,591.485 192.664,591.434 192.361,591.38 192.06,591.324 191.761,591.265 191.465,591.203 191.172,591.139     190.881,591.072 190.593,591.002 190.307,590.929 190.025,590.854 189.744,590.777 189.467,590.696 189.191,590.613     188.919,590.527 188.649,590.439 188.382,590.348 188.117,590.254 187.855,590.158 187.595,590.059 187.338,589.957     187.084,589.852 186.832,589.745 186.583,589.635 186.336,589.523 186.092,589.408 185.851,589.29 185.612,589.17     185.375,589.047 185.141,588.921 184.91,588.792 184.682,588.661 184.456,588.527 184.232,588.391 184.011,588.252     183.793,588.11 183.577,587.965 183.364,587.818 183.153,587.668 182.945,587.516 182.74,587.361 182.537,587.203     182.336,587.042 182.138,586.879 181.943,586.713 181.75,586.545 181.56,586.374 181.372,586.2 181.187,586.023 181.005,585.844     180.825,585.662 180.647,585.478 180.473,585.291 180.3,585.101 180.13,584.908 179.963,584.713 179.798,584.515 179.636,584.314     179.477,584.111 179.319,583.905 179.165,583.697 179.013,583.486 178.863,583.272 178.716,583.055 178.572,582.836     178.43,582.614 178.29,582.389 178.154,582.162 178.019,581.932 177.887,581.7 177.758,581.464 177.631,581.226 177.507,580.986     177.385,580.743 177.266,580.497 177.149,580.248 177.035,579.997 176.924,579.743 176.814,579.486 176.708,579.227     176.604,578.965 176.502,578.7 176.403,578.433 176.306,578.163 176.212,577.89 176.12,577.615 176.031,577.337 175.945,577.057     175.861,576.773 175.779,576.487 175.7,576.199 175.623,575.907 175.549,575.613 175.477,575.317 175.408,575.017     175.342,574.715 175.277,574.411 175.216,574.103 175.156,573.793 175.1,573.481 175.046,573.165 174.994,572.847     174.945,572.527 174.898,572.203 174.812,571.548 174.735,570.883 174.669,570.207 174.613,569.52 174.558,559.885     174.322,436.927 174.628,417.485 174.818,410.853 175.045,404.986 175.314,399.823 175.465,397.486 175.627,395.301     175.777,393.525 175.937,391.853 176.106,390.279 176.284,388.8 176.473,387.41 176.671,386.104 176.775,385.482 176.88,384.878     176.989,384.292 177.1,383.725 177.214,383.175 177.331,382.641 177.45,382.124 177.572,381.621 177.698,381.134 177.826,380.661     177.957,380.201 178.09,379.754 178.227,379.319 178.367,378.896 178.51,378.484 178.656,378.083 178.805,377.691     178.957,377.308 179.112,376.933 179.271,376.567 179.454,376.162 179.547,375.962 179.641,375.765 179.737,375.571     179.833,375.378 179.931,375.188 180.029,375 179.931,374.812 179.833,374.622 179.737,374.429 179.641,374.235 179.547,374.038     179.454,373.838 179.271,373.433 179.146,373.145 179.023,372.852 178.901,372.554 178.782,372.25 178.665,371.941     178.549,371.625 178.436,371.304 178.324,370.975 178.214,370.64 178.106,370.298 178,369.947 177.896,369.59 177.794,369.223     177.693,368.849 177.594,368.465 177.497,368.073 177.402,367.671 177.309,367.259 177.217,366.838 177.127,366.406     176.952,365.51 176.783,364.568 176.621,363.58 176.466,362.541 176.317,361.451 176.174,360.305 176.037,359.102     175.906,357.839 175.662,355.125 175.439,352.142 175.238,348.872 175.058,345.293 174.897,341.387 174.628,332.515     174.315,312.23 174.613,180.48 174.669,179.793 174.735,179.117 174.812,178.452 174.898,177.797 174.945,177.473     174.994,177.153 175.046,176.835 175.1,176.519 175.156,176.207 175.216,175.897 175.277,175.589 175.342,175.285     175.408,174.983 175.477,174.683 175.549,174.387 175.623,174.093 175.7,173.801 175.779,173.513 175.861,173.227     175.945,172.943 176.031,172.663 176.12,172.385 176.212,172.11 176.306,171.837 176.403,171.567 176.502,171.3 176.604,171.035     176.708,170.773 176.814,170.514 176.924,170.257 177.035,170.003 177.149,169.752 177.266,169.503 177.385,169.257     177.507,169.014 177.631,168.774 177.758,168.536 177.887,168.3 178.019,168.068 178.154,167.838 178.29,167.611 178.43,167.386     178.572,167.164 178.716,166.945 178.863,166.728 179.013,166.514 179.165,166.303 179.319,166.095 179.477,165.889     179.636,165.686 179.798,165.485 179.963,165.287 180.13,165.092 180.3,164.899 180.473,164.71 180.647,164.522 180.825,164.338     181.005,164.156 181.187,163.977 181.372,163.8 181.56,163.626 181.75,163.455 181.943,163.287 182.138,163.121 182.336,162.958     182.537,162.797 182.74,162.639 182.945,162.484 183.153,162.332 183.364,162.182 183.577,162.035 183.793,161.89     184.011,161.748 184.232,161.609 184.456,161.473 184.682,161.339 184.91,161.208 185.141,161.079 185.375,160.953     185.612,160.83 185.851,160.71 186.092,160.592 186.336,160.477 186.583,160.365 186.832,160.255 187.084,160.148     187.338,160.043 187.595,159.941 187.855,159.842 188.117,159.746 188.382,159.652 188.649,159.561 188.919,159.473     189.191,159.387 189.467,159.304 189.744,159.223 190.025,159.146 190.307,159.071 190.593,158.998 190.881,158.928     191.172,158.861 191.465,158.797 191.761,158.735 192.06,158.676 192.361,158.62 192.664,158.566 192.971,158.515 193.28,158.467     193.591,158.421 193.905,158.378 194.222,158.338 194.542,158.3 194.864,158.265 195.188,158.232 195.516,158.203     195.845,158.176 196.513,158.13 197.191,158.094 197.88,158.07 198.579,158.056 374.947,156.549 551.315,158.056 552.014,158.07     552.703,158.094 553.381,158.13 554.048,158.176 554.378,158.203 554.706,158.232 555.03,158.265 555.352,158.3 555.672,158.338     555.989,158.378 556.303,158.421 556.614,158.467 556.923,158.515 557.23,158.566 557.533,158.62 557.834,158.676     558.133,158.735 558.429,158.797 558.722,158.861 559.013,158.928 559.301,158.998 559.586,159.071 559.869,159.146     560.15,159.223 560.427,159.304 560.703,159.387 560.975,159.473 561.245,159.561 561.512,159.652 561.777,159.746     562.039,159.842 562.299,159.941 562.556,160.043 562.81,160.148 563.062,160.255 563.311,160.365 563.558,160.477     563.802,160.592 564.043,160.71 564.282,160.83 564.519,160.953 564.753,161.079 564.984,161.208 565.212,161.339     565.438,161.473 565.662,161.609 565.883,161.748 566.101,161.89 566.317,162.035 566.53,162.182 566.741,162.332     566.949,162.484 567.154,162.639 567.357,162.797 567.558,162.958 567.756,163.121 567.951,163.287 568.144,163.455     568.334,163.626 568.521,163.8 568.707,163.977 568.889,164.156 569.069,164.338 569.247,164.522 569.421,164.71 569.594,164.899     569.764,165.092 569.931,165.287 570.096,165.485 570.258,165.686 570.417,165.889 570.575,166.095 570.729,166.303     570.881,166.514 571.031,166.728 571.178,166.945 571.322,167.164 571.464,167.386 571.604,167.611 571.74,167.838     571.875,168.068 572.007,168.3 572.136,168.536 572.263,168.774 572.387,169.014 572.509,169.257 572.628,169.503     572.745,169.752 572.859,170.003 572.97,170.257 573.08,170.514 573.186,170.773 573.29,171.035 573.392,171.3 573.491,171.567     573.588,171.837 573.682,172.11 573.774,172.385 573.863,172.663 573.949,172.943 574.033,173.227 574.115,173.513     574.194,173.801 574.271,174.093 574.345,174.387 574.417,174.683 574.486,174.983 574.552,175.285 574.617,175.589     574.678,175.897 574.737,176.207 574.794,176.519 574.848,176.835 574.9,177.153 574.949,177.473 574.996,177.797     575.082,178.452 575.159,179.117 575.225,179.793 575.281,180.48 575.685,282.893 575.579,312.23 575.266,332.515     574.997,341.387 574.836,345.293 574.656,348.872 574.455,352.142 574.232,355.125 573.988,357.839 573.857,359.102     573.72,360.305 573.577,361.451 573.428,362.541 573.273,363.58 573.111,364.568 572.942,365.51 572.767,366.406 572.677,366.838     572.585,367.259 572.492,367.671 572.397,368.073 572.3,368.465 572.201,368.849 572.1,369.223 571.998,369.59 571.894,369.947     571.788,370.298 571.68,370.64 571.57,370.975 571.458,371.304 571.345,371.625 571.229,371.941 571.112,372.25 570.993,372.554     570.871,372.852 570.748,373.145 570.623,373.433 570.44,373.838 570.347,374.038 570.253,374.235 570.157,374.429     570.061,374.622 569.963,374.812   "/>
	</g>
</g>
</svg>