<?xml version="1.0" encoding="UTF-8"?>
<svg xmlns="http://www.w3.org/2000/svg" width="750" height="750" version="1.1" viewBox="217 61 317 628">
  <!-- Generator: Adobe Illustrator 28.7.1, SVG Export Plug-In . SVG Version: 1.2.0 Build 142)  -->
  <g>
    <g id="_x32_D_x24_AG-DETAILS">
      <g id="POLYLINE">
        <line x1="236.169" y1="127.378" x2="232.489" y2="127.378" fill="none" stroke="#00b9d2" stroke-linecap="round" stroke-linejoin="round" stroke-width="2"/>
      </g>
      <g id="POLYLINE-2" data-name="POLYLINE">
        <line x1="236.169" y1="131.058" x2="232.489" y2="131.058" fill="none" stroke="#00b9d2" stroke-linecap="round" stroke-linejoin="round" stroke-width="2"/>
      </g>
      <g id="POLYLINE-3" data-name="POLYLINE">
        <line x1="288.426" y1="75.121" x2="288.426" y2="78.801" fill="none" stroke="#00b9d2" stroke-linecap="round" stroke-linejoin="round" stroke-width="2"/>
      </g>
      <g id="POLYLINE-4" data-name="POLYLINE">
        <line x1="284.746" y1="75.121" x2="284.746" y2="78.801" fill="none" stroke="#00b9d2" stroke-linecap="round" stroke-linejoin="round" stroke-width="2"/>
      </g>
      <g id="POLYLINE-5" data-name="POLYLINE">
        <line x1="518.063" y1="127.378" x2="514.383" y2="127.378" fill="none" stroke="#00b9d2" stroke-linecap="round" stroke-linejoin="round" stroke-width="2"/>
      </g>
      <g id="POLYLINE-6" data-name="POLYLINE">
        <line x1="518.063" y1="131.058" x2="514.383" y2="131.058" fill="none" stroke="#00b9d2" stroke-linecap="round" stroke-linejoin="round" stroke-width="2"/>
      </g>
      <g id="POLYLINE-7" data-name="POLYLINE">
        <line x1="236.169" y1="619.037" x2="232.489" y2="619.037" fill="none" stroke="#00b9d2" stroke-linecap="round" stroke-linejoin="round" stroke-width="2"/>
      </g>
      <g id="POLYLINE-8" data-name="POLYLINE">
        <line x1="236.169" y1="622.717" x2="232.489" y2="622.717" fill="none" stroke="#00b9d2" stroke-linecap="round" stroke-linejoin="round" stroke-width="2"/>
      </g>
      <g id="POLYLINE-9" data-name="POLYLINE">
        <line x1="518.063" y1="619.037" x2="514.383" y2="619.037" fill="none" stroke="#00b9d2" stroke-linecap="round" stroke-linejoin="round" stroke-width="2"/>
      </g>
      <g id="POLYLINE-10" data-name="POLYLINE">
        <line x1="518.063" y1="622.717" x2="514.383" y2="622.717" fill="none" stroke="#00b9d2" stroke-linecap="round" stroke-linejoin="round" stroke-width="2"/>
      </g>
      <g id="POLYLINE-11" data-name="POLYLINE">
        <line x1="465.806" y1="671.294" x2="465.806" y2="674.974" fill="none" stroke="#00b9d2" stroke-linecap="round" stroke-linejoin="round" stroke-width="2"/>
      </g>
      <g id="POLYLINE-12" data-name="POLYLINE">
        <line x1="462.126" y1="671.294" x2="462.126" y2="674.974" fill="none" stroke="#00b9d2" stroke-linecap="round" stroke-linejoin="round" stroke-width="2"/>
      </g>
      <g id="POLYLINE-13" data-name="POLYLINE">
        <path d="M472.062,671.294c13.043.031,25.599-6.144,33.533-16.503,2.505-3.255,4.543-6.891,6.006-10.729,1.262-3.311,2.113-6.798,2.512-10.319.137-1.262.234-2.563.259-3.831.287-.925-.182-508.239.008-509.259,0,0-.008-.471-.008-.471,0,0-.013-.473-.013-.473,0,0-.019-.475-.019-.475-.067-1.432-.206-2.925-.419-4.344-.475-3.189-1.323-6.349-2.51-9.347-3.827-9.753-11.426-17.947-20.866-22.493-3.107-1.506-6.419-2.642-9.799-3.349-1.915-.396-3.892-.677-5.843-.805-.43-.013-1-.069-1.429-.072-.427.007-.987-.039-1.412-.024,0,0-193.572,0-193.572,0,0,0-.469.003-.469.003,0,0-.471.008-.471.008-1.424.037-2.902.136-4.316.317-13.189,1.619-25.051,9.557-31.571,21.14-2.796,4.934-4.588,10.447-5.224,16.083-.175,1.574-.272,3.188-.27,4.77.01.944-.02,507.922.01,508.788.027.922.073,1.947.161,2.866.504,5.614,2.151,11.136,4.806,16.109,4.327,8.155,11.41,14.808,19.823,18.612,2.82,1.28,5.805,2.263,8.837,2.897,1.757.362,3.574.633,5.363.77.595.07,1.312.07,1.909.107.427-.007.987.039,1.412.023,0,0,193.572,0,193.572,0Z" fill="none" stroke="#00b9d2" stroke-linecap="round" stroke-linejoin="round" stroke-width="2"/>
      </g>
      <g id="POLYLINE-14" data-name="POLYLINE">
        <path d="M396.897,370.666c-.03-2.578.539-5.168,1.687-7.479,1.509-3.033,3.905-5.627,6.776-7.418-1.283-1.884-2.936-3.521-4.848-4.764-2.81-1.828-6.135-2.841-9.478-3.003-2.323-.237-4.66.234-6.864.946-2.085.648-4.563,1.828-6.665,2.417-.498.13-1.013.233-1.53.224-1.13-.032-2.222-.426-3.275-.808l-3.216-1.25c-1.666-.618-3.399-1.154-5.177-1.303-1.924-.141-3.882.112-5.741.615-3.865,1.061-7.339,3.417-9.844,6.537-1.68,2.081-2.926,4.507-3.742,7.05-3.364,10.579.085,23.816,5.668,33.108,1.512,2.415,3.212,4.813,5.059,6.984,1.723,1.962,3.757,3.858,6.327,4.579,1.544.437,3.191.275,4.729-.11,1.28-.308,2.986-1.095,4.213-1.597,2.828-1.185,5.825-1.546,8.85-.99,1.686.298,3.447,1.105,5.018,1.779.91.379,1.859.711,2.829.892,1.125.208,2.291.262,3.426.102,4.348-.643,7.249-4.404,9.655-7.756,2.718-3.731,4.983-7.871,6.442-12.256l.21-.66-.136-.056c-3.293-1.465-6.158-3.949-8.017-7.043-1.579-2.622-2.341-5.692-2.358-8.742" fill="none" stroke="#00b9d2" stroke-linecap="round" stroke-linejoin="round" stroke-width="2"/>
      </g>
      <g id="POLYLINE-15" data-name="POLYLINE">
        <path d="M375.431,347.112c2.363.184,4.733-.483,6.802-1.599,2.876-1.54,5.212-3.977,6.772-6.831,1.607-2.907,2.477-6.292,2.108-9.617-2.235.102-4.405.852-6.373,1.885-2.685,1.414-5.013,3.468-6.642,6.036-1.905,2.974-3.128,6.567-2.667,10.125Z" fill="none" stroke="#00b9d2" stroke-linecap="round" stroke-linejoin="round" stroke-width="2"/>
      </g>
      <g id="POLYLINE-16" data-name="POLYLINE">
        <path d="M363.8,159.763c.009-6.757-5.021-12.523-11.716-13.43-8.139-1.108-15.389,5.216-15.395,13.43.003,7.961,6.844,14.214,14.774,13.501,6.97-.621,12.345-6.503,12.338-13.501Z" fill="none" stroke="#00b9d2" stroke-linecap="round" stroke-linejoin="round" stroke-width="2"/>
      </g>
      <g id="POLYLINE-17" data-name="POLYLINE">
        <path d="M360.096,109.663c.011-4.641-3.286-8.701-7.83-9.642-6.124-1.274-11.864,3.387-11.874,9.642.01,6.256,5.749,10.917,11.874,9.642,4.544-.942,7.841-5.001,7.83-9.642Z" fill="none" stroke="#00b9d2" stroke-linecap="round" stroke-linejoin="round" stroke-width="2"/>
      </g>
      <g id="POLYLINE-18" data-name="POLYLINE">
        <path d="M354.033,109.663c.003-.928-.352-1.85-.975-2.537-.63-.704-1.533-1.155-2.474-1.237-1.038-.098-2.106.258-2.878.959-.79.706-1.257,1.755-1.252,2.814-.004,1.043.447,2.076,1.216,2.781.764.712,1.83,1.083,2.871.996.94-.071,1.846-.51,2.484-1.204.643-.691,1.011-1.629,1.008-2.573Z" fill="none" stroke="#00b9d2" stroke-linecap="round" stroke-linejoin="round" stroke-width="2"/>
      </g>
      <g id="POLYLINE-19" data-name="POLYLINE">
        <path d="M362.242,209.814c.012,5.493-3.781,10.34-9.117,11.647-7.575,1.857-14.863-3.848-14.88-11.647.016-7.739,7.202-13.434,14.74-11.681,5.403,1.256,9.269,6.134,9.257,11.681Z" fill="none" stroke="#00b9d2" stroke-linecap="round" stroke-linejoin="round" stroke-width="2"/>
      </g>
      <g id="POLYLINE-20" data-name="POLYLINE">
        <path d="M295.423,195.643c.002,2.314-.576,4.628-1.667,6.669-1.113,2.093-2.765,3.899-4.751,5.195-7.337,4.782-17.194,1.854-20.73-6.157-1.594-3.584-1.595-7.828,0-11.412,3.537-8.012,13.394-10.939,20.73-6.157,1.986,1.295,3.637,3.102,4.751,5.195,1.09,2.041,1.669,4.355,1.667,6.669Z" fill="none" stroke="#00b9d2" stroke-linecap="round" stroke-linejoin="round" stroke-width="2"/>
      </g>
      <g id="POLYLINE-21" data-name="POLYLINE">
        <path d="M299.706,123.882c.022-6.177-3.175-12.086-8.357-15.448-9.637-6.277-22.569-2.348-27.085,8.229-1.955,4.551-1.955,9.886,0,14.437,4.516,10.577,17.448,14.506,27.085,8.229,5.181-3.362,8.379-9.271,8.357-15.448Z" fill="none" stroke="#00b9d2" stroke-linecap="round" stroke-linejoin="round" stroke-width="2"/>
      </g>
      <g id="POLYLINE-22" data-name="POLYLINE">
        <path d="M240.953,196.563c-.025,15.737,9.478,30.107,23.976,36.24,4.582,1.949,9.549,3.019,14.527,3.127.223-.005.653.017.874.01,0,0,70.842,0,70.842,0,0,0,.436-.002.436-.002,0,0,.438-.007.438-.007l.44-.012c.868-.033,1.81-.09,2.674-.181,3.592-.365,7.15-1.233,10.507-2.562,11.77-4.627,20.723-14.87,23.73-27.155.55-2.226.91-4.526,1.064-6.813.041-.71.083-1.497.086-2.208.346-.212-.245-73.736.003-74.038,0,0-.003-.436-.003-.436-.035-3.189-.463-6.394-1.267-9.48-1.409-5.426-4.001-10.553-7.537-14.903-7.395-9.159-18.798-14.591-30.57-14.558,0,0-70.842,0-70.842,0,0,0-.436.002-.436.002-.861.013-1.796.049-2.654.119-2.93.231-5.857.796-8.663,1.673-11.434,3.542-20.799,12.346-25.036,23.543-1.229,3.221-2.037,6.622-2.385,10.052-.084.868-.154,1.803-.18,2.674.004.225-.025.655-.019.878-.346.212.245,73.736-.002,74.038Z" fill="none" stroke="#00b9d2" stroke-linecap="round" stroke-linejoin="round" stroke-width="2"/>
      </g>
    </g>
    <g id="_x32_D_x24_AG-DIGITAL">
      <g id="POLYLINE-23" data-name="POLYLINE">
        <rect x="230.649" y="242.7" width="1.84" height="66.241" fill="none" stroke="#00b9d2" stroke-linecap="round" stroke-linejoin="round" stroke-width="2.75"/>
      </g>
      <g id="POLYLINE-24" data-name="POLYLINE">
        <rect x="518.063" y="281.892" width="1.288" height="42.321" fill="none" stroke="#00b9d2" stroke-linecap="round" stroke-linejoin="round" stroke-width="2.75"/>
      </g>
      <g id="POLYLINE-25" data-name="POLYLINE">
        <rect x="518.063" y="227.795" width="1.288" height="42.321" fill="none" stroke="#00b9d2" stroke-linecap="round" stroke-linejoin="round" stroke-width="2.75"/>
      </g>
      <g id="POLYLINE-26" data-name="POLYLINE">
        <rect x="518.063" y="181.794" width="1.288" height="26.129" fill="none" stroke="#00b9d2" stroke-linecap="round" stroke-linejoin="round" stroke-width="2.75"/>
      </g>
      <g id="POLYLINE-27" data-name="POLYLINE">
        <path d="M472.062,674.974c14.182.032,27.821-6.675,36.449-17.938,2.606-3.387,4.75-7.156,6.322-11.131,1.355-3.428,2.305-7.039,2.804-10.691.207-1.55.351-3.146.4-4.707.075-2.832.013-507.41.014-510.406-.034-1.365-.125-2.807-.282-4.165-.349-3.072-1.015-6.141-1.975-9.081-1.862-5.717-4.869-11.075-8.781-15.642-3.842-4.492-8.572-8.243-13.824-10.955-3.189-1.647-6.595-2.932-10.08-3.793-2.088-.511-4.25-.896-6.389-1.11-.465-.066-1.104-.088-1.57-.133-.827-.063-1.75-.086-2.579-.101-.362-.382-193.649.27-194.082-.004-.998.014-2.09.028-3.088.105-14.729.959-28.313,9.139-36.045,21.718-3.364,5.44-5.578,11.6-6.442,17.937-.231,1.72-.378,3.487-.414,5.221-.301.97.19,508.341-.009,509.382.019.811.04,1.765.102,2.579.406,6.075,2.041,12.08,4.772,17.522,4.649,9.33,12.58,16.971,22.081,21.263,3.065,1.392,6.309,2.459,9.605,3.149,1.91.394,3.885.688,5.83.837.648.071,1.425.08,2.075.116.463-.003,1.074.038,1.535.026,0,0,193.572,0,193.572,0Z" fill="none" stroke="#00b9d2" stroke-linecap="round" stroke-linejoin="round" stroke-width="2.75"/>
      </g>
      <g id="POLYLINE-28" data-name="POLYLINE">
        <path d="M360.12,159.763c.011-4.608-3.233-8.652-7.734-9.641-6.171-1.36-12.007,3.321-12.017,9.641.01,6.271,5.763,10.943,11.902,9.665,4.555-.944,7.86-5.013,7.849-9.665Z" fill="none" stroke="#00b9d2" stroke-linecap="round" stroke-linejoin="round" stroke-width="2.75"/>
      </g>
      <g id="POLYLINE-29" data-name="POLYLINE">
        <path d="M376.196,159.763c.026-8.815-4.577-17.194-12.03-21.902-13.556-8.58-31.504-3.001-37.807,11.751-2.749,6.4-2.749,13.901,0,20.3,6.303,14.753,24.251,20.331,37.807,11.751,7.453-4.707,12.056-13.087,12.03-21.902Z" fill="none" stroke="#00b9d2" stroke-linecap="round" stroke-linejoin="round" stroke-width="2.75"/>
      </g>
      <g id="POLYLINE-30" data-name="POLYLINE">
        <path d="M380.244,159.763c.027-10.059-5.15-19.628-13.584-25.11-15.549-10.12-36.374-3.934-43.878,13.032-1.669,3.79-2.541,7.936-2.538,12.077-.002,4.141.869,8.288,2.538,12.077,7.504,16.967,28.329,23.152,43.878,13.032,8.434-5.482,13.611-15.051,13.584-25.11Z" fill="none" stroke="#00b9d2" stroke-linecap="round" stroke-linejoin="round" stroke-width="2.75"/>
      </g>
      <g id="POLYLINE-31" data-name="POLYLINE">
        <path d="M363.128,109.663c.012-6.072-4.294-11.375-10.24-12.609-8.012-1.665-15.513,4.427-15.527,12.609.015,8.183,7.516,14.274,15.527,12.609,5.946-1.234,10.252-6.537,10.24-12.609Z" fill="none" stroke="#00b9d2" stroke-linecap="round" stroke-linejoin="round" stroke-width="2.75"/>
      </g>
      <g id="POLYLINE-32" data-name="POLYLINE">
        <path d="M373.479,197.816c0,.315-.12.629-.331.862-.214.239-.521.393-.841.42-.353.033-.716-.088-.978-.326-.269-.24-.427-.597-.426-.957-.001-.355.152-.706.413-.945.26-.242.622-.368.976-.339.32.024.627.173.844.409.219.235.344.554.343.875Z" fill="none" stroke="#00b9d2" stroke-linecap="round" stroke-linejoin="round" stroke-width="2.75"/>
      </g>
      <g id="POLYLINE-33" data-name="POLYLINE">
        <path d="M288.072,195.643c.003,1.493-.503,2.981-1.417,4.162-.914,1.192-2.233,2.065-3.687,2.44-4.322,1.118-8.534-2.138-8.54-6.602.006-4.464,4.218-7.72,8.54-6.602,1.454.375,2.774,1.248,3.687,2.44.913,1.181,1.42,2.669,1.417,4.162Z" fill="none" stroke="#00b9d2" stroke-linecap="round" stroke-linejoin="round" stroke-width="2.75"/>
      </g>
      <g id="POLYLINE-34" data-name="POLYLINE">
        <path d="M307.202,195.643c.026,8.815-4.577,17.194-12.03,21.902-13.556,8.58-31.504,3.001-37.807-11.751-2.749-6.4-2.749-13.901,0-20.3,6.303-14.753,24.251-20.331,37.807-11.751,7.453,4.707,12.056,13.087,12.03,21.902Z" fill="none" stroke="#00b9d2" stroke-linecap="round" stroke-linejoin="round" stroke-width="2.75"/>
      </g>
      <g id="POLYLINE-35" data-name="POLYLINE">
        <path d="M311.25,195.643c.027,10.059-5.15,19.628-13.584,25.11-15.549,10.12-36.374,3.934-43.878-13.032-1.669-3.79-2.541-7.936-2.538-12.077-.002-4.141.869-8.288,2.538-12.077,7.504-16.967,28.329-23.152,43.878-13.032,8.434,5.482,13.611,15.051,13.584,25.11Z" fill="none" stroke="#00b9d2" stroke-linecap="round" stroke-linejoin="round" stroke-width="2.75"/>
      </g>
      <g id="POLYLINE-36" data-name="POLYLINE">
        <path d="M286.285,123.882c.004-1.233-.467-2.458-1.295-3.371-.838-.935-2.036-1.534-3.287-1.643-2.941-.268-5.489,2.062-5.487,5.014-.003,2.93,2.51,5.252,5.43,5.019,1.249-.094,2.452-.678,3.3-1.6.855-.918,1.343-2.165,1.339-3.419Z" fill="none" stroke="#00b9d2" stroke-linecap="round" stroke-linejoin="round" stroke-width="2.75"/>
      </g>
      <g id="POLYLINE-37" data-name="POLYLINE">
        <path d="M307.202,123.882c.026-8.815-4.577-17.194-12.03-21.902-13.556-8.58-31.504-3.001-37.807,11.751-2.749,6.4-2.749,13.901,0,20.3,6.303,14.753,24.251,20.331,37.807,11.751,7.453-4.707,12.056-13.087,12.03-21.902Z" fill="none" stroke="#00b9d2" stroke-linecap="round" stroke-linejoin="round" stroke-width="2.75"/>
      </g>
      <g id="POLYLINE-38" data-name="POLYLINE">
        <path d="M311.25,123.882c.027-10.059-5.15-19.628-13.584-25.11-15.549-10.12-36.374-3.934-43.878,13.032-1.669,3.79-2.541,7.936-2.538,12.077-.002,4.141.869,8.288,2.538,12.077,7.504,16.967,28.329,23.152,43.878,13.032,8.434-5.482,13.611-15.051,13.584-25.11Z" fill="none" stroke="#00b9d2" stroke-linecap="round" stroke-linejoin="round" stroke-width="2.75"/>
      </g>
      <g id="POLYLINE-39" data-name="POLYLINE">
        <path d="M247.209,196.563c-.02,13.689,8.511,26.081,21.312,30.944,3.757,1.435,7.787,2.178,11.809,2.177.399-.096,70.86.072,71.208-.002.594-.011,1.265-.029,1.858-.073,1.923-.13,3.859-.431,5.731-.895,2.644-.654,5.225-1.644,7.629-2.926,7.361-3.895,13.123-10.675,15.776-18.569.842-2.478,1.393-5.074,1.627-7.68.074-.852.124-1.754.132-2.609.042-.789-.024-73.535,0-74.335-.066-7.842-3.042-15.612-8.234-21.49-6.036-6.918-14.97-11.084-24.15-11.256-.184-.013-.551-.002-.735-.008-.399.096-70.86-.072-71.208.002-.724.011-1.511.041-2.233.1-2.465.194-4.927.669-7.286,1.408-9.475,2.933-17.286,10.186-20.91,19.419-1.118,2.824-1.848,5.816-2.155,8.838-.084.855-.145,1.76-.162,2.619-.013.184-.002.552-.008.735,0,0,0,73.602,0,73.602Z" fill="none" stroke="#00b9d2" stroke-linecap="round" stroke-linejoin="round" stroke-width="2.75"/>
      </g>
    </g>
    <g id="_x32_D_x24_AG-OUTLINE">
      <g id="POLYLINE-40" data-name="POLYLINE">
        <path d="M519.351,324.213v-42.321h-1.288v-11.776s1.288,0,1.288,0v-42.321h-1.288v-19.872s1.288,0,1.288,0v-26.129h-1.288s0-60.673,0-60.673l-.007-.794c-.041-.712-.034-1.67-.103-2.38-.184-2.617-.598-5.289-1.227-7.835-1.892-7.708-5.835-14.916-11.305-20.666-8.188-8.681-19.844-13.927-31.771-14.299-.399-.016-1.19-.026-1.588-.027,0,0-193.572,0-193.572,0,0,0-.794.007-.794.007,0,0-.794.021-.794.021-1.54.055-3.216.197-4.744.411-4.969.69-9.858,2.213-14.339,4.468-6.618,3.322-12.424,8.289-16.73,14.314-4.005,5.587-6.74,12.107-7.916,18.88-.208,1.253-.41,2.669-.512,3.936-.007.374-.108,1.203-.11,1.584-.008.701-.082,1.678-.062,2.381,0,0,0,121.578,0,121.578h-1.84v66.241h1.84c-.153,3.054.076,318.632.027,321.617.069,1.82.242,3.736.527,5.533.979,6.268,3.285,12.351,6.71,17.692,4.7,7.36,11.559,13.333,19.497,16.975,4.316,1.988,8.978,3.31,13.696,3.882,1.54.185,3.201.302,4.751.329.301.096,193.877-.055,194.366.007,0,0,.794-.007.794-.007,0,0,.794-.021.794-.021,4.482-.155,8.984-.979,13.23-2.425,9.279-3.137,17.492-9.345,23.04-17.418,3.757-5.437,6.328-11.719,7.459-18.23.354-2.055.587-4.228.656-6.313,0-.38.037-1.203.027-1.588,0,0,0-304.759,0-304.759h1.288Z" fill="none" stroke="#00b9d2" stroke-linecap="round" stroke-linejoin="round" stroke-width="3.5"/>
      </g>
    </g>
    <metadata>
      <sfw xmlns="http://ns.adobe.com/SaveForWeb/1.0/">
        <slices/>
        <sliceSourceBounds x="-3752.89" y="1330" width="5934.89" height="4760.75" bottomLeftOrigin="true"/>
      </sfw>
    </metadata>
  </g>
</svg>