<?xml version="1.0" encoding="UTF-8"?>
<!-- Generator: Adobe Illustrator 23.1.1, SVG Export Plug-In . SVG Version: 6.00 Build 0)  -->
<svg version="1.1" xmlns="http://www.w3.org/2000/svg" xmlns:xlink="http://www.w3.org/1999/xlink" x="0px" y="0px" viewBox="85 171 581 408" enable-background="new 0 0 750 750" xml:space="preserve">
<g id="N-DIMENSIONS">
</g>
<g id="N-TEXT">
</g>
<g id="AG-DIAGRAM">
</g>
<g id="AG-DETAILS">
	<g id="POLYLINE_106_">
		
			<polyline fill="none" stroke="#00B9D2" stroke-width="2.25" stroke-linecap="round" stroke-linejoin="round" stroke-miterlimit="10" points="    391.69,371.007 391.69,370.818 391.692,370.629 391.696,370.442 391.703,370.257 391.712,370.073 391.723,369.891 391.737,369.71     391.753,369.531 391.771,369.353 391.791,369.177 391.813,369.003 391.838,368.83 391.864,368.658 391.893,368.488     391.923,368.32 391.955,368.153 391.99,367.987 392.026,367.823 392.063,367.661 392.103,367.5 392.144,367.341 392.187,367.183     392.232,367.027 392.278,366.872 392.326,366.719 392.376,366.567 392.427,366.417 392.479,366.268 392.533,366.121     392.588,365.975 392.645,365.831 392.703,365.689 392.762,365.547 392.822,365.408 392.884,365.27 392.947,365.133     393.011,364.998 393.076,364.864 393.142,364.732 393.209,364.601 393.277,364.472 393.346,364.344 393.416,364.218     393.486,364.093 393.558,363.97 393.63,363.848 393.703,363.728 393.777,363.609 393.852,363.492 393.927,363.376     394.003,363.262 394.079,363.149 394.156,363.037 394.233,362.927 394.311,362.819 394.389,362.712 394.467,362.606     394.546,362.502 394.705,362.298 394.864,362.1 395.024,361.908 395.185,361.722 395.345,361.542 395.505,361.367     395.664,361.198 395.823,361.035 395.98,360.878 396.135,360.726 396.289,360.58 396.441,360.44 396.59,360.306 396.736,360.177     396.88,360.054 397.02,359.937 397.156,359.825 397.289,359.719 397.417,359.618 397.54,359.524 397.659,359.435 397.773,359.351     397.881,359.273 397.983,359.201 398.079,359.134 398.252,359.017 398.398,358.923 398.641,358.771 398.552,358.642     398.463,358.515 398.372,358.389 398.281,358.266 398.189,358.144 398.096,358.024 398.003,357.905 397.909,357.788     397.815,357.673 397.719,357.559 397.624,357.447 397.527,357.337 397.43,357.228 397.333,357.121 397.235,357.016     397.136,356.912 397.037,356.809 396.938,356.708 396.838,356.609 396.737,356.511 396.636,356.415 396.535,356.32     396.433,356.227 396.331,356.135 396.229,356.045 396.126,355.956 396.023,355.868 395.919,355.782 395.816,355.698     395.712,355.614 395.607,355.533 395.503,355.452 395.398,355.373 395.293,355.295 395.188,355.219 395.082,355.144     394.977,355.07 394.871,354.998 394.765,354.927 394.659,354.857 394.553,354.789 394.447,354.722 394.235,354.591     394.023,354.465 393.81,354.344 393.598,354.228 393.386,354.116 393.174,354.009 392.963,353.907 392.753,353.809     392.543,353.715 392.335,353.625 392.127,353.539 391.921,353.458 391.716,353.38 391.513,353.306 391.311,353.236     391.111,353.169 390.913,353.106 390.717,353.046 390.523,352.99 390.332,352.937 390.143,352.887 389.956,352.84     389.772,352.796 389.592,352.754 389.414,352.716 389.239,352.68 389.067,352.647 388.899,352.617 388.734,352.588     388.573,352.562 388.416,352.539 388.263,352.517 388.114,352.497 387.969,352.479 387.828,352.464 387.56,352.437     387.311,352.416 387.082,352.401 386.875,352.391 386.757,352.38 386.64,352.37 386.523,352.362 386.406,352.355 386.289,352.349     386.173,352.345 386.056,352.342 385.939,352.34 385.823,352.34 385.707,352.341 385.591,352.343 385.475,352.347     385.359,352.351 385.243,352.357 385.128,352.364 385.013,352.372 384.898,352.381 384.783,352.391 384.668,352.403     384.553,352.415 384.439,352.428 384.325,352.443 384.097,352.475 383.871,352.51 383.645,352.549 383.42,352.592     383.196,352.637 382.974,352.686 382.752,352.738 382.532,352.793 382.313,352.85 382.095,352.909 381.878,352.971     381.663,353.035 381.449,353.1 381.237,353.168 381.026,353.237 380.609,353.379 380.198,353.525 379.794,353.674     377.536,354.552 377.191,354.683 376.855,354.806 376.691,354.864 376.529,354.919 376.37,354.972 376.214,355.022     376.061,355.069 375.91,355.113 375.762,355.153 375.689,355.172 375.617,355.19 375.546,355.207 375.475,355.223     375.405,355.238 375.336,355.253 375.267,355.266 375.199,355.278 375.133,355.289 375.066,355.299 375.001,355.308     374.936,355.315 374.872,355.322 374.809,355.328 374.778,355.33 374.747,355.332 374.716,355.334 374.685,355.335     374.655,355.336 374.625,355.337 374.595,355.337 374.565,355.337 374.505,355.337 374.445,355.335 374.384,355.333     374.323,355.329 374.261,355.325 374.199,355.319 374.136,355.313 374.073,355.305 374.01,355.297 373.945,355.288     373.881,355.278 373.816,355.267 373.75,355.255 373.684,355.242 373.618,355.228 373.551,355.214 373.483,355.199     373.415,355.183 373.278,355.149 373.14,355.112 372.999,355.073 372.857,355.031 372.713,354.986 372.567,354.939 372.42,354.89     372.121,354.785 371.815,354.673 369.174,353.647 368.822,353.518 368.466,353.393 368.106,353.272 367.925,353.213     367.743,353.157 367.56,353.101 367.376,353.048 367.191,352.996 367.006,352.947 366.819,352.9 366.632,352.855 366.445,352.812     366.257,352.772 366.068,352.735 365.878,352.701 365.688,352.67 365.497,352.642 365.401,352.629 365.306,352.617     365.21,352.605 365.114,352.595 365.018,352.586 364.921,352.577 364.825,352.569 364.729,352.563 364.632,352.557     364.535,352.552 364.439,352.548 364.342,352.546 364.245,352.544 364.148,352.543 364.051,352.543 363.953,352.545     363.698,352.551 363.443,352.561 363.188,352.576 362.934,352.595 362.682,352.618 362.43,352.646 362.178,352.678     361.928,352.714 361.679,352.754 361.431,352.799 361.184,352.847 360.938,352.9 360.693,352.957 360.449,353.018     360.206,353.082 359.965,353.151 359.725,353.224 359.486,353.301 359.249,353.381 359.013,353.466 358.778,353.554     358.545,353.647 358.314,353.743 358.084,353.842 357.855,353.946 357.629,354.053 357.404,354.164 357.181,354.279     356.959,354.397 356.739,354.519 356.522,354.644 356.306,354.773 356.092,354.906 355.88,355.042 355.67,355.181     355.462,355.324 355.257,355.47 355.053,355.62 354.852,355.773 354.652,355.929 354.455,356.089 354.261,356.252     354.069,356.418 353.879,356.587 353.691,356.76 353.506,356.935 353.324,357.114 353.144,357.296 352.967,357.481     352.792,357.669 352.62,357.86 352.451,358.055 352.284,358.252 352.121,358.452 351.96,358.654 351.802,358.86 351.647,359.069     351.495,359.28 351.345,359.495 351.199,359.712 351.056,359.931 350.917,360.154 350.78,360.379 350.646,360.607     350.515,360.838 350.388,361.071 350.264,361.306 350.144,361.543 350.027,361.781 349.913,362.02 349.803,362.261     349.697,362.504 349.594,362.748 349.495,362.994 349.398,363.241 349.305,363.489 349.216,363.739 349.13,363.99     349.047,364.242 348.967,364.496 348.891,364.751 348.817,365.007 348.747,365.264 348.68,365.522 348.616,365.781     348.556,366.042 348.498,366.303 348.444,366.566 348.392,366.829 348.344,367.093 348.298,367.359 348.256,367.625     348.216,367.892 348.179,368.159 348.145,368.428 348.114,368.697 348.086,368.967 348.061,369.237 348.038,369.508     348.019,369.78 348.002,370.053 347.987,370.325 347.976,370.599 347.967,370.873 347.96,371.147 347.957,371.422     347.955,371.697 347.957,371.972 347.961,372.248 347.967,372.524 347.976,372.8 347.988,373.077 348.018,373.63 348.058,374.184     348.107,374.738 348.165,375.292 348.233,375.846 348.309,376.399 348.393,376.951 348.487,377.502 348.588,378.052     348.697,378.6 348.814,379.147 348.939,379.691 349.071,380.233 349.21,380.772 349.357,381.308 349.51,381.841 349.67,382.371     349.836,382.897 350.008,383.419 350.187,383.937 350.371,384.45 350.561,384.959 350.756,385.462 350.957,385.961     351.163,386.453 351.373,386.941 351.589,387.422 351.808,387.896 352.032,388.365 352.26,388.826 352.492,389.28     352.727,389.727 352.966,390.167 353.209,390.598 353.454,391.022 353.702,391.437 353.953,391.844 354.207,392.241     354.462,392.63 354.72,393.009 355.233,393.745 355.759,394.486 356.298,395.223 356.573,395.588 356.852,395.95 357.134,396.307     357.421,396.659 357.711,397.004 357.857,397.174 358.005,397.342 358.154,397.508 358.303,397.672 358.454,397.833     358.606,397.993 358.759,398.149 358.913,398.303 359.068,398.454 359.224,398.603 359.381,398.748 359.539,398.89     359.699,399.03 359.86,399.165 360.021,399.298 360.184,399.426 360.266,399.49 360.349,399.552 360.431,399.613 360.514,399.673     360.597,399.732 360.681,399.79 360.765,399.848 360.849,399.904 360.933,399.959 361.018,400.013 361.103,400.066     361.188,400.118 361.274,400.169 361.36,400.219 361.446,400.267 361.532,400.315 361.619,400.361 361.707,400.406     361.794,400.45 361.882,400.493 361.97,400.535 362.059,400.575 362.148,400.615 362.237,400.652 362.326,400.689     362.416,400.724 362.506,400.759 362.597,400.791 362.688,400.823 362.779,400.853 362.87,400.882 362.962,400.909     363.054,400.935 363.147,400.96 363.24,400.983 363.333,401.005 363.427,401.025 363.521,401.044 363.615,401.061 363.71,401.077     363.805,401.092 363.9,401.105 363.996,401.116 364.092,401.126 364.188,401.134 364.285,401.141 364.382,401.146 364.48,401.15     364.578,401.152 364.676,401.152 364.775,401.151 364.874,401.148 364.969,401.144 365.063,401.138 365.156,401.133     365.249,401.126 365.34,401.118 365.431,401.11 365.521,401.101 365.61,401.091 365.698,401.081 365.786,401.07 365.872,401.058     365.958,401.045 366.044,401.032 366.128,401.018 366.212,401.003 366.295,400.988 366.46,400.956 366.622,400.921     366.781,400.884 366.939,400.844 367.094,400.803 367.247,400.76 367.399,400.715 367.548,400.668 367.697,400.619     367.844,400.569 367.989,400.518 368.133,400.465 368.419,400.356 368.702,400.243 370.399,399.532 370.692,399.417     370.99,399.304 371.142,399.249 371.296,399.195 371.451,399.143 371.609,399.091 371.769,399.042 371.931,398.993     372.095,398.947 372.263,398.902 372.433,398.859 372.606,398.818 372.782,398.779 372.962,398.742 373.144,398.708     373.33,398.676 373.52,398.646 373.714,398.62 373.911,398.596 374.112,398.574 374.318,398.556 374.528,398.541 374.742,398.529     374.96,398.52 375.184,398.515 375.412,398.513 375.64,398.515 375.863,398.521 376.081,398.53 376.295,398.543 376.504,398.559     376.708,398.578 376.809,398.589 376.908,398.601 377.104,398.626 377.296,398.655 377.484,398.686 377.669,398.719     377.85,398.756 378.027,398.794 378.201,398.835 378.373,398.878 378.541,398.924 378.706,398.971 378.869,399.019     379.029,399.07 379.187,399.122 379.342,399.175 379.496,399.23 379.647,399.286 379.797,399.343 380.092,399.459     380.382,399.578 381.79,400.18 382.073,400.295 382.215,400.351 382.358,400.406 382.502,400.46 382.647,400.512 382.794,400.562     382.942,400.611 383.092,400.658 383.243,400.704 383.397,400.747 383.552,400.788 383.71,400.827 383.789,400.845     383.87,400.863 383.951,400.881 384.032,400.897 384.114,400.913 384.197,400.929 384.281,400.943 384.365,400.957 384.45,400.97     384.536,400.983 384.623,400.995 384.71,401.006 384.798,401.016 384.888,401.025 384.977,401.034 385.068,401.042     385.16,401.049 385.252,401.055 385.346,401.06 385.44,401.064 385.536,401.068 385.632,401.07 385.729,401.072 385.828,401.072     385.927,401.072 386.028,401.071 386.13,401.068 386.232,401.064 386.333,401.058 386.434,401.052 386.534,401.043     386.633,401.034 386.732,401.023 386.831,401.011 386.929,400.997 387.026,400.983 387.123,400.967 387.219,400.949     387.315,400.931 387.41,400.911 387.504,400.89 387.599,400.867 387.692,400.844 387.785,400.819 387.878,400.793 387.97,400.766     388.062,400.737 388.153,400.708 388.243,400.677 388.333,400.645 388.423,400.612 388.512,400.578 388.601,400.543     388.689,400.507 388.777,400.469 388.864,400.431 388.951,400.391 389.037,400.35 389.123,400.309 389.208,400.266     389.293,400.222 389.378,400.177 389.462,400.132 389.546,400.085 389.629,400.037 389.712,399.988 389.795,399.939     389.877,399.888 389.958,399.837 390.04,399.784 390.121,399.731 390.201,399.676 390.281,399.621 390.361,399.565     390.44,399.508 390.519,399.45 390.598,399.391 390.676,399.332 390.754,399.271 390.831,399.21 390.985,399.085 391.138,398.957     391.289,398.826 391.439,398.692 391.587,398.555 391.735,398.415 391.881,398.273 392.026,398.128 392.169,397.98     392.312,397.83 392.454,397.678 392.594,397.523 392.734,397.366 392.873,397.207 393.01,397.046 393.283,396.718     393.552,396.383 393.819,396.042 394.082,395.695 394.344,395.343 394.859,394.627 395.873,393.167 396.158,392.743     396.433,392.32 396.697,391.899 396.95,391.482 397.194,391.069 397.427,390.66 397.651,390.256 397.865,389.858 398.068,389.467     398.263,389.084 398.447,388.708 398.623,388.342 398.789,387.985 398.946,387.639 399.093,387.303 399.232,386.98     399.362,386.669 399.483,386.372 399.7,385.82 399.883,385.33 400.033,384.908 400.151,384.56 400.324,384.019 400.212,383.973     400.09,383.92 400.014,383.886 399.928,383.847 399.834,383.803 399.73,383.753 399.618,383.698 399.498,383.637 399.371,383.57     399.236,383.498 399.094,383.421 398.946,383.337 398.792,383.248 398.632,383.152 398.466,383.051 398.296,382.943     398.121,382.829 397.942,382.709 397.759,382.583 397.573,382.45 397.383,382.311 397.191,382.165 396.997,382.012 396.8,381.853     396.603,381.687 396.404,381.514 396.304,381.425 396.204,381.334 396.104,381.242 396.004,381.147 395.904,381.051     395.804,380.953 395.704,380.854 395.604,380.752 395.504,380.649 395.405,380.544 395.306,380.437 395.207,380.328     395.109,380.217 395.011,380.105 394.914,379.991 394.817,379.874 394.72,379.756 394.625,379.636 394.53,379.514 394.435,379.39     394.342,379.265 394.249,379.137 394.157,379.007 394.066,378.876 393.976,378.742 393.887,378.606 393.799,378.469     393.712,378.329 393.627,378.188 393.542,378.044 393.459,377.899 393.377,377.751 393.296,377.602 393.217,377.45     393.139,377.296 393.063,377.14 392.988,376.983 392.915,376.823 392.843,376.661 392.773,376.496 392.705,376.33     392.639,376.162 392.574,375.991 392.512,375.819 392.451,375.644 392.392,375.467 392.335,375.288 392.28,375.106     392.228,374.923 392.177,374.737 392.129,374.549 392.083,374.359 392.039,374.167 391.997,373.972 391.958,373.775     391.922,373.576 391.888,373.375 391.856,373.171 391.827,372.965 391.801,372.757 391.777,372.546 391.756,372.334     391.738,372.118 391.722,371.901 391.71,371.681 391.7,371.459 391.694,371.234 391.69,371.008   "/>
	</g>
	<g id="POLYLINE_107_">
		
			<polygon fill="none" stroke="#00B9D2" stroke-width="2.25" stroke-linecap="round" stroke-linejoin="round" stroke-miterlimit="10" points="    374.058,351.661 374.142,351.667 374.227,351.672 374.312,351.676 374.396,351.68 374.481,351.683 374.565,351.684     374.65,351.685 374.735,351.685 374.819,351.685 374.904,351.683 374.989,351.681 375.073,351.678 375.158,351.674     375.242,351.669 375.327,351.663 375.411,351.657 375.496,351.65 375.58,351.641 375.664,351.633 375.749,351.623     375.833,351.613 375.917,351.602 376.001,351.59 376.085,351.577 376.169,351.564 376.253,351.55 376.42,351.519 376.587,351.486     376.754,351.449 376.92,351.41 377.086,351.368 377.251,351.323 377.416,351.276 377.58,351.226 377.744,351.173 377.907,351.117     378.069,351.059 378.23,350.999 378.391,350.936 378.551,350.87 378.71,350.802 378.868,350.732 379.025,350.66 379.182,350.585     379.337,350.508 379.492,350.429 379.645,350.347 379.797,350.264 379.949,350.178 380.099,350.091 380.248,350.001     380.395,349.909 380.542,349.816 380.687,349.721 380.831,349.624 380.974,349.525 381.115,349.424 381.255,349.322     381.393,349.218 381.53,349.112 381.665,349.005 381.799,348.896 381.931,348.786 382.062,348.674 382.19,348.561     382.318,348.447 382.443,348.331 382.567,348.214 382.689,348.095 382.809,347.976 382.927,347.855 383.043,347.733     383.158,347.61 383.27,347.486 383.381,347.361 383.489,347.235 383.595,347.109 383.7,346.98 383.804,346.85 383.906,346.719     384.008,346.586 384.108,346.452 384.207,346.316 384.305,346.179 384.401,346.041 384.496,345.901 384.59,345.76     384.683,345.617 384.774,345.474 384.863,345.329 384.952,345.182 385.039,345.035 385.124,344.886 385.208,344.737     385.29,344.586 385.371,344.434 385.45,344.28 385.528,344.126 385.604,343.971 385.678,343.815 385.75,343.657 385.821,343.499     385.89,343.34 385.957,343.18 386.023,343.019 386.087,342.857 386.148,342.694 386.208,342.531 386.266,342.367 386.322,342.202     386.376,342.036 386.428,341.869 386.478,341.702 386.526,341.534 386.572,341.366 386.615,341.197 386.657,341.027     386.696,340.856 386.733,340.686 386.768,340.514 386.801,340.342 386.831,340.17 386.86,339.997 386.885,339.824 386.909,339.65     386.93,339.476 386.948,339.302 386.965,339.127 386.978,338.952 386.989,338.777 386.998,338.601 387.004,338.426     387.008,338.25 387.009,338.073 387.007,337.897 387.002,337.721 386.995,337.544 386.985,337.368 386.973,337.191     386.958,337.014 386.939,336.838 386.863,336.841 386.787,336.845 386.634,336.855 386.48,336.868 386.325,336.884     386.17,336.902 386.013,336.923 385.856,336.947 385.699,336.973 385.541,337.002 385.382,337.033 385.223,337.067     385.063,337.103 384.903,337.141 384.743,337.182 384.582,337.226 384.421,337.272 384.26,337.32 384.099,337.37 383.938,337.423     383.777,337.478 383.616,337.536 383.455,337.595 383.294,337.657 383.133,337.72 382.973,337.786 382.812,337.854     382.653,337.924 382.493,337.996 382.334,338.07 382.176,338.147 382.018,338.225 381.861,338.304 381.704,338.386     381.549,338.47 381.394,338.556 381.239,338.643 381.086,338.732 380.934,338.823 380.782,338.916 380.632,339.01     380.482,339.106 380.334,339.204 380.187,339.303 380.041,339.404 379.897,339.506 379.754,339.61 379.612,339.716     379.472,339.823 379.333,339.931 379.196,340.041 379.06,340.152 378.926,340.265 378.794,340.379 378.663,340.494     378.535,340.611 378.408,340.729 378.283,340.848 378.16,340.968 378.039,341.09 377.92,341.212 377.804,341.336 377.689,341.461     377.577,341.587 377.467,341.714 377.273,341.943 377.176,342.061 377.08,342.181 376.985,342.303 376.89,342.427     376.796,342.552 376.703,342.68 376.61,342.809 376.519,342.94 376.428,343.073 376.338,343.208 376.249,343.344 376.16,343.482     376.073,343.622 375.987,343.763 375.903,343.905 375.819,344.049 375.736,344.195 375.655,344.342 375.575,344.491     375.497,344.64 375.42,344.791 375.344,344.944 375.27,345.097 375.197,345.252 375.126,345.408 375.057,345.565 374.989,345.723     374.924,345.882 374.859,346.043 374.797,346.204 374.737,346.366 374.678,346.529 374.622,346.693 374.567,346.858     374.515,347.023 374.465,347.19 374.417,347.357 374.371,347.524 374.327,347.693 374.286,347.862 374.247,348.031     374.211,348.201 374.177,348.372 374.145,348.543 374.116,348.715 374.09,348.887 374.066,349.059 374.045,349.231     374.026,349.404 374.011,349.577 373.998,349.751 373.988,349.924 373.981,350.098 373.977,350.272 373.976,350.358     373.976,350.445 373.977,350.532 373.978,350.619 373.98,350.706 373.983,350.793 373.987,350.88 373.992,350.967     373.997,351.054 374.003,351.14 374.01,351.227 374.018,351.314 374.027,351.401 374.036,351.487 374.047,351.574   "/>
	</g>
</g>
<g id="AG-DIGITAL">
	<g id="POLYLINE_47_">
		
			<polygon fill="none" stroke="#00B9D2" stroke-width="2.75" stroke-linecap="round" stroke-linejoin="round" stroke-miterlimit="10" points="    115.158,564.37 114.976,564.369 114.792,564.366 114.608,564.361 114.424,564.353 114.238,564.344 114.052,564.333     113.865,564.319 113.678,564.303 113.49,564.285 113.301,564.265 113.112,564.242 112.923,564.217 112.733,564.19     112.542,564.161 112.352,564.129 112.161,564.095 111.969,564.058 111.778,564.019 111.586,563.978 111.394,563.934     111.202,563.888 111.01,563.839 110.818,563.788 110.625,563.734 110.433,563.678 110.241,563.619 110.05,563.558     109.858,563.494 109.667,563.427 109.476,563.359 109.285,563.287 109.095,563.213 108.905,563.137 108.715,563.058     108.527,562.976 108.338,562.892 108.151,562.805 107.964,562.716 107.778,562.624 107.592,562.529 107.408,562.433     107.224,562.333 107.042,562.231 106.86,562.127 106.679,562.02 106.5,561.911 106.321,561.799 106.144,561.685 105.968,561.568     105.794,561.449 105.62,561.328 105.448,561.204 105.278,561.078 105.109,560.949 104.941,560.819 104.775,560.686     104.611,560.551 104.449,560.413 104.288,560.274 104.129,560.132 103.971,559.988 103.816,559.843 103.662,559.695     103.51,559.545 103.36,559.393 103.213,559.24 103.067,559.084 102.923,558.927 102.782,558.768 102.642,558.607 102.505,558.444     102.37,558.28 102.237,558.114 102.106,557.946 101.978,557.778 101.852,557.607 101.728,557.435 101.606,557.262     101.487,557.087 101.371,556.911 101.256,556.734 101.145,556.556 101.035,556.376 100.928,556.195 100.824,556.014     100.722,555.831 100.623,555.648 100.526,555.463 100.431,555.278 100.34,555.092 100.25,554.905 100.164,554.717     100.079,554.529 99.998,554.34 99.919,554.151 99.842,553.961 99.768,553.77 99.697,553.58 99.628,553.389 99.562,553.197     99.498,553.006 99.436,552.814 99.378,552.622 99.321,552.43 99.268,552.238 99.216,552.046 99.168,551.853 99.121,551.661     99.078,551.469 99.036,551.278 98.997,551.086 98.961,550.895 98.926,550.704 98.895,550.513 98.865,550.323 98.838,550.133     98.813,549.943 98.791,549.754 98.77,549.565 98.752,549.378 98.736,549.19 98.723,549.003 98.711,548.817 98.702,548.632     98.695,548.447 98.69,548.263 98.687,548.08 98.686,547.897 98.686,201.151 98.687,200.969 98.69,200.785 98.695,200.601     98.702,200.417 98.711,200.231 98.723,200.045 98.736,199.858 98.752,199.671 98.77,199.483 98.791,199.294 98.813,199.105     98.838,198.916 98.865,198.726 98.895,198.535 98.926,198.345 98.961,198.154 98.997,197.962 99.036,197.771 99.078,197.579     99.121,197.387 99.168,197.195 99.216,197.003 99.268,196.811 99.321,196.619 99.378,196.426 99.436,196.234 99.498,196.043     99.562,195.851 99.628,195.66 99.697,195.469 99.768,195.278 99.842,195.088 99.919,194.898 99.998,194.708 100.079,194.52     100.164,194.331 100.25,194.144 100.34,193.957 100.431,193.771 100.526,193.585 100.623,193.401 100.722,193.217     100.824,193.035 100.928,192.853 101.035,192.672 101.145,192.493 101.256,192.314 101.371,192.137 101.487,191.961     101.606,191.787 101.728,191.613 101.852,191.441 101.978,191.271 102.106,191.102 102.237,190.934 102.37,190.769     102.505,190.604 102.642,190.442 102.782,190.281 102.923,190.122 103.067,189.964 103.213,189.809 103.36,189.655     103.51,189.503 103.662,189.354 103.816,189.206 103.971,189.06 104.129,188.916 104.288,188.775 104.449,188.635     104.611,188.498 104.775,188.363 104.941,188.23 105.109,188.099 105.278,187.971 105.448,187.845 105.62,187.721     105.794,187.599 105.968,187.48 106.144,187.364 106.321,187.25 106.5,187.138 106.679,187.028 106.86,186.922 107.042,186.817     107.224,186.715 107.408,186.616 107.592,186.519 107.778,186.425 107.964,186.333 108.151,186.243 108.338,186.157     108.527,186.073 108.715,185.991 108.905,185.912 109.095,185.835 109.285,185.761 109.476,185.69 109.667,185.621     109.858,185.555 110.05,185.491 110.241,185.43 110.433,185.371 110.625,185.315 110.818,185.261 111.01,185.21 111.202,185.161     111.394,185.115 111.586,185.071 111.778,185.029 111.969,184.99 112.161,184.954 112.352,184.92 112.542,184.888     112.733,184.858 112.923,184.831 113.112,184.806 113.301,184.784 113.49,184.763 113.678,184.745 113.865,184.729     114.052,184.716 114.238,184.704 114.424,184.695 114.608,184.688 114.792,184.683 114.976,184.68 115.158,184.679     634.842,184.679 635.024,184.68 635.208,184.683 635.392,184.688 635.576,184.695 635.762,184.704 635.948,184.716     636.135,184.729 636.322,184.745 636.51,184.763 636.699,184.784 636.888,184.806 637.077,184.831 637.267,184.858     637.458,184.888 637.648,184.92 637.839,184.954 638.031,184.99 638.222,185.029 638.414,185.071 638.606,185.115     638.798,185.161 638.99,185.21 639.182,185.261 639.375,185.315 639.567,185.371 639.759,185.43 639.95,185.491 640.142,185.555     640.333,185.621 640.524,185.69 640.715,185.761 640.905,185.835 641.095,185.912 641.285,185.991 641.474,186.073     641.662,186.157 641.849,186.243 642.036,186.333 642.222,186.425 642.408,186.519 642.592,186.616 642.776,186.715     642.958,186.817 643.14,186.922 643.321,187.028 643.5,187.138 643.679,187.25 643.856,187.364 644.032,187.48 644.206,187.599     644.38,187.721 644.552,187.845 644.722,187.971 644.891,188.099 645.059,188.23 645.225,188.363 645.389,188.498     645.551,188.635 645.712,188.775 645.871,188.916 646.029,189.06 646.184,189.206 646.338,189.354 646.49,189.503 646.64,189.655     646.787,189.809 646.933,189.964 647.077,190.122 647.218,190.281 647.358,190.442 647.495,190.604 647.63,190.769     647.763,190.934 647.894,191.102 648.022,191.271 648.148,191.441 648.272,191.613 648.394,191.787 648.513,191.961     648.629,192.137 648.744,192.314 648.855,192.493 648.965,192.672 649.072,192.853 649.176,193.035 649.278,193.217     649.377,193.401 649.474,193.585 649.569,193.771 649.66,193.957 649.75,194.144 649.836,194.331 649.921,194.52 650.002,194.708     650.081,194.898 650.158,195.088 650.232,195.278 650.303,195.469 650.372,195.66 650.438,195.851 650.502,196.043     650.564,196.234 650.622,196.426 650.679,196.619 650.732,196.811 650.784,197.003 650.832,197.195 650.879,197.387     650.922,197.579 650.964,197.771 651.003,197.962 651.039,198.154 651.074,198.345 651.105,198.535 651.135,198.726     651.162,198.916 651.187,199.105 651.209,199.294 651.23,199.483 651.248,199.671 651.264,199.858 651.277,200.045     651.289,200.231 651.298,200.417 651.305,200.601 651.31,200.785 651.313,200.969 651.314,201.151 651.314,547.897     651.313,548.08 651.31,548.263 651.305,548.447 651.298,548.632 651.289,548.817 651.277,549.003 651.264,549.19 651.248,549.378     651.23,549.565 651.209,549.754 651.187,549.943 651.162,550.133 651.135,550.323 651.105,550.513 651.074,550.704     651.039,550.895 651.003,551.086 650.964,551.278 650.922,551.469 650.879,551.661 650.832,551.853 650.784,552.046     650.732,552.238 650.679,552.43 650.622,552.622 650.564,552.814 650.502,553.006 650.438,553.197 650.372,553.389     650.303,553.58 650.232,553.77 650.158,553.961 650.081,554.151 650.002,554.34 649.921,554.529 649.836,554.717 649.75,554.905     649.66,555.092 649.569,555.278 649.474,555.463 649.377,555.648 649.278,555.831 649.176,556.014 649.072,556.195     648.965,556.376 648.855,556.556 648.744,556.734 648.629,556.911 648.513,557.087 648.394,557.262 648.272,557.435     648.148,557.607 648.022,557.778 647.894,557.946 647.763,558.114 647.63,558.28 647.495,558.444 647.358,558.607     647.218,558.768 647.077,558.927 646.933,559.084 646.787,559.24 646.64,559.393 646.49,559.545 646.338,559.695 646.184,559.843     646.029,559.988 645.871,560.132 645.712,560.274 645.551,560.413 645.389,560.551 645.225,560.686 645.059,560.819     644.891,560.949 644.722,561.078 644.552,561.204 644.38,561.328 644.206,561.449 644.032,561.568 643.856,561.685     643.679,561.799 643.5,561.911 643.321,562.02 643.14,562.127 642.958,562.231 642.776,562.333 642.592,562.433 642.408,562.529     642.222,562.624 642.036,562.716 641.849,562.805 641.662,562.892 641.474,562.976 641.285,563.058 641.095,563.137     640.905,563.213 640.715,563.287 640.524,563.359 640.333,563.427 640.142,563.494 639.95,563.558 639.759,563.619     639.567,563.678 639.375,563.734 639.182,563.788 638.99,563.839 638.798,563.888 638.606,563.934 638.414,563.978     638.222,564.019 638.031,564.058 637.839,564.095 637.648,564.129 637.458,564.161 637.267,564.19 637.077,564.217     636.888,564.242 636.699,564.265 636.51,564.285 636.322,564.303 636.135,564.319 635.948,564.333 635.762,564.344     635.576,564.353 635.392,564.361 635.208,564.366 635.024,564.369 634.842,564.37   "/>
	</g>
</g>
<g id="AG-OUTLINE">
	<g id="POLYLINE_6_">
		
			<polygon fill="none" stroke="#00B9D2" stroke-width="3.5" stroke-linecap="round" stroke-linejoin="round" stroke-miterlimit="10" points="    115.158,564.37 114.976,564.369 114.792,564.366 114.608,564.361 114.424,564.353 114.238,564.344 114.052,564.333     113.865,564.319 113.678,564.303 113.49,564.285 113.301,564.265 113.112,564.242 112.923,564.217 112.733,564.19     112.542,564.161 112.352,564.129 112.161,564.095 111.969,564.058 111.778,564.019 111.586,563.978 111.394,563.934     111.202,563.888 111.01,563.839 110.818,563.788 110.625,563.734 110.433,563.678 110.241,563.619 110.05,563.558     109.858,563.494 109.667,563.427 109.476,563.359 109.285,563.287 109.095,563.213 108.905,563.137 108.715,563.058     108.527,562.976 108.338,562.892 108.151,562.805 107.964,562.716 107.778,562.624 107.592,562.529 107.408,562.433     107.224,562.333 107.042,562.231 106.86,562.127 106.679,562.02 106.5,561.911 106.321,561.799 106.144,561.685 105.968,561.568     105.794,561.449 105.62,561.328 105.448,561.204 105.278,561.078 105.109,560.949 104.941,560.819 104.775,560.686     104.611,560.551 104.449,560.413 104.288,560.274 104.129,560.132 103.971,559.988 103.816,559.843 103.662,559.695     103.51,559.545 103.36,559.393 103.213,559.24 103.067,559.084 102.923,558.927 102.782,558.768 102.642,558.607 102.505,558.444     102.37,558.28 102.237,558.114 102.106,557.946 101.978,557.778 101.852,557.607 101.728,557.435 101.606,557.262     101.487,557.087 101.371,556.911 101.256,556.734 101.145,556.556 101.035,556.376 100.928,556.195 100.824,556.014     100.722,555.831 100.623,555.648 100.526,555.463 100.431,555.278 100.34,555.092 100.25,554.905 100.164,554.717     100.079,554.529 99.998,554.34 99.919,554.151 99.842,553.961 99.768,553.77 99.697,553.58 99.628,553.389 99.562,553.197     99.498,553.006 99.436,552.814 99.378,552.622 99.321,552.43 99.268,552.238 99.216,552.046 99.168,551.853 99.121,551.661     99.078,551.469 99.036,551.278 98.997,551.086 98.961,550.895 98.926,550.704 98.895,550.513 98.865,550.323 98.838,550.133     98.813,549.943 98.791,549.754 98.77,549.565 98.752,549.378 98.736,549.19 98.723,549.003 98.711,548.817 98.702,548.632     98.695,548.447 98.69,548.263 98.687,548.08 98.686,547.897 98.686,201.151 98.687,200.969 98.69,200.785 98.695,200.601     98.702,200.417 98.711,200.231 98.723,200.045 98.736,199.858 98.752,199.671 98.77,199.483 98.791,199.294 98.813,199.105     98.838,198.916 98.865,198.726 98.895,198.535 98.926,198.345 98.961,198.154 98.997,197.962 99.036,197.771 99.078,197.579     99.121,197.387 99.168,197.195 99.216,197.003 99.268,196.811 99.321,196.619 99.378,196.426 99.436,196.234 99.498,196.043     99.562,195.851 99.628,195.66 99.697,195.469 99.768,195.278 99.842,195.088 99.919,194.898 99.998,194.708 100.079,194.52     100.164,194.331 100.25,194.144 100.34,193.957 100.431,193.771 100.526,193.585 100.623,193.401 100.722,193.217     100.824,193.035 100.928,192.853 101.035,192.672 101.145,192.493 101.256,192.314 101.371,192.137 101.487,191.961     101.606,191.787 101.728,191.613 101.852,191.441 101.978,191.271 102.106,191.102 102.237,190.934 102.37,190.769     102.505,190.604 102.642,190.442 102.782,190.281 102.923,190.122 103.067,189.964 103.213,189.809 103.36,189.655     103.51,189.503 103.662,189.354 103.816,189.206 103.971,189.06 104.129,188.916 104.288,188.775 104.449,188.635     104.611,188.498 104.775,188.363 104.941,188.23 105.109,188.099 105.278,187.971 105.448,187.845 105.62,187.721     105.794,187.599 105.968,187.48 106.144,187.364 106.321,187.25 106.5,187.138 106.679,187.028 106.86,186.922 107.042,186.817     107.224,186.715 107.408,186.616 107.592,186.519 107.778,186.425 107.964,186.333 108.151,186.243 108.338,186.157     108.527,186.073 108.715,185.991 108.905,185.912 109.095,185.835 109.285,185.761 109.476,185.69 109.667,185.621     109.858,185.555 110.05,185.491 110.241,185.43 110.433,185.371 110.625,185.315 110.818,185.261 111.01,185.21 111.202,185.161     111.394,185.115 111.586,185.071 111.778,185.029 111.969,184.99 112.161,184.954 112.352,184.92 112.542,184.888     112.733,184.858 112.923,184.831 113.112,184.806 113.301,184.784 113.49,184.763 113.678,184.745 113.865,184.729     114.052,184.716 114.238,184.704 114.424,184.695 114.608,184.688 114.792,184.683 114.976,184.68 115.158,184.679     634.842,184.679 635.024,184.68 635.208,184.683 635.392,184.688 635.576,184.695 635.762,184.704 635.948,184.716     636.135,184.729 636.322,184.745 636.51,184.763 636.699,184.784 636.888,184.806 637.077,184.831 637.267,184.858     637.458,184.888 637.648,184.92 637.839,184.954 638.031,184.99 638.222,185.029 638.414,185.071 638.606,185.115     638.798,185.161 638.99,185.21 639.182,185.261 639.375,185.315 639.567,185.371 639.759,185.43 639.95,185.491 640.142,185.555     640.333,185.621 640.524,185.69 640.715,185.761 640.905,185.835 641.095,185.912 641.285,185.991 641.474,186.073     641.662,186.157 641.849,186.243 642.036,186.333 642.222,186.425 642.408,186.519 642.592,186.616 642.776,186.715     642.958,186.817 643.14,186.922 643.321,187.028 643.5,187.138 643.679,187.25 643.856,187.364 644.032,187.48 644.206,187.599     644.38,187.721 644.552,187.845 644.722,187.971 644.891,188.099 645.059,188.23 645.225,188.363 645.389,188.498     645.551,188.635 645.712,188.775 645.871,188.916 646.029,189.06 646.184,189.206 646.338,189.354 646.49,189.503 646.64,189.655     646.787,189.809 646.933,189.964 647.077,190.122 647.218,190.281 647.358,190.442 647.495,190.604 647.63,190.769     647.763,190.934 647.894,191.102 648.022,191.271 648.148,191.441 648.272,191.613 648.394,191.787 648.513,191.961     648.629,192.137 648.744,192.314 648.855,192.493 648.965,192.672 649.072,192.853 649.176,193.035 649.278,193.217     649.377,193.401 649.474,193.585 649.569,193.771 649.66,193.957 649.75,194.144 649.836,194.331 649.921,194.52 650.002,194.708     650.081,194.898 650.158,195.088 650.232,195.278 650.303,195.469 650.372,195.66 650.438,195.851 650.502,196.043     650.564,196.234 650.622,196.426 650.679,196.619 650.732,196.811 650.784,197.003 650.832,197.195 650.879,197.387     650.922,197.579 650.964,197.771 651.003,197.962 651.039,198.154 651.074,198.345 651.105,198.535 651.135,198.726     651.162,198.916 651.187,199.105 651.209,199.294 651.23,199.483 651.248,199.671 651.264,199.858 651.277,200.045     651.289,200.231 651.298,200.417 651.305,200.601 651.31,200.785 651.313,200.969 651.314,201.151 651.314,547.897     651.313,548.08 651.31,548.263 651.305,548.447 651.298,548.632 651.289,548.817 651.277,549.003 651.264,549.19 651.248,549.378     651.23,549.565 651.209,549.754 651.187,549.943 651.162,550.133 651.135,550.323 651.105,550.513 651.074,550.704     651.039,550.895 651.003,551.086 650.964,551.278 650.922,551.469 650.879,551.661 650.832,551.853 650.784,552.046     650.732,552.238 650.679,552.43 650.622,552.622 650.564,552.814 650.502,553.006 650.438,553.197 650.372,553.389     650.303,553.58 650.232,553.77 650.158,553.961 650.081,554.151 650.002,554.34 649.921,554.529 649.836,554.717 649.75,554.905     649.66,555.092 649.569,555.278 649.474,555.463 649.377,555.648 649.278,555.831 649.176,556.014 649.072,556.195     648.965,556.376 648.855,556.556 648.744,556.734 648.629,556.911 648.513,557.087 648.394,557.262 648.272,557.435     648.148,557.607 648.022,557.778 647.894,557.946 647.763,558.114 647.63,558.28 647.495,558.444 647.358,558.607     647.218,558.768 647.077,558.927 646.933,559.084 646.787,559.24 646.64,559.393 646.49,559.545 646.338,559.695 646.184,559.843     646.029,559.988 645.871,560.132 645.712,560.274 645.551,560.413 645.389,560.551 645.225,560.686 645.059,560.819     644.891,560.949 644.722,561.078 644.552,561.204 644.38,561.328 644.206,561.449 644.032,561.568 643.856,561.685     643.679,561.799 643.5,561.911 643.321,562.02 643.14,562.127 642.958,562.231 642.776,562.333 642.592,562.433 642.408,562.529     642.222,562.624 642.036,562.716 641.849,562.805 641.662,562.892 641.474,562.976 641.285,563.058 641.095,563.137     640.905,563.213 640.715,563.287 640.524,563.359 640.333,563.427 640.142,563.494 639.95,563.558 639.759,563.619     639.567,563.678 639.375,563.734 639.182,563.788 638.99,563.839 638.798,563.888 638.606,563.934 638.414,563.978     638.222,564.019 638.031,564.058 637.839,564.095 637.648,564.129 637.458,564.161 637.267,564.19 637.077,564.217     636.888,564.242 636.699,564.265 636.51,564.285 636.322,564.303 636.135,564.319 635.948,564.333 635.762,564.344     635.576,564.353 635.392,564.361 635.208,564.366 635.024,564.369 634.842,564.37   "/>
	</g>
</g>
</svg>