<?xml version="1.0" encoding="UTF-8"?>
<!-- Generated by Pixelmator Pro 3.8 -->
<svg width="750" height="750" viewBox="79 229 598 313" xmlns="http://www.w3.org/2000/svg">
    <g id="AG-DIAGRAM">
        <g id="POLYLINE197">
            <g id="Group">
                <g id="g1">
                    <path id="path1" fill="none" stroke="#00b9d2" stroke-width="3.25" stroke-linecap="round" stroke-linejoin="round" visibility="hidden" d="M 92.839996 527.653015 L 94.839996 527.653015"/>
                    <path id="path2" fill="none" stroke="#00b9d2" stroke-width="3.25" stroke-linecap="round" stroke-linejoin="round" stroke-dasharray="3.9862 6.9758" stroke-dashoffset="0" visibility="hidden" d="M 101.816002 527.653015 L 657.390015 527.653015"/>
                    <path id="path3" fill="none" stroke="#00b9d2" stroke-width="3.25" stroke-linecap="round" stroke-linejoin="round" visibility="hidden" d="M 660.877991 527.653015 L 662.877991 527.653015"/>
                </g>
            </g>
        </g>
    </g>
    <g id="AG-DETAILS">
        <g id="POLYLINE203">
            <path id="path4" fill="none" stroke="#00b9d2" stroke-width="1.75" stroke-linecap="round" stroke-linejoin="round" d="M 153.673004 403.703003 L 153.673004 507.88501"/>
        </g>
        <g id="POLYLINE204">
            <path id="path5" fill="none" stroke="#00b9d2" stroke-width="1.75" stroke-linecap="round" stroke-linejoin="round" d="M 198.069 289.983002 C 197.179993 289.967987 196.830002 289.237 196.817001 288.459991 C 196.789993 286.799988 196.817001 285.135986 196.817001 283.476013 C 196.817001 282.674988 196.664001 281.675995 197.565002 281.279999 C 197.860992 281.149994 198.177002 281.174011 198.492004 281.174011 C 199.264999 281.174011 200.037994 281.174011 200.811996 281.174011 C 202.365997 281.174011 203.949005 281.084015 205.501007 281.174011 C 206.278 281.218994 206.772995 281.678009 206.832001 282.463989 C 206.947006 283.972992 206.832001 285.53299 206.832001 287.04599 C 206.832001 287.854004 207.095001 289.144989 206.343994 289.722992 C 206.039993 289.957001 205.709 289.97699 205.345001 289.983002 C 204.537003 289.997009 203.727997 289.983002 202.919998 289.983002 C 201.302002 289.983002 199.684998 289.983002 198.069 289.983002 Z"/>
        </g>
        <g id="POLYLINE205">
            <path id="path6" fill="none" stroke="#00b9d2" stroke-width="1.75" stroke-linecap="round" stroke-linejoin="round" d="M 175.039993 287.487 C 175.039993 286.885986 174.766998 285.209015 175.223999 284.993988 C 175.472 284.877014 176.093002 284.993988 176.363007 284.993988 C 176.981003 284.993988 177.598999 284.993988 178.216995 284.993988 C 181.494995 284.993988 184.774002 284.993988 188.052002 284.993988 C 188.619003 284.993988 189.186996 284.993988 189.753998 284.993988 C 189.897995 284.993988 190.440002 284.903992 190.554001 284.993988 C 190.722 285.127014 190.710007 287.354004 190.542007 287.487 C 190.423996 287.580994 189.794006 287.487 189.654999 287.487 C 189.095001 287.487 188.535004 287.487 187.975006 287.487 C 186.354996 287.487 184.735992 287.487 183.115997 287.487 C 180.425003 287.487 177.731995 287.487 175.039993 287.487 Z"/>
        </g>
        <g id="POLYLINE207">
            <path id="path7" fill="none" stroke="#00b9d2" stroke-width="1.75" stroke-linecap="round" stroke-linejoin="round" d="M 168.751999 289.654999 C 168.751999 287.820007 168.751999 285.984009 168.751999 284.148987 C 168.751999 283.304993 168.516998 282.069 168.751999 281.253998 C 168.787994 281.127991 168.720993 281.046997 168.796005 280.981995 C 168.951004 280.847992 169.813995 280.981995 170.022003 280.981995 C 170.626007 280.981995 171.231003 280.981995 171.835007 280.981995 C 172.059006 280.981995 172.949005 280.839996 173.125 280.981995 C 173.330994 281.14801 173.195999 282.105011 173.195999 282.411987 C 173.195999 284.647003 173.195999 286.882996 173.195999 289.118011 C 173.195999 289.221008 173.25 289.587006 173.184998 289.654999 C 173.065994 289.778992 172.082993 289.654999 171.925995 289.654999 C 170.867996 289.654999 169.809998 289.654999 168.751999 289.654999 Z"/>
        </g>
        <g id="POLYLINE209">
            <path id="path8" fill="none" stroke="#00b9d2" stroke-width="1.75" stroke-linecap="round" stroke-linejoin="round" d="M 137.638 289.05899 C 137.638 287.821991 137.638 286.585999 137.638 285.348999 C 137.638 284.763 137.595993 284.830994 138.145004 284.830994 C 140.059998 284.830994 141.973999 284.830994 143.889008 284.830994 C 149.901001 284.830994 155.912003 284.830994 161.923996 284.830994 C 162.919006 284.830994 163.914993 284.830994 164.910004 284.830994 C 165.175995 284.830994 166.123993 284.666992 166.356003 284.830994 C 166.656998 285.042999 166.421005 286.891998 166.421005 287.338989 C 166.421005 287.589996 166.598007 288.829987 166.421005 289.010986 C 166.356003 289.076996 166.317993 289.01001 166.205002 289.058014 C 165.778 289.242004 164.856995 289.058014 164.399002 289.058014 C 163.317001 289.058014 162.233994 289.058014 161.151993 289.058014 C 158.177994 289.058014 155.203995 289.058014 152.229996 289.058014 C 147.365997 289.05899 142.501999 289.05899 137.638 289.05899 Z"/>
        </g>
        <g id="POLYLINE210">
            <path id="path9" fill="none" stroke="#00b9d2" stroke-width="1.75" stroke-linecap="round" stroke-linejoin="round" d="M 123.021004 289.768005 C 122.209999 289.753998 121.657997 289.135986 121.593002 288.358002 C 121.482002 287.036987 121.592003 285.660004 121.592003 284.334015 C 121.592003 283.572998 121.375 282.40799 121.797997 281.709015 C 122.273003 280.924988 123.125 281.019989 123.916 281.019012 C 125.321999 281.019012 126.746002 280.950989 128.151001 281.019012 C 128.906998 281.054993 129.546997 281.451996 129.673996 282.251007 C 129.852997 283.384003 129.686996 284.660004 129.688004 285.803986 C 129.688004 286.705994 129.914001 287.933014 129.606995 288.809998 C 129.259003 289.804993 128.296005 289.766998 127.429001 289.766998 C 125.959999 289.768005 124.489998 289.768005 123.021004 289.768005 Z"/>
        </g>
        <g id="POLYLINE212">
            <path id="path10" fill="none" stroke="#00b9d2" stroke-width="1.75" stroke-linecap="round" stroke-linejoin="round" d="M 133.917007 278.251007 L 133.917007 292.544006"/>
        </g>
        <g id="POLYLINE213">
            <path id="path11" fill="none" stroke="#00b9d2" stroke-width="1.75" stroke-linecap="round" stroke-linejoin="round" d="M 121.287003 292.544006 C 117.528999 292.511993 118.439003 287.475006 118.439003 285.105988 C 118.439003 282.701996 117.692001 278.436005 121.241997 278.252014 C 125.587997 278.027008 130.005997 278.252014 134.356003 278.252014 C 143.904007 278.252014 153.451996 278.252014 163 278.252014 C 172.768997 278.252014 182.539001 278.252014 192.307999 278.252014 C 197.438995 278.252014 202.576996 278.175995 207.707001 278.252014 C 208.451996 278.263 209.145996 278.415009 209.738998 278.903992 C 210.802002 279.782013 210.772995 280.989014 210.772995 282.239014 C 210.772995 284.506012 210.772995 286.773987 210.772995 289.040985 C 210.772995 290.221008 210.593002 291.315002 209.542999 292.040009 C 208.485992 292.769989 206.964005 292.544006 205.746994 292.544006 C 203.039001 292.544006 200.330994 292.544006 197.621994 292.544006 C 188.447006 292.544006 179.272995 292.544006 170.098007 292.544006 C 160.065994 292.544006 150.033005 292.544006 140.001007 292.544006 C 134.046997 292.544006 128.093002 292.544006 122.139 292.544006 C 121.856003 292.544006 121.570999 292.544006 121.287003 292.544006 Z"/>
        </g>
        <g id="POLYLINE214">
            <path id="path12" fill="none" stroke="#00b9d2" stroke-width="1.75" stroke-linecap="round" stroke-linejoin="round" d="M 115.903999 321.429993 L 213.309006 321.429993"/>
        </g>
        <g id="POLYLINE215">
            <path id="path13" fill="none" stroke="#00b9d2" stroke-width="1.75" stroke-linecap="round" stroke-linejoin="round" d="M 115.903999 311.73999 L 213.309006 311.73999"/>
        </g>
        <g id="POLYLINE216">
            <path id="path14" fill="none" stroke="#00b9d2" stroke-width="1.75" stroke-linecap="round" stroke-linejoin="round" d="M 115.903999 341.320007 L 213.309006 341.320007"/>
        </g>
        <g id="POLYLINE217">
            <path id="path15" fill="none" stroke="#00b9d2" stroke-width="1.75" stroke-linecap="round" stroke-linejoin="round" d="M 115.903999 351.009003 L 213.309006 351.009003"/>
        </g>
        <g id="POLYLINE218">
            <path id="path16" fill="none" stroke="#00b9d2" stroke-width="1.75" stroke-linecap="round" stroke-linejoin="round" d="M 157.934998 397.889008 C 156.434006 397.876007 155.470001 396.67099 155.425995 395.251007 C 155.350006 392.783997 155.363998 390.278992 155.425995 387.811005 C 155.460999 386.403015 156.345001 385.261993 157.804993 385.143005 C 159.811005 384.979004 161.895004 385.140015 163.906998 385.140015 C 166.315994 385.140015 168.733002 385.078003 171.141006 385.140015 C 172.492004 385.174988 173.632004 386.027008 173.776001 387.433014 C 174.016006 389.769989 173.785004 392.240997 173.785004 394.588013 C 173.785004 395.992004 173.492004 397.389008 171.919006 397.806 C 171.292007 397.971985 170.576004 397.889008 169.936996 397.889008 C 168.393005 397.889008 166.848999 397.889008 165.304993 397.889008 C 162.848007 397.889008 160.391998 397.889008 157.934998 397.889008 Z"/>
        </g>
        <g id="POLYLINE219">
            <path id="path17" fill="none" stroke="#00b9d2" stroke-width="1.75" stroke-linecap="round" stroke-linejoin="round" d="M 115.903999 378.815002 L 213.309006 378.815002"/>
        </g>
        <g id="POLYLINE220">
            <path id="path18" fill="none" stroke="#00b9d2" stroke-width="1.75" stroke-linecap="round" stroke-linejoin="round" d="M 115.903999 403.703003 L 213.309006 403.703003"/>
        </g>
    </g>
    <g id="AG-DIGITAL">
        <g id="POLYLINE198">
            <path id="path19" fill="none" stroke="#00b9d2" stroke-width="2.75" stroke-linecap="round" stroke-linejoin="round" d="M 489.394012 475.02301 L 489.394012 519.786987"/>
        </g>
        <g id="POLYLINE199">
            <path id="path20" fill="none" stroke="#00b9d2" stroke-width="2.75" stroke-linecap="round" stroke-linejoin="round" d="M 424.81601 475.02301 L 424.81601 519.786987"/>
        </g>
        <g id="POLYLINE200">
            <path id="path21" fill="none" stroke="#00b9d2" stroke-width="2.75" stroke-linecap="round" stroke-linejoin="round" d="M 457.105011 519.786987 C 453.776001 519.786987 450.447998 519.786987 447.118988 519.786987 C 439.951996 519.786987 432.783997 519.786987 425.617004 519.786987 C 418.710999 519.786987 411.804993 519.786987 404.89801 519.786987 C 401.737 519.786987 398.570007 519.734009 395.408997 519.810974 C 392.161987 519.890015 387.235992 519.723999 385.282013 522.880005 C 384.52301 524.106018 384.127991 526.13501 385.619995 526.992981 C 386.803009 527.672974 388.398987 527.648987 389.721985 527.653015 C 393.375 527.664001 397.028015 527.653015 400.681 527.653015 C 407.798004 527.653015 414.915985 527.653015 422.03299 527.653015 C 429.306 527.653015 436.579987 527.653015 443.852997 527.653015 C 448.078003 527.653015 452.303986 527.653015 456.528992 527.653015 C 458.539001 527.653015 460.549011 527.653015 462.559998 527.653015 C 468.808014 527.653015 475.054993 527.653015 481.303009 527.653015 C 488.884003 527.653015 496.466003 527.653015 504.046997 527.653015 C 509.760986 527.653015 515.474976 527.653015 521.189026 527.653015 C 523.379028 527.653015 526.911011 528.18103 528.776001 526.877014 C 530.112 525.942993 529.609985 523.958008 528.880981 522.807983 C 528.026001 521.460022 526.741028 520.838989 525.237 520.476013 C 521.997986 519.69397 518.588013 519.788025 515.276001 519.788025 C 510.024994 519.788025 504.77301 519.788025 499.522003 519.788025 C 491.946014 519.788025 484.371002 519.788025 476.795013 519.788025 C 471.097992 519.788025 465.402008 519.788025 459.704987 519.788025 C 458.838989 519.786987 457.971985 519.786987 457.105011 519.786987 Z"/>
        </g>
        <g id="POLYLINE201">
            <path id="path22" fill="none" stroke="#00b9d2" stroke-width="2.75" stroke-linecap="round" stroke-linejoin="round" d="M 275.570007 475.02301 C 273.01001 475.019989 270.569 473.700989 269.170013 471.557007 C 268.229004 470.115997 267.927002 468.511993 267.927002 466.824005 C 267.927002 464.975006 267.927002 463.126007 267.927002 461.276001 C 267.927002 457.691986 267.927002 454.108002 267.927002 450.52301 C 267.927002 445.510986 267.927002 440.498993 267.927002 435.488007 C 267.927002 429.355988 267.927002 423.223999 267.927002 417.09201 C 267.927002 410.115997 267.927002 403.140015 267.927002 396.164001 C 267.927002 388.713013 267.927002 381.260986 267.927002 373.809998 C 267.927002 366.161987 267.927002 358.514008 267.927002 350.865997 C 267.927002 343.32901 267.927002 335.791992 267.927002 328.255005 C 267.927002 321.135986 267.927002 314.018005 267.927002 306.898987 C 267.927002 300.506012 267.927002 294.114014 267.927002 287.721008 C 267.927002 282.362 267.927002 277.002014 267.927002 271.643005 C 267.927002 267.623993 267.927002 263.605011 267.927002 259.587006 C 267.927002 257.216003 267.927002 254.846008 267.927002 252.475006 C 267.927002 251.195007 267.881989 249.934021 268.264008 248.690002 C 269.014008 246.244019 270.997009 244.294983 273.454987 243.588013 C 274.477997 243.292999 275.501007 243.289001 276.549988 243.289001 C 278.040009 243.289001 279.529999 243.289001 281.019989 243.289001 C 283.630005 243.289001 286.23999 243.289001 288.850006 243.289001 C 292.447998 243.289001 296.04599 243.289001 299.644012 243.289001 C 304.128998 243.289001 308.61499 243.289001 313.100006 243.289001 C 318.364014 243.289001 323.627014 243.289001 328.890991 243.289001 C 334.824005 243.289001 340.756012 243.289001 346.688995 243.289001 C 353.181 243.289001 359.674011 243.289001 366.165985 243.289001 C 373.109009 243.289001 380.050995 243.289001 386.993988 243.289001 C 394.278015 243.289001 401.562012 243.289001 408.845001 243.289001 C 416.360992 243.289001 423.876007 243.289001 431.391998 243.289001 C 439.029999 243.289001 446.667999 243.289001 454.307007 243.289001 C 461.959015 243.289001 469.609985 243.289001 477.261993 243.289001 C 484.817993 243.289001 492.372986 243.289001 499.928986 243.289001 C 507.278992 243.289001 514.630005 243.289001 521.97998 243.289001 C 529.015991 243.289001 536.052002 243.289001 543.086975 243.289001 C 549.698975 243.289001 556.310974 243.289001 562.922974 243.289001 C 569.002014 243.289001 575.080994 243.289001 581.159973 243.289001 C 586.596985 243.289001 592.03302 243.289001 597.469971 243.289001 C 602.155029 243.289001 606.840027 243.289001 611.525024 243.289001 C 615.364014 243.289001 619.202026 243.289001 623.041016 243.289001 C 625.890015 243.289001 628.73999 243.289001 631.588989 243.289001 C 633.359009 243.289001 635.127991 243.289001 636.896973 243.289001 C 637.575989 243.289001 638.258972 243.266998 638.937988 243.294983 C 641.495972 243.401001 643.882996 244.807007 645.198975 247.005981 C 646.049988 248.429016 646.283997 249.973022 646.283997 251.596008 C 646.283997 253.518982 646.283997 255.442017 646.283997 257.36499 C 646.283997 261.010986 646.283997 264.657013 646.283997 268.303009 C 646.283997 273.364014 646.283997 278.425995 646.283997 283.487 C 646.283997 289.656006 646.283997 295.825989 646.283997 301.994995 C 646.283997 308.964996 646.283997 315.934998 646.283997 322.904999 C 646.283997 330.368011 646.283997 337.832001 646.283997 345.295013 C 646.283997 352.944 646.283997 360.592987 646.283997 368.242004 C 646.283997 375.769989 646.283997 383.296997 646.283997 390.825012 C 646.283997 397.953003 646.283997 405.080994 646.283997 412.209015 C 646.283997 418.566986 646.283997 424.924988 646.283997 431.28299 C 646.283997 436.596008 646.283997 441.908997 646.283997 447.221008 C 646.283997 451.181 646.283997 455.140991 646.283997 459.101013 C 646.283997 461.401001 646.283997 463.700989 646.283997 466.001007 C 646.283997 467.329987 646.302979 468.622009 645.85498 469.903015 C 645.01001 472.317993 642.953979 474.187012 640.469971 474.799988 C 639.504028 475.037994 638.536987 475.022003 637.552979 475.022003 C 636.018005 475.022003 634.481995 475.022003 632.947021 475.022003 C 630.309021 475.022003 627.671997 475.022003 625.033997 475.022003 C 621.403015 475.022003 617.77301 475.022003 614.142029 475.022003 C 609.627991 475.022003 605.112976 475.022003 600.598999 475.022003 C 595.309998 475.022003 590.021973 475.022003 584.732971 475.022003 C 578.778992 475.022003 572.825012 475.022003 566.870972 475.022003 C 560.361023 475.022003 553.851013 475.022003 547.34198 475.022003 C 540.385986 475.022003 533.429016 475.022003 526.473022 475.022003 C 519.179016 475.022003 511.885986 475.022003 504.59201 475.022003 C 497.070007 475.022003 489.548004 475.022003 482.027008 475.022003 C 474.352997 475.022003 466.678986 475.022003 459.005005 475.022003 C 451.355011 475.022003 443.704987 475.022003 436.056 475.022003 C 428.506012 475.022003 420.957001 475.022003 413.407013 475.022003 C 406.066986 475.022003 398.72699 475.022003 391.386993 475.022003 C 384.365997 475.022003 377.343994 475.022003 370.322998 475.022003 C 363.730011 475.022003 357.136993 475.022003 350.542999 475.022003 C 344.487 475.022003 338.431 475.022003 332.375 475.022003 C 326.966003 475.022003 321.557007 475.022003 316.147003 475.022003 C 311.493988 475.022003 306.839996 475.022003 302.187012 475.022003 C 298.398987 475.022003 294.610992 475.022003 290.822998 475.022003 C 288.009003 475.022003 285.196014 475.022003 282.381989 475.022003 C 280.652008 475.022003 278.921997 475.022003 277.191986 475.022003 C 276.651001 475.02301 276.110992 475.02301 275.570007 475.02301 Z"/>
        </g>
        <g id="POLYLINE202">
            <path id="path23" fill="none" stroke="#00b9d2" stroke-width="2.75" stroke-linecap="round" stroke-linejoin="round" d="M 278.957001 453.821014 C 278.957001 452.937012 278.957001 452.053009 278.957001 451.169006 C 278.957001 448.700989 278.957001 446.231995 278.957001 443.764008 C 278.957001 439.937988 278.957001 436.113007 278.957001 432.286987 C 278.957001 427.390991 278.957001 422.496002 278.957001 417.600006 C 278.957001 411.838013 278.957001 406.075012 278.957001 400.312988 C 278.957001 393.958008 278.957001 387.602997 278.957001 381.247986 C 278.957001 374.585999 278.957001 367.924011 278.957001 361.261993 C 278.957001 354.479004 278.957001 347.695007 278.957001 340.911987 C 278.957001 334.324005 278.957001 327.734985 278.957001 321.147003 C 278.957001 314.940002 278.957001 308.733002 278.957001 302.526001 C 278.957001 296.985992 278.957001 291.446014 278.957001 285.906006 C 278.957001 281.304993 278.957001 276.704987 278.957001 272.104004 C 278.957001 268.648987 278.957001 265.194 278.957001 261.739014 C 278.957001 259.713013 278.957001 257.687012 278.957001 255.661011 C 278.957001 255.268982 278.802002 254.485992 279.091003 254.320984 C 279.248993 254.22998 279.740997 254.320984 279.919006 254.320984 C 280.438995 254.320984 280.958008 254.320984 281.477997 254.320984 C 283.197998 254.320984 284.917999 254.320984 286.639008 254.320984 C 289.221985 254.320984 291.804993 254.320984 294.388 254.320984 C 297.730011 254.320984 301.071991 254.320984 304.412994 254.320984 C 308.467987 254.320984 312.522003 254.320984 316.576996 254.320984 C 321.251007 254.320984 325.924988 254.320984 330.598999 254.320984 C 335.786011 254.320984 340.972992 254.320984 346.160004 254.320984 C 351.833008 254.320984 357.505005 254.320984 363.178009 254.320984 C 369.201996 254.320984 375.226013 254.320984 381.25 254.320984 C 387.605988 254.320984 393.962006 254.320984 400.317993 254.320984 C 406.89801 254.320984 413.477997 254.320984 420.058014 254.320984 C 426.75 254.320984 433.44101 254.320984 440.132996 254.320984 C 446.923004 254.320984 453.713989 254.320984 460.503998 254.320984 C 467.247986 254.320984 473.992004 254.320984 480.735992 254.320984 C 487.42099 254.320984 494.106995 254.320984 500.791992 254.320984 C 507.306 254.320984 513.820007 254.320984 520.335022 254.320984 C 526.56897 254.320984 532.802979 254.320984 539.036011 254.320984 C 544.971985 254.320984 550.90802 254.320984 556.843994 254.320984 C 562.346008 254.320984 567.846985 254.320984 573.348999 254.320984 C 578.392029 254.320984 583.434021 254.320984 588.47699 254.320984 C 592.953003 254.320984 597.429993 254.320984 601.906006 254.320984 C 605.719971 254.320984 609.53302 254.320984 613.346985 254.320984 C 616.45697 254.320984 619.565979 254.320984 622.676025 254.320984 C 624.973022 254.320984 627.27002 254.320984 629.567017 254.320984 C 630.994995 254.320984 632.422974 254.320984 633.851013 254.320984 C 634.047974 254.320984 635.106018 254.175995 635.252991 254.325012 C 635.335022 254.408997 635.252991 254.984985 635.252991 255.095001 C 635.252991 255.781006 635.252991 256.467987 635.252991 257.153992 C 635.252991 259.688995 635.252991 262.222992 635.252991 264.757996 C 635.252991 268.609985 635.252991 272.460999 635.252991 276.312988 C 635.252991 281.268005 635.252991 286.222992 635.252991 291.178009 C 635.252991 296.967987 635.252991 302.759003 635.252991 308.549011 C 635.252991 314.890015 635.252991 321.230988 635.252991 327.571991 C 635.252991 334.274994 635.252991 340.97699 635.252991 347.679993 C 635.252991 354.428986 635.252991 361.177002 635.252991 367.925995 C 635.252991 374.536011 635.252991 381.145996 635.252991 387.756012 C 635.252991 393.941986 635.252991 400.127014 635.252991 406.312988 C 635.252991 411.796997 635.252991 417.279999 635.252991 422.764008 C 635.252991 427.348999 635.252991 431.933014 635.252991 436.518005 C 635.252991 439.908997 635.252991 443.299011 635.252991 446.690002 C 635.252991 448.669006 635.252991 450.64801 635.252991 452.626007 C 635.252991 453.071014 635.416992 453.661987 635.08197 453.824005 C 634.890015 453.916992 634.419006 453.824005 634.208008 453.824005 C 633.671997 453.824005 633.135986 453.824005 632.599976 453.824005 C 630.838013 453.824005 629.077026 453.824005 627.315002 453.824005 C 624.715027 453.824005 622.11499 453.824005 619.515015 453.824005 C 616.130005 453.824005 612.744019 453.824005 609.359009 453.824005 C 605.278015 453.824005 601.197998 453.824005 597.117004 453.824005 C 592.445007 453.824005 587.77301 453.824005 583.099976 453.824005 C 577.869019 453.824005 572.638 453.824005 567.406982 453.824005 C 561.747009 453.824005 556.086975 453.824005 550.426025 453.824005 C 544.359985 453.824005 538.29303 453.824005 532.22699 453.824005 C 525.861023 453.824005 519.494019 453.824005 513.127991 453.824005 C 506.572998 453.824005 500.019012 453.824005 493.463989 453.824005 C 486.735992 453.824005 480.006989 453.824005 473.278992 453.824005 C 466.520996 453.824005 459.763 453.824005 453.005005 453.824005 C 446.230011 453.824005 439.45401 453.824005 432.678986 453.824005 C 425.998993 453.824005 419.319 453.824005 412.639008 453.824005 C 406.164001 453.824005 399.690002 453.824005 393.214996 453.824005 C 386.960999 453.824005 380.707001 453.824005 374.45401 453.824005 C 368.561005 453.824005 362.666992 453.824005 356.773987 453.824005 C 351.261993 453.824005 345.75 453.824005 340.237 453.824005 C 335.214996 453.824005 330.192993 453.824005 325.17099 453.824005 C 320.739014 453.824005 316.307007 453.824005 311.875 453.824005 C 308.067993 453.824005 304.260986 453.824005 300.453003 453.824005 C 297.385986 453.824005 294.320007 453.824005 291.252991 453.824005 C 288.976013 453.824005 286.699005 453.824005 284.42099 453.824005 C 283.028992 453.824005 281.636993 453.824005 280.246002 453.824005 C 279.817993 453.821014 279.386993 453.821014 278.957001 453.821014 Z"/>
        </g>
        <g id="POLYLINE211">
            <path id="path24" fill="none" stroke="#00b9d2" stroke-width="1.75" stroke-linecap="round" stroke-linejoin="round" d="M 115.903999 295.183014 L 213.309006 295.183014"/>
        </g>
        <g id="POLYLINE221">
            <path id="path25" fill="none" stroke="#00b9d2" stroke-width="2.75" stroke-linecap="round" stroke-linejoin="round" d="M 119.945999 507.88501 C 117.837997 507.872986 116.068001 506.216003 115.913002 504.114014 C 115.888 503.769012 115.903999 503.415985 115.903999 503.070007 C 115.903999 500.968994 115.903999 498.868988 115.903999 496.768005 C 115.903999 492.829987 115.903999 488.890991 115.903999 484.953003 C 115.903999 479.485992 115.903999 474.019012 115.903999 468.552002 C 115.903999 461.936005 115.903999 455.321014 115.903999 448.704987 C 115.903999 441.255005 115.903999 433.806 115.903999 426.355988 C 115.903999 418.406006 115.903999 410.457001 115.903999 402.506989 C 115.903999 394.391998 115.903999 386.277008 115.903999 378.161011 C 115.903999 370.213989 115.903999 362.266998 115.903999 354.321014 C 115.903999 346.877014 115.903999 339.433014 115.903999 331.988007 C 115.903999 325.355988 115.903999 318.722992 115.903999 312.091003 C 115.903999 306.660004 115.903999 301.229004 115.903999 295.798004 C 115.903999 291.872986 115.903999 287.949005 115.903999 284.023987 C 115.903999 281.940002 115.903999 279.855988 115.903999 277.770996 C 115.903999 275.289001 117.186996 273.071991 119.946999 272.983002 C 122.583 272.89801 125.235001 272.983002 127.872002 272.983002 C 134.261993 272.983002 140.651993 272.983002 147.042007 272.983002 C 155.022995 272.983002 163.005005 272.983002 170.985992 272.983002 C 178.401993 272.983002 185.817001 272.983002 193.233002 272.983002 C 197.925995 272.983002 202.617996 272.983002 207.311005 272.983002 C 208.018997 272.983002 208.738998 272.946014 209.447006 272.987 C 211.578003 273.110992 213.214005 274.81601 213.307999 276.934998 C 213.358002 278.061005 213.309006 279.200012 213.309006 280.326996 C 213.309006 283.425995 213.309006 286.524994 213.309006 289.623993 C 213.309006 294.386993 213.309006 299.148987 213.309006 303.911987 C 213.309006 310.003998 213.309006 316.096985 213.309006 322.188995 C 213.309006 329.277008 213.309006 336.36499 213.309006 343.453003 C 213.309006 351.203003 213.309006 358.951996 213.309006 366.701996 C 213.309006 374.778992 213.309006 382.855988 213.309006 390.932007 C 213.309006 399.035004 213.309006 407.136993 213.309006 415.23999 C 213.309006 422.96701 213.309006 430.694 213.309006 438.42099 C 213.309006 445.471008 213.309006 452.522003 213.309006 459.571991 C 213.309006 465.612 213.309006 471.651001 213.309006 477.69101 C 213.309006 482.385986 213.309006 487.080994 213.309006 491.776001 C 213.309006 494.791992 213.309006 497.808014 213.309006 500.824005 C 213.309006 501.988007 213.429993 503.230011 213.272003 504.390015 C 212.994995 506.415009 211.261002 507.822998 209.261993 507.884003 C 208.501999 507.907013 207.738007 507.884003 206.977997 507.884003 C 202.130997 507.884003 197.285004 507.884003 192.438004 507.884003 C 184.957001 507.884003 177.475998 507.884003 169.994995 507.884003 C 162.035995 507.884003 154.078003 507.884003 146.119003 507.884003 C 139.820999 507.884003 133.522995 507.884003 127.224998 507.884003 C 124.797997 507.88501 122.372002 507.88501 119.945999 507.88501 Z"/>
        </g>
        <g id="POLYLINE222">
            <path id="path26" fill="none" stroke="#00b9d2" stroke-width="2.75" stroke-linecap="round" stroke-linejoin="round" d="M 114.470001 527.651978 C 110.370003 527.643005 106.630997 524.966003 105.325996 521.073975 C 104.731003 519.299011 104.824997 517.471008 104.824997 515.632019 C 104.824997 512.267029 104.824997 508.902008 104.824997 505.536987 C 104.824997 499.992004 104.824997 494.446991 104.824997 488.902008 C 104.824997 481.641998 104.824997 474.381989 104.824997 467.122009 C 104.824997 458.618988 104.824997 450.115997 104.824997 441.613007 C 104.824997 432.306 104.824997 423 104.824997 413.692993 C 104.824997 404.121002 104.824997 394.548004 104.824997 384.976013 C 104.824997 375.546997 104.824997 366.118988 104.824997 356.690002 C 104.824997 347.944 104.824997 339.197998 104.824997 330.451996 C 104.824997 322.826996 104.824997 315.203003 104.824997 307.578003 C 104.824997 301.546997 104.824997 295.516998 104.824997 289.485992 C 104.824997 285.511993 104.824997 281.536987 104.824997 277.562988 C 104.824997 276.132996 104.803001 274.700989 104.824997 273.270996 C 104.888 269.165009 107.518997 265.451996 111.442001 264.154999 C 114.077003 263.283997 117.245003 263.666992 119.969002 263.666992 C 126.802002 263.666992 133.634003 263.666992 140.466995 263.666992 C 149.744003 263.666992 159.022003 263.666992 168.298996 263.666992 C 177.242996 263.666992 186.186996 263.666992 195.130997 263.666992 C 200.878006 263.666992 206.623993 263.666992 212.371002 263.666992 C 215.315002 263.666992 218.078003 263.743011 220.559006 265.618011 C 223.089005 267.531006 224.378998 270.47699 224.388 273.605988 C 224.393997 275.730011 224.388 277.854004 224.388 279.97699 C 224.388 284.518005 224.388 289.058014 224.388 293.598999 C 224.388 300.109985 224.388 306.619995 224.388 313.131012 C 224.388 321.122986 224.388 329.114014 224.388 337.105988 C 224.388 346.069 224.388 355.03299 224.388 363.996002 C 224.388 373.484009 224.388 382.971985 224.388 392.459991 C 224.388 402 224.388 411.540985 224.388 421.080994 C 224.388 430.231995 224.388 439.382996 224.388 448.533997 C 224.388 456.759003 224.388 464.984009 224.388 473.208008 C 224.388 480.088013 224.388 486.967987 224.388 493.846985 C 224.388 498.860992 224.388 503.873993 224.388 508.888 C 224.388 511.589996 224.388 514.291016 224.388 516.992981 C 224.388 519.461975 223.970993 521.789978 222.436996 523.820007 C 220.388 526.531006 217.322998 527.648987 214.022003 527.648987 C 209.373001 527.648987 204.723999 527.648987 200.074997 527.648987 C 191.595001 527.648987 183.115005 527.648987 174.634003 527.648987 C 165.194 527.648987 155.755005 527.648987 146.315002 527.648987 C 138.697006 527.648987 131.078995 527.648987 123.459999 527.648987 C 120.462997 527.651978 117.467003 527.651978 114.470001 527.651978 Z"/>
        </g>
    </g>
    <g id="AG-OUTLINE">
        <g id="POLYLINE7">
            <path id="path27" fill="none" stroke="#00b9d2" stroke-width="3.5" stroke-linecap="round" stroke-linejoin="round" d="M 114.470001 527.651978 C 118.005997 527.651978 121.542 527.651978 125.078003 527.651978 C 133.421997 527.651978 141.766998 527.651978 150.110992 527.651978 C 160.061996 527.651978 170.011993 527.651978 179.962997 527.651978 C 188.231995 527.651978 196.501007 527.651978 204.770004 527.651978 C 208.160995 527.651978 211.565994 527.739014 214.955994 527.650024 C 218.024002 527.56897 220.929001 526.020996 222.677002 523.48999 C 223.929001 521.677979 224.386993 519.619019 224.386993 517.450989 C 224.386993 514.879028 224.386993 512.30603 224.386993 509.734009 C 224.386993 504.563995 224.386993 499.394989 224.386993 494.225006 C 224.386993 487.035004 224.386993 479.843994 224.386993 472.653992 C 224.386993 463.912994 224.386993 455.171997 224.386993 446.432007 C 224.386993 436.803009 224.386993 427.174011 224.386993 417.54599 C 224.386993 407.487 224.386993 397.428986 224.386993 387.369995 C 224.386993 377.462006 224.386993 367.553986 224.386993 357.645996 C 224.386993 348.46701 224.386993 339.287994 224.386993 330.109985 C 224.386993 322.14801 224.386993 314.186005 224.386993 306.223999 C 224.386993 300.061005 224.386993 293.897003 224.386993 287.734009 C 224.386993 283.919006 224.386993 280.104004 224.386993 276.289001 C 224.386993 274.735992 224.509995 273.093994 224.225998 271.55899 C 223.660995 268.509003 221.604996 265.860992 218.789993 264.55899 C 216.522995 263.510986 214.126999 263.667999 211.699997 263.667999 C 205.264008 263.667999 198.828003 263.667999 192.391998 263.667999 C 182.796997 263.667999 173.201996 263.667999 163.608002 263.667999 C 154.121002 263.667999 144.634003 263.667999 135.147003 263.667999 C 129.044998 263.667999 122.944 263.667999 116.842003 263.667999 C 114.418999 263.667999 112.116997 263.627991 109.904999 264.816986 C 107.177002 266.28299 105.283997 269.041992 104.899002 272.115997 C 104.707001 273.648987 104.823997 275.256012 104.823997 276.794006 C 104.823997 280.781006 104.823997 284.768005 104.823997 288.753998 C 104.823997 295.028992 104.823997 301.303986 104.823997 307.57901 C 104.823997 315.63501 104.823997 323.691986 104.823997 331.747986 C 104.823997 341.019012 104.823997 350.289001 104.823997 359.559998 C 104.823997 369.462006 104.823997 379.363007 104.823997 389.265015 C 104.823997 399.347992 104.823997 409.429993 104.823997 419.513 C 104.823997 429.096008 104.823997 438.679993 104.823997 448.263 C 104.823997 456.894989 104.823997 465.528015 104.823997 474.160004 C 104.823997 481.259003 104.823997 488.356995 104.823997 495.455994 C 104.823997 500.459015 104.823997 505.460999 104.823997 510.463989 C 104.823997 512.857971 104.820999 515.252014 104.823997 517.646973 C 104.827003 519.955994 105.454002 522.156982 106.903 523.98999 C 108.719002 526.284973 111.544998 527.651001 114.470001 527.651978 Z"/>
        </g>
        <g id="POLYLINE8">
            <path id="path28" fill="none" stroke="#00b9d2" stroke-width="3.5" stroke-linecap="round" stroke-linejoin="round" d="M 424.81601 519.786987 C 419.868988 519.786987 414.921997 519.786987 409.975006 519.786987 C 405.299011 519.786987 400.615997 519.713989 395.94101 519.799988 C 393.834015 519.838989 391.700012 519.927979 389.627014 520.333984 C 388.214996 520.611023 386.683014 521.039001 385.746002 522.210999 C 384.937012 523.221985 384.325989 524.599976 384.71701 525.908997 C 385.209015 527.554993 387.636993 527.611023 389.041992 527.645996 C 391.665985 527.711975 394.296997 527.651978 396.92099 527.651978 C 403.049988 527.651978 409.178986 527.651978 415.308014 527.651978 C 422.434998 527.651978 429.561005 527.651978 436.687988 527.651978 C 442.127014 527.651978 447.566986 527.651978 453.006012 527.651978 C 454.645996 527.651978 456.286011 527.651978 457.924988 527.651978 C 461.959991 527.651978 465.996002 527.651978 470.031006 527.651978 C 476.812988 527.651978 483.595001 527.651978 490.376007 527.651978 C 497.218994 527.651978 504.062988 527.651978 510.906006 527.651978 C 515.125977 527.651978 519.346008 527.651978 523.565979 527.651978 C 525.609009 527.651978 529.487976 527.992981 529.585022 525.18103 C 529.705017 521.700012 526.15802 520.513 523.348022 520.132996 C 519.684021 519.637024 515.937012 519.786987 512.249023 519.786987 C 505.696991 519.786987 499.144012 519.786987 492.59201 519.786987 C 492.033997 519.786987 489.660004 520.086975 489.394012 519.65802 C 489.230988 519.395996 489.394012 518.497986 489.394012 518.198975 C 489.394012 517.268982 489.394012 516.338989 489.394012 515.409973 C 489.394012 509.009003 489.394012 502.608002 489.394012 496.207001 C 489.394012 490.143005 489.394012 484.078003 489.394012 478.014008 C 489.394012 477.016998 489.394012 476.020996 489.394012 475.023987 C 490.811005 475.023987 492.227997 475.023987 493.644989 475.023987 C 497.466003 475.023987 501.286987 475.023987 505.108002 475.023987 C 510.727997 475.023987 516.348022 475.023987 521.96698 475.023987 C 528.812988 475.023987 535.658997 475.023987 542.504028 475.023987 C 549.940979 475.023987 557.377991 475.023987 564.815002 475.023987 C 572.198975 475.023987 579.58197 475.023987 586.966003 475.023987 C 593.723022 475.023987 600.47998 475.023987 607.237 475.023987 C 612.78302 475.023987 618.330017 475.023987 623.875977 475.023987 C 627.554993 475.023987 631.234985 475.023987 634.914001 475.023987 C 636.257996 475.023987 637.612976 475.075989 638.95697 475.016998 C 640.726013 474.938995 642.439026 474.243988 643.755005 473.058014 C 645.098022 471.846985 645.981018 470.166992 646.216003 468.373993 C 646.341003 467.424011 646.281006 466.436005 646.281006 465.480988 C 646.281006 463.028992 646.281006 460.575989 646.281006 458.123993 C 646.281006 454.118988 646.281006 450.11499 646.281006 446.109985 C 646.281006 440.808014 646.281006 435.506012 646.281006 430.20401 C 646.281006 423.940002 646.281006 417.677002 646.281006 411.412994 C 646.281006 404.423004 646.281006 397.432007 646.281006 390.441986 C 646.281006 383.075989 646.281006 375.709991 646.281006 368.343994 C 646.281006 360.826996 646.281006 353.309998 646.281006 345.792999 C 646.281006 338.480988 646.281006 331.167999 646.281006 323.855988 C 646.281006 316.973999 646.281006 310.09201 646.281006 303.209991 C 646.281006 297.108002 646.281006 291.006012 646.281006 284.903992 C 646.281006 279.817993 646.281006 274.733002 646.281006 269.647003 C 646.281006 265.911987 646.281006 262.175995 646.281006 258.44101 C 646.281006 256.319 646.281006 254.195984 646.281006 252.074005 C 646.281006 251.039978 646.297974 250.02301 646.034973 249.01001 C 645.573975 247.23999 644.471008 245.667999 642.963013 244.632996 C 641.672974 243.747986 640.16803 243.313995 638.611023 243.291992 C 637.867004 243.281006 637.122986 243.291992 636.379028 243.291992 C 634.5 243.291992 632.622009 243.291992 630.742981 243.291992 C 627.848999 243.291992 624.955017 243.291992 622.060974 243.291992 C 618.229004 243.291992 614.39801 243.291992 610.565979 243.291992 C 605.932983 243.291992 601.299988 243.291992 596.66803 243.291992 C 591.296021 243.291992 585.924011 243.291992 580.552002 243.291992 C 574.591003 243.291992 568.630981 243.291992 562.669983 243.291992 C 556.171021 243.291992 549.671997 243.291992 543.171997 243.291992 C 536.294006 243.291992 529.416992 243.291992 522.539001 243.291992 C 515.325012 243.291992 508.112 243.291992 500.89801 243.291992 C 493.515015 243.291992 486.131012 243.291992 478.747986 243.291992 C 471.233002 243.291992 463.71701 243.291992 456.201996 243.291992 C 448.723999 243.291992 441.246002 243.291992 433.768005 243.291992 C 426.364014 243.291992 418.959991 243.291992 411.556 243.291992 C 404.394012 243.291992 397.231995 243.291992 390.070007 243.291992 C 383.220001 243.291992 376.368988 243.291992 369.519012 243.291992 C 363.054993 243.291992 356.591003 243.291992 350.126007 243.291992 C 344.208008 243.291992 338.290009 243.291992 332.372009 243.291992 C 327.050995 243.291992 321.729004 243.291992 316.40799 243.291992 C 311.833008 243.291992 307.259003 243.291992 302.68399 243.291992 C 298.917999 243.291992 295.153015 243.291992 291.386993 243.291992 C 288.566986 243.291992 285.746002 243.291992 282.925995 243.291992 C 281.128998 243.291992 279.332001 243.291992 277.535004 243.291992 C 276.880005 243.291992 276.225006 243.281982 275.570007 243.291992 C 273.881012 243.319 272.248993 243.843018 270.903992 244.878998 C 269.463013 245.989014 268.450012 247.606995 268.082001 249.389008 C 267.880005 250.369995 267.924011 251.372009 267.924011 252.367004 C 267.924011 254.621002 267.924011 256.876007 267.924011 259.130005 C 267.924011 262.996002 267.924011 266.862 267.924011 270.727997 C 267.924011 275.881989 267.924011 281.036987 267.924011 286.19101 C 267.924011 292.389008 267.924011 298.587006 267.924011 304.785004 C 267.924011 311.683014 267.924011 318.580994 267.924011 325.477997 C 267.924011 332.846008 267.924011 340.214996 267.924011 347.583008 C 267.924011 355.067993 267.924011 362.553009 267.924011 370.037994 C 267.924011 377.384003 267.924011 384.729004 267.924011 392.075012 C 267.924011 399.02301 267.924011 405.970001 267.924011 412.917999 C 267.924011 419.143005 267.924011 425.368011 267.924011 431.592987 C 267.924011 436.78299 267.924011 441.972992 267.924011 447.164001 C 267.924011 451.061005 267.924011 454.958008 267.924011 458.855011 C 267.924011 461.177002 267.924011 463.498993 267.924011 465.821991 C 267.924011 466.79599 267.872009 467.790009 268.048004 468.752014 C 268.373993 470.544006 269.351013 472.188995 270.769012 473.333008 C 272.135986 474.436005 273.820007 474.997986 275.567993 475.027008 C 277.007996 475.050995 278.450989 475.027008 279.891998 475.027008 C 283.731995 475.027008 287.571014 475.027008 291.411011 475.027008 C 297.071991 475.027008 302.733002 475.027008 308.394989 475.027008 C 315.221008 475.027008 322.04599 475.027008 328.872009 475.027008 C 336.312012 475.027008 343.751007 475.027008 351.19101 475.027008 C 358.571991 475.027008 365.951996 475.027008 373.333008 475.027008 C 380.109009 475.027008 386.885986 475.027008 393.661987 475.027008 C 399.166992 475.027008 404.671997 475.027008 410.177002 475.027008 C 413.848999 475.027008 417.519989 475.027008 421.191986 475.027008 C 422.398987 475.027008 423.605988 475.027008 424.813995 475.027008 C 424.813995 480.062988 424.813995 485.098999 424.813995 490.134003 C 424.813995 498.166992 424.813995 506.200012 424.813995 514.232971 C 424.81601 516.08197 424.81601 517.934021 424.81601 519.786987 Z"/>
        </g>
    </g>
</svg>
